M48
; DRILL file {KiCad 9.0.2} date 2025-06-28T10:42:52+0200
; FORMAT={-:-/ absolute / inch / decimal}
; #@! TF.CreationDate,2025-06-28T10:42:52+02:00
; #@! TF.GenerationSoftware,Kicad,Pcbnew,9.0.2
; #@! TF.FileFunction,Plated,1,2,PTH
FMAT,2
INCH
; #@! TA.AperFunction,Plated,PTH,ViaDrill
T1C0.0118
; #@! TA.AperFunction,Plated,PTH,ComponentDrill
T2C0.0360
%
G90
G05
T1
X1.4528Y-2.9252
X1.5205Y-2.4724
X1.5787Y-3.0551
X1.626Y-2.8898
X1.6299Y-2.8268
X1.6614Y-2.7701
X1.6693Y-2.6417
X1.7205Y-2.5906
X1.7244Y-2.5472
X1.7441Y-3.4646
X1.7953Y-2.8661
X1.8031Y-2.7953
X1.8328Y-2.7205
X1.8583Y-2.7913
X1.8583Y-3.5827
X1.9055Y-2.5591
X1.9134Y-3.1142
X1.9449Y-3.063
X1.9589Y-2.8797
X1.9843Y-2.748
X2.0Y-2.7913
X2.0Y-2.8819
X2.0039Y-2.5669
X2.0748Y-2.4528
X2.0787Y-2.6772
X2.1339Y-2.8976
X2.1654Y-3.0315
X2.1969Y-3.0039
X2.2559Y-2.9685
X2.3411Y-2.9887
X2.3465Y-2.1811
X2.4134Y-2.7323
X2.4173Y-2.8031
X2.4173Y-2.9488
X2.4252Y-3.1417
X2.4331Y-3.063
X2.5Y-3.1339
X2.5039Y-3.5
X2.5236Y-3.4213
X2.6142Y-2.6063
X2.6181Y-2.7087
X2.626Y-3.4331
X2.6535Y-2.4409
X2.7067Y-2.3957
X2.7362Y-3.4409
X2.7953Y-2.5827
X2.811Y-2.9449
X2.8386Y-3.4409
X2.8622Y-3.1142
X2.8701Y-2.8504
X2.8976Y-2.6811
X2.9291Y-3.2402
X2.9921Y-2.9331
X3.0118Y-2.7087
X3.0315Y-3.2008
X3.0669Y-3.0236
X3.0768Y-3.2106
X3.1339Y-3.0197
X3.1654Y-2.2598
X3.1732Y-2.5039
X3.4055Y-2.3622
X3.4094Y-2.9016
T2
X3.2323Y-2.6024
X3.2323Y-2.6811
X3.2323Y-2.7598
X3.2323Y-2.8386
X3.2323Y-2.9173
X3.2323Y-2.9961
X3.2323Y-3.0748
X3.2323Y-3.1535
X3.311Y-2.6024
X3.311Y-2.6811
X3.311Y-2.7598
X3.311Y-2.8386
X3.311Y-2.9173
X3.311Y-2.9961
X3.311Y-3.0748
X3.311Y-3.1535
M30
