%TF.GenerationSoftware,KiCad,Pcbnew,9.0.2*%
%TF.CreationDate,2025-06-28T19:26:11+02:00*%
%TF.ProjectId,cantoto,63616e74-6f74-46f2-9e6b-696361645f70,rev?*%
%TF.SameCoordinates,Original*%
%TF.FileFunction,Copper,L2,Bot*%
%TF.FilePolarity,Positive*%
%FSLAX46Y46*%
G04 Gerber Fmt 4.6, Leading zero omitted, Abs format (unit mm)*
G04 Created by KiCad (PCBNEW 9.0.2) date 2025-06-28 19:26:11*
%MOMM*%
%LPD*%
G01*
G04 APERTURE LIST*
%TA.AperFunction,ComponentPad*%
%ADD10C,1.520000*%
%TD*%
%TA.AperFunction,ViaPad*%
%ADD11C,0.600000*%
%TD*%
%TA.AperFunction,ViaPad*%
%ADD12C,0.700000*%
%TD*%
%TA.AperFunction,Conductor*%
%ADD13C,0.300000*%
%TD*%
%TA.AperFunction,Conductor*%
%ADD14C,0.500000*%
%TD*%
G04 APERTURE END LIST*
D10*
%TO.P,U5,1,1*%
%TO.N,/USART1_TX*%
X84100000Y-66100000D03*
%TO.P,U5,2,2*%
%TO.N,GND*%
X82100000Y-66100000D03*
%TO.P,U5,3,3*%
%TO.N,unconnected-(U5-Pad3)*%
X84100000Y-68100000D03*
%TO.P,U5,4,4*%
%TO.N,/USART1_RX*%
X82100000Y-68100000D03*
%TO.P,U5,5,5*%
%TO.N,unconnected-(U5-Pad5)*%
X84100000Y-70100000D03*
%TO.P,U5,6,6*%
%TO.N,/SWCLK*%
X82100000Y-70100000D03*
%TO.P,U5,7,7*%
%TO.N,/SWC*%
X84100000Y-72100000D03*
%TO.P,U5,8,8*%
%TO.N,/SWDIO*%
X82100000Y-72100000D03*
%TO.P,U5,9,9*%
%TO.N,unconnected-(U5-Pad9)*%
X84100000Y-74100000D03*
%TO.P,U5,10,10*%
%TO.N,unconnected-(U5-Pad10)*%
X82100000Y-74100000D03*
%TO.P,U5,11,11*%
%TO.N,/ACC*%
X84100000Y-76100000D03*
%TO.P,U5,12,12*%
%TO.N,/ILL*%
X82100000Y-76100000D03*
%TO.P,U5,13,13*%
%TO.N,/CANL*%
X84100000Y-78100000D03*
%TO.P,U5,14,14*%
%TO.N,/CANH*%
X82100000Y-78100000D03*
%TO.P,U5,15,15*%
%TO.N,VCAR*%
X84100000Y-80100000D03*
%TO.P,U5,16,16*%
%TO.N,GND*%
X82100000Y-80100000D03*
%TD*%
D11*
%TO.N,+3.3V*%
X52800000Y-68000000D03*
D12*
X43700000Y-65800000D03*
X42400000Y-67100000D03*
D11*
X54200000Y-73600000D03*
X52700000Y-62300000D03*
D12*
%TO.N,GND*%
X42200000Y-70360000D03*
X50400000Y-69800000D03*
X71400000Y-74800000D03*
D11*
X72100000Y-87400000D03*
D12*
X47200000Y-91000000D03*
X49400000Y-77800000D03*
X44300000Y-88000000D03*
X36900000Y-74300000D03*
X40100000Y-77600000D03*
D11*
X66700000Y-87200000D03*
X63600000Y-88900000D03*
D12*
X61600000Y-79800000D03*
X46554000Y-69100000D03*
X38620000Y-62800000D03*
X59463891Y-75913885D03*
X80600000Y-63600000D03*
X80400000Y-57400000D03*
X61300000Y-69400000D03*
X45600000Y-72800000D03*
D11*
X64100000Y-86900000D03*
X69500000Y-87400000D03*
D12*
X72700000Y-79100000D03*
D11*
X78150000Y-81550000D03*
X59600000Y-55400000D03*
%TO.N,/NRST*%
X45800000Y-71000000D03*
X43800000Y-64700000D03*
D12*
%TO.N,/HSE_OUT*%
X41400000Y-71800000D03*
X41300000Y-73400000D03*
D11*
%TO.N,+5V*%
X61400000Y-71200000D03*
X61400000Y-74900000D03*
%TO.N,/SWCLK*%
X71000000Y-65600000D03*
X67400000Y-62000000D03*
D12*
%TO.N,/I2C1_SCL*%
X50800000Y-73200000D03*
X55800000Y-76300000D03*
%TO.N,/GPIO_ACC*%
X47200000Y-70900000D03*
X48400000Y-65000000D03*
D11*
%TO.N,+12V*%
X86500000Y-60000000D03*
X77900000Y-76800000D03*
D12*
X74400000Y-82300000D03*
%TO.N,/CANSTB*%
X66400000Y-66200000D03*
X66500000Y-68800000D03*
%TO.N,/USART1_RX*%
X76500000Y-68800000D03*
X72900000Y-72400000D03*
%TO.N,/I2C1_SCDA*%
X49755025Y-73144975D03*
X55000000Y-77000000D03*
D11*
%TO.N,/SWDIO*%
X73600000Y-68100000D03*
X68750000Y-60850000D03*
D12*
%TO.N,/USART1_TX*%
X50900000Y-65200000D03*
X50800000Y-70900000D03*
%TO.N,/GPIO_ILL*%
X57300000Y-75400000D03*
X48600000Y-79100000D03*
%TO.N,/ACC*%
X86600000Y-73700000D03*
%TO.N,/ILL*%
X76000000Y-74500000D03*
%TO.N,/CANL*%
X79600000Y-76700000D03*
%TO.N,/SWC*%
X61800000Y-77800000D03*
X63500000Y-79600000D03*
X77000000Y-81300000D03*
%TD*%
D13*
%TO.N,+3.3V*%
X54200000Y-73600000D02*
X54200000Y-69400000D01*
X54200000Y-69400000D02*
X52800000Y-68000000D01*
X43700000Y-65800000D02*
X42400000Y-67100000D01*
X52800000Y-62400000D02*
X52700000Y-62300000D01*
X52800000Y-68000000D02*
X52800000Y-62400000D01*
D14*
%TO.N,GND*%
X78150000Y-81550000D02*
X72300000Y-87400000D01*
D13*
X71400000Y-74800000D02*
X71300000Y-74900000D01*
X40100000Y-77600000D02*
X40000000Y-77700000D01*
D14*
X72300000Y-87400000D02*
X72100000Y-87400000D01*
D13*
%TO.N,/NRST*%
X45800000Y-71000000D02*
X45800000Y-66700000D01*
X45800000Y-66700000D02*
X43800000Y-64700000D01*
%TO.N,/HSE_OUT*%
X41400000Y-71800000D02*
X41400000Y-73300000D01*
X41400000Y-73300000D02*
X41300000Y-73400000D01*
%TO.N,+5V*%
X61400000Y-71200000D02*
X61400000Y-74900000D01*
%TO.N,/SWCLK*%
X71000000Y-65600000D02*
X67400000Y-62000000D01*
%TO.N,/I2C1_SCL*%
X50800000Y-73200000D02*
X53900000Y-76300000D01*
X53900000Y-76300000D02*
X55800000Y-76300000D01*
%TO.N,/GPIO_ACC*%
X48400000Y-69700000D02*
X47200000Y-70900000D01*
X48400000Y-65000000D02*
X48400000Y-69700000D01*
%TO.N,+12V*%
X81200000Y-60000000D02*
X86500000Y-60000000D01*
X79699000Y-68001000D02*
X79699000Y-61501000D01*
X74400000Y-79300000D02*
X74400000Y-73300000D01*
X74400000Y-73300000D02*
X79699000Y-68001000D01*
X79699000Y-61501000D02*
X81200000Y-60000000D01*
X74400000Y-79300000D02*
X76900000Y-76800000D01*
X74400000Y-82300000D02*
X74400000Y-79300000D01*
X76900000Y-76800000D02*
X77900000Y-76800000D01*
%TO.N,/CANSTB*%
X66500000Y-66300000D02*
X66400000Y-66200000D01*
X66500000Y-68800000D02*
X66500000Y-66300000D01*
%TO.N,/USART1_RX*%
X76500000Y-68800000D02*
X72900000Y-72400000D01*
%TO.N,/I2C1_SCDA*%
X49755025Y-73144975D02*
X53610050Y-77000000D01*
X53610050Y-77000000D02*
X55000000Y-77000000D01*
%TO.N,/SWDIO*%
X68827515Y-60850000D02*
X68750000Y-60850000D01*
X73600000Y-65622485D02*
X68827515Y-60850000D01*
X73600000Y-68100000D02*
X73600000Y-65622485D01*
%TO.N,/USART1_TX*%
X51200000Y-69100000D02*
X51200000Y-70500000D01*
X50900000Y-65200000D02*
X50900000Y-68800000D01*
X51200000Y-70500000D02*
X50800000Y-70900000D01*
X50900000Y-68800000D02*
X51200000Y-69100000D01*
%TO.N,/GPIO_ILL*%
X56900000Y-76191364D02*
X53991364Y-79100000D01*
X57300000Y-75400000D02*
X57300000Y-76000000D01*
X57108636Y-76191364D02*
X56900000Y-76191364D01*
X57300000Y-76000000D02*
X57108636Y-76191364D01*
X53991364Y-79100000D02*
X48600000Y-79100000D01*
%TO.N,/ACC*%
X84100000Y-76100000D02*
X86200000Y-76100000D01*
X86500000Y-73800000D02*
X86600000Y-73700000D01*
X86200000Y-76100000D02*
X86500000Y-75800000D01*
X86500000Y-75800000D02*
X86500000Y-73800000D01*
%TO.N,/ILL*%
X76000000Y-74500000D02*
X80500000Y-74500000D01*
X80500000Y-74500000D02*
X82100000Y-76100000D01*
%TO.N,/CANL*%
X87000000Y-80500000D02*
X87000000Y-78900000D01*
X87000000Y-78900000D02*
X86200000Y-78100000D01*
X86200000Y-78100000D02*
X84100000Y-78100000D01*
X79600000Y-76700000D02*
X79600000Y-79500000D01*
X85600000Y-81900000D02*
X87000000Y-80500000D01*
X79600000Y-79500000D02*
X82000000Y-81900000D01*
X82000000Y-81900000D02*
X85600000Y-81900000D01*
%TO.N,/SWC*%
X77000000Y-81300000D02*
X77401000Y-80899000D01*
X88449000Y-73849000D02*
X86700000Y-72100000D01*
X81600000Y-83900000D02*
X87100000Y-83900000D01*
X87100000Y-83900000D02*
X88449000Y-82551000D01*
X86700000Y-72100000D02*
X84100000Y-72100000D01*
X61800000Y-77800000D02*
X61800000Y-77900000D01*
X88449000Y-82551000D02*
X88449000Y-73849000D01*
X77401000Y-80899000D02*
X78599000Y-80899000D01*
X78599000Y-80899000D02*
X81600000Y-83900000D01*
X61800000Y-77900000D02*
X63500000Y-79600000D01*
%TD*%
%TA.AperFunction,Conductor*%
%TO.N,GND*%
G36*
X88542539Y-53120185D02*
G01*
X88588294Y-53172989D01*
X88599500Y-53224500D01*
X88599500Y-73063035D01*
X88579815Y-73130074D01*
X88527011Y-73175829D01*
X88457853Y-73185773D01*
X88394297Y-73156748D01*
X88387819Y-73150716D01*
X86976616Y-71739513D01*
X86976614Y-71739511D01*
X86925250Y-71709856D01*
X86873888Y-71680201D01*
X86861780Y-71676957D01*
X86849673Y-71673713D01*
X86849670Y-71673712D01*
X86811478Y-71663478D01*
X86759309Y-71649500D01*
X86759308Y-71649500D01*
X85140717Y-71649500D01*
X85073678Y-71629815D01*
X85037615Y-71594391D01*
X85032652Y-71586964D01*
X84958820Y-71476466D01*
X84923744Y-71423970D01*
X84776032Y-71276258D01*
X84776028Y-71276255D01*
X84666547Y-71203102D01*
X84621742Y-71149490D01*
X84613035Y-71080165D01*
X84643189Y-71017137D01*
X84666547Y-70996898D01*
X84709472Y-70968216D01*
X84776029Y-70923744D01*
X84923744Y-70776029D01*
X85039803Y-70602335D01*
X85044137Y-70591873D01*
X85088267Y-70485331D01*
X85119745Y-70409336D01*
X85152103Y-70246666D01*
X85160500Y-70204452D01*
X85160500Y-69995547D01*
X85119746Y-69790670D01*
X85119745Y-69790664D01*
X85045578Y-69611607D01*
X85039806Y-69597671D01*
X85039799Y-69597658D01*
X84923744Y-69423971D01*
X84923741Y-69423967D01*
X84776032Y-69276258D01*
X84776028Y-69276255D01*
X84666547Y-69203102D01*
X84621742Y-69149490D01*
X84613035Y-69080165D01*
X84643189Y-69017137D01*
X84666547Y-68996898D01*
X84700985Y-68973887D01*
X84776029Y-68923744D01*
X84923744Y-68776029D01*
X85039803Y-68602335D01*
X85119745Y-68409336D01*
X85160500Y-68204450D01*
X85160500Y-67995550D01*
X85160500Y-67995547D01*
X85119746Y-67790670D01*
X85119745Y-67790664D01*
X85092754Y-67725501D01*
X85039806Y-67597671D01*
X85039799Y-67597658D01*
X84923744Y-67423971D01*
X84923741Y-67423967D01*
X84776032Y-67276258D01*
X84776028Y-67276255D01*
X84666547Y-67203102D01*
X84621742Y-67149490D01*
X84613035Y-67080165D01*
X84643189Y-67017137D01*
X84666547Y-66996898D01*
X84694314Y-66978344D01*
X84776029Y-66923744D01*
X84923744Y-66776029D01*
X85039803Y-66602335D01*
X85119745Y-66409336D01*
X85146174Y-66276473D01*
X85160500Y-66204452D01*
X85160500Y-65995547D01*
X85129724Y-65840834D01*
X85119745Y-65790664D01*
X85080006Y-65694724D01*
X85039806Y-65597671D01*
X85039799Y-65597658D01*
X84923744Y-65423971D01*
X84923741Y-65423967D01*
X84776032Y-65276258D01*
X84776028Y-65276255D01*
X84602341Y-65160200D01*
X84602328Y-65160193D01*
X84409337Y-65080255D01*
X84409329Y-65080253D01*
X84204452Y-65039500D01*
X84204450Y-65039500D01*
X83995550Y-65039500D01*
X83995548Y-65039500D01*
X83790670Y-65080253D01*
X83790662Y-65080255D01*
X83597671Y-65160193D01*
X83597658Y-65160200D01*
X83423971Y-65276255D01*
X83315221Y-65385005D01*
X83253898Y-65418489D01*
X83184206Y-65413505D01*
X83172019Y-65404381D01*
X83150837Y-65402714D01*
X82548016Y-66005535D01*
X82526042Y-65923527D01*
X82465851Y-65819273D01*
X82380727Y-65734149D01*
X82276473Y-65673958D01*
X82194463Y-65651983D01*
X82797283Y-65049161D01*
X82760380Y-65022350D01*
X82583672Y-64932311D01*
X82583669Y-64932310D01*
X82395052Y-64871026D01*
X82199163Y-64840000D01*
X82000837Y-64840000D01*
X81804947Y-64871026D01*
X81616330Y-64932310D01*
X81616322Y-64932313D01*
X81439615Y-65022352D01*
X81402715Y-65049160D01*
X81402715Y-65049161D01*
X82005537Y-65651983D01*
X81923527Y-65673958D01*
X81819273Y-65734149D01*
X81734149Y-65819273D01*
X81673958Y-65923527D01*
X81651983Y-66005537D01*
X81049161Y-65402715D01*
X81049160Y-65402715D01*
X81022352Y-65439615D01*
X80932313Y-65616322D01*
X80932310Y-65616330D01*
X80871026Y-65804947D01*
X80840000Y-66000836D01*
X80840000Y-66199163D01*
X80871026Y-66395052D01*
X80932310Y-66583669D01*
X80932311Y-66583672D01*
X81022350Y-66760380D01*
X81049161Y-66797283D01*
X81651982Y-66194462D01*
X81673958Y-66276473D01*
X81734149Y-66380727D01*
X81819273Y-66465851D01*
X81923527Y-66526042D01*
X82005536Y-66548016D01*
X81402714Y-67150837D01*
X81404339Y-67171485D01*
X81412875Y-67182555D01*
X81418853Y-67252169D01*
X81386245Y-67313963D01*
X81385005Y-67315221D01*
X81276255Y-67423971D01*
X81160200Y-67597658D01*
X81160193Y-67597671D01*
X81080255Y-67790662D01*
X81080253Y-67790670D01*
X81039500Y-67995547D01*
X81039500Y-67995550D01*
X81039500Y-68204450D01*
X81039500Y-68204452D01*
X81039499Y-68204452D01*
X81080253Y-68409329D01*
X81080255Y-68409337D01*
X81160193Y-68602328D01*
X81160200Y-68602341D01*
X81276255Y-68776028D01*
X81276258Y-68776032D01*
X81423967Y-68923741D01*
X81423971Y-68923744D01*
X81533452Y-68996898D01*
X81578257Y-69050511D01*
X81586964Y-69119836D01*
X81556809Y-69182863D01*
X81533452Y-69203102D01*
X81423971Y-69276255D01*
X81423967Y-69276258D01*
X81276258Y-69423967D01*
X81276255Y-69423971D01*
X81160200Y-69597658D01*
X81160193Y-69597671D01*
X81080255Y-69790662D01*
X81080253Y-69790670D01*
X81039500Y-69995547D01*
X81039500Y-69995550D01*
X81039500Y-70204450D01*
X81039500Y-70204452D01*
X81039499Y-70204452D01*
X81080253Y-70409329D01*
X81080255Y-70409337D01*
X81160193Y-70602328D01*
X81160200Y-70602341D01*
X81276255Y-70776028D01*
X81276258Y-70776032D01*
X81423967Y-70923741D01*
X81423971Y-70923744D01*
X81533452Y-70996898D01*
X81578257Y-71050511D01*
X81586964Y-71119836D01*
X81556809Y-71182863D01*
X81533452Y-71203102D01*
X81423971Y-71276255D01*
X81423967Y-71276258D01*
X81276258Y-71423967D01*
X81276255Y-71423971D01*
X81160200Y-71597658D01*
X81160193Y-71597671D01*
X81080255Y-71790662D01*
X81080253Y-71790670D01*
X81039500Y-71995547D01*
X81039500Y-71995550D01*
X81039500Y-72204450D01*
X81039500Y-72204452D01*
X81039499Y-72204452D01*
X81080253Y-72409329D01*
X81080255Y-72409337D01*
X81160193Y-72602328D01*
X81160200Y-72602341D01*
X81276255Y-72776028D01*
X81276258Y-72776032D01*
X81423967Y-72923741D01*
X81423971Y-72923744D01*
X81533452Y-72996898D01*
X81578257Y-73050511D01*
X81586964Y-73119836D01*
X81556809Y-73182863D01*
X81533452Y-73203102D01*
X81423971Y-73276255D01*
X81423967Y-73276258D01*
X81276258Y-73423967D01*
X81276255Y-73423971D01*
X81160200Y-73597658D01*
X81160193Y-73597671D01*
X81080255Y-73790662D01*
X81080253Y-73790670D01*
X81039500Y-73995547D01*
X81039500Y-74103035D01*
X81019815Y-74170074D01*
X80967011Y-74215829D01*
X80897853Y-74225773D01*
X80834297Y-74196748D01*
X80827819Y-74190716D01*
X80776616Y-74139513D01*
X80776614Y-74139511D01*
X80725250Y-74109856D01*
X80673888Y-74080201D01*
X80661780Y-74076957D01*
X80649673Y-74073713D01*
X80649670Y-74073712D01*
X80600761Y-74060607D01*
X80559309Y-74049500D01*
X80559308Y-74049500D01*
X76520808Y-74049500D01*
X76453769Y-74029815D01*
X76433127Y-74013181D01*
X76414672Y-73994726D01*
X76414668Y-73994723D01*
X76308133Y-73923538D01*
X76308124Y-73923533D01*
X76189744Y-73874499D01*
X76189738Y-73874497D01*
X76064071Y-73849500D01*
X76064069Y-73849500D01*
X75935931Y-73849500D01*
X75935929Y-73849500D01*
X75810261Y-73874497D01*
X75810255Y-73874499D01*
X75691875Y-73923533D01*
X75691866Y-73923538D01*
X75585331Y-73994723D01*
X75585327Y-73994726D01*
X75494726Y-74085327D01*
X75494723Y-74085331D01*
X75423538Y-74191866D01*
X75423533Y-74191875D01*
X75374499Y-74310255D01*
X75374497Y-74310261D01*
X75349500Y-74435928D01*
X75349500Y-74435931D01*
X75349500Y-74564069D01*
X75349500Y-74564071D01*
X75349499Y-74564071D01*
X75374497Y-74689738D01*
X75374499Y-74689744D01*
X75423533Y-74808124D01*
X75423538Y-74808133D01*
X75494723Y-74914668D01*
X75494726Y-74914672D01*
X75585327Y-75005273D01*
X75585331Y-75005276D01*
X75691866Y-75076461D01*
X75691875Y-75076466D01*
X75718692Y-75087574D01*
X75810256Y-75125501D01*
X75810260Y-75125501D01*
X75810261Y-75125502D01*
X75935928Y-75150500D01*
X75935931Y-75150500D01*
X76064071Y-75150500D01*
X76158163Y-75131783D01*
X76189744Y-75125501D01*
X76308127Y-75076465D01*
X76414669Y-75005276D01*
X76423047Y-74996898D01*
X76433127Y-74986819D01*
X76494450Y-74953334D01*
X76520808Y-74950500D01*
X80262035Y-74950500D01*
X80329074Y-74970185D01*
X80349716Y-74986819D01*
X81045550Y-75682654D01*
X81079035Y-75743977D01*
X81079486Y-75794527D01*
X81039500Y-75995547D01*
X81039500Y-75995550D01*
X81039500Y-76204450D01*
X81039500Y-76204452D01*
X81039499Y-76204452D01*
X81080253Y-76409329D01*
X81080255Y-76409337D01*
X81160193Y-76602328D01*
X81160200Y-76602341D01*
X81276255Y-76776028D01*
X81276258Y-76776032D01*
X81423967Y-76923741D01*
X81423971Y-76923744D01*
X81533452Y-76996898D01*
X81578257Y-77050511D01*
X81586964Y-77119836D01*
X81556809Y-77182863D01*
X81533452Y-77203102D01*
X81423971Y-77276255D01*
X81423967Y-77276258D01*
X81276258Y-77423967D01*
X81276255Y-77423971D01*
X81160200Y-77597658D01*
X81160193Y-77597671D01*
X81080255Y-77790662D01*
X81080253Y-77790670D01*
X81039500Y-77995547D01*
X81039500Y-77995550D01*
X81039500Y-78204450D01*
X81039500Y-78204452D01*
X81039499Y-78204452D01*
X81080253Y-78409329D01*
X81080255Y-78409337D01*
X81160193Y-78602328D01*
X81160200Y-78602341D01*
X81276255Y-78776028D01*
X81276258Y-78776032D01*
X81385004Y-78884778D01*
X81418489Y-78946101D01*
X81413505Y-79015793D01*
X81404382Y-79027978D01*
X81402715Y-79049161D01*
X82005537Y-79651983D01*
X81923527Y-79673958D01*
X81819273Y-79734149D01*
X81734149Y-79819273D01*
X81673958Y-79923527D01*
X81651983Y-80005537D01*
X81049161Y-79402715D01*
X81049160Y-79402715D01*
X81022352Y-79439615D01*
X80932313Y-79616322D01*
X80932310Y-79616330D01*
X80871026Y-79804945D01*
X80864115Y-79848578D01*
X80834184Y-79911712D01*
X80774872Y-79948642D01*
X80705009Y-79947642D01*
X80653961Y-79916858D01*
X80086819Y-79349716D01*
X80053334Y-79288393D01*
X80050500Y-79262035D01*
X80050500Y-77220807D01*
X80070185Y-77153768D01*
X80086821Y-77133124D01*
X80105274Y-77114671D01*
X80105276Y-77114669D01*
X80176465Y-77008127D01*
X80225501Y-76889744D01*
X80233682Y-76848615D01*
X80250500Y-76764071D01*
X80250500Y-76635928D01*
X80225502Y-76510261D01*
X80225501Y-76510260D01*
X80225501Y-76510256D01*
X80176465Y-76391873D01*
X80176464Y-76391872D01*
X80176461Y-76391866D01*
X80105276Y-76285331D01*
X80105273Y-76285327D01*
X80014672Y-76194726D01*
X80014668Y-76194723D01*
X79908133Y-76123538D01*
X79908124Y-76123533D01*
X79789744Y-76074499D01*
X79789738Y-76074497D01*
X79664071Y-76049500D01*
X79664069Y-76049500D01*
X79535931Y-76049500D01*
X79535929Y-76049500D01*
X79410261Y-76074497D01*
X79410255Y-76074499D01*
X79291875Y-76123533D01*
X79291866Y-76123538D01*
X79185331Y-76194723D01*
X79185327Y-76194726D01*
X79094726Y-76285327D01*
X79094723Y-76285331D01*
X79023538Y-76391866D01*
X79023533Y-76391875D01*
X78974499Y-76510255D01*
X78974497Y-76510261D01*
X78949500Y-76635928D01*
X78949500Y-76635931D01*
X78949500Y-76764069D01*
X78949500Y-76764071D01*
X78949499Y-76764071D01*
X78974497Y-76889738D01*
X78974499Y-76889744D01*
X79023533Y-77008124D01*
X79023538Y-77008133D01*
X79094723Y-77114668D01*
X79094725Y-77114671D01*
X79113179Y-77133124D01*
X79146666Y-77194446D01*
X79149500Y-77220807D01*
X79149500Y-79559311D01*
X79159777Y-79597662D01*
X79159777Y-79597664D01*
X79159778Y-79597664D01*
X79159778Y-79597665D01*
X79180201Y-79673887D01*
X79239511Y-79776614D01*
X81723387Y-82260490D01*
X81723389Y-82260491D01*
X81723393Y-82260494D01*
X81814398Y-82313035D01*
X81826114Y-82319799D01*
X81940691Y-82350500D01*
X81940694Y-82350500D01*
X85659308Y-82350500D01*
X85659309Y-82350500D01*
X85749673Y-82326286D01*
X85773887Y-82319799D01*
X85876614Y-82260489D01*
X87360489Y-80776614D01*
X87419799Y-80673887D01*
X87438971Y-80602335D01*
X87450500Y-80559309D01*
X87450500Y-78840691D01*
X87419799Y-78726114D01*
X87419799Y-78726113D01*
X87419799Y-78726112D01*
X87360492Y-78623389D01*
X87360488Y-78623384D01*
X86476616Y-77739513D01*
X86476614Y-77739511D01*
X86400540Y-77695589D01*
X86373888Y-77680201D01*
X86361780Y-77676957D01*
X86349673Y-77673713D01*
X86349670Y-77673712D01*
X86291065Y-77658009D01*
X86259309Y-77649500D01*
X86259308Y-77649500D01*
X85140717Y-77649500D01*
X85073678Y-77629815D01*
X85037615Y-77594391D01*
X85032652Y-77586964D01*
X84996612Y-77533025D01*
X84923744Y-77423970D01*
X84776032Y-77276258D01*
X84776028Y-77276255D01*
X84666547Y-77203102D01*
X84621742Y-77149490D01*
X84613035Y-77080165D01*
X84643189Y-77017137D01*
X84666547Y-76996898D01*
X84694314Y-76978344D01*
X84776029Y-76923744D01*
X84923744Y-76776029D01*
X85037615Y-76605608D01*
X85091227Y-76560804D01*
X85140717Y-76550500D01*
X86259307Y-76550500D01*
X86259309Y-76550500D01*
X86334441Y-76530368D01*
X86350319Y-76526114D01*
X86350320Y-76526113D01*
X86373887Y-76519799D01*
X86476614Y-76460489D01*
X86860489Y-76076614D01*
X86919799Y-75973887D01*
X86929010Y-75939511D01*
X86950500Y-75859309D01*
X86950500Y-74314431D01*
X86970185Y-74247392D01*
X87005610Y-74211328D01*
X87014669Y-74205276D01*
X87105276Y-74114669D01*
X87176465Y-74008127D01*
X87225501Y-73889744D01*
X87237030Y-73831784D01*
X87250500Y-73764071D01*
X87250500Y-73635928D01*
X87243757Y-73602031D01*
X87249984Y-73532440D01*
X87292846Y-73477262D01*
X87358736Y-73454017D01*
X87426733Y-73470084D01*
X87453055Y-73490158D01*
X87962181Y-73999284D01*
X87995666Y-74060607D01*
X87998500Y-74086965D01*
X87998500Y-82313035D01*
X87978815Y-82380074D01*
X87962181Y-82400716D01*
X86949716Y-83413181D01*
X86888393Y-83446666D01*
X86862035Y-83449500D01*
X81837965Y-83449500D01*
X81770926Y-83429815D01*
X81750284Y-83413181D01*
X78875616Y-80538513D01*
X78875614Y-80538511D01*
X78824250Y-80508856D01*
X78772888Y-80479201D01*
X78760780Y-80475957D01*
X78748673Y-80472713D01*
X78748670Y-80472712D01*
X78710478Y-80462478D01*
X78658309Y-80448500D01*
X77341691Y-80448500D01*
X77276937Y-80465851D01*
X77227113Y-80479201D01*
X77124386Y-80538509D01*
X77124384Y-80538511D01*
X77049715Y-80613181D01*
X76988392Y-80646666D01*
X76962034Y-80649500D01*
X76935929Y-80649500D01*
X76810261Y-80674497D01*
X76810255Y-80674499D01*
X76691875Y-80723533D01*
X76691866Y-80723538D01*
X76585331Y-80794723D01*
X76585327Y-80794726D01*
X76494726Y-80885327D01*
X76494723Y-80885331D01*
X76423538Y-80991866D01*
X76423533Y-80991875D01*
X76374499Y-81110255D01*
X76374497Y-81110261D01*
X76349500Y-81235928D01*
X76349500Y-81235931D01*
X76349500Y-81364069D01*
X76349500Y-81364071D01*
X76349499Y-81364071D01*
X76374497Y-81489738D01*
X76374499Y-81489744D01*
X76423533Y-81608124D01*
X76423538Y-81608133D01*
X76494723Y-81714668D01*
X76494726Y-81714672D01*
X76585327Y-81805273D01*
X76585331Y-81805276D01*
X76691866Y-81876461D01*
X76691872Y-81876464D01*
X76691873Y-81876465D01*
X76810256Y-81925501D01*
X76810260Y-81925501D01*
X76810261Y-81925502D01*
X76935928Y-81950500D01*
X76935931Y-81950500D01*
X77064071Y-81950500D01*
X77148615Y-81933682D01*
X77189744Y-81925501D01*
X77308127Y-81876465D01*
X77414669Y-81805276D01*
X77505276Y-81714669D01*
X77576465Y-81608127D01*
X77625501Y-81489744D01*
X77627572Y-81479328D01*
X77633545Y-81449308D01*
X77665931Y-81387397D01*
X77726647Y-81352823D01*
X77755162Y-81349500D01*
X78361035Y-81349500D01*
X78428074Y-81369185D01*
X78448716Y-81385819D01*
X81323386Y-84260489D01*
X81426113Y-84319799D01*
X81450321Y-84326284D01*
X81450324Y-84326286D01*
X81450325Y-84326286D01*
X81480447Y-84334357D01*
X81540691Y-84350500D01*
X81540693Y-84350500D01*
X87159308Y-84350500D01*
X87159309Y-84350500D01*
X87249673Y-84326286D01*
X87273887Y-84319799D01*
X87376614Y-84260489D01*
X88387819Y-83249284D01*
X88449142Y-83215799D01*
X88518834Y-83220783D01*
X88574767Y-83262655D01*
X88599184Y-83328119D01*
X88599500Y-83336965D01*
X88599500Y-92975500D01*
X88579815Y-93042539D01*
X88527011Y-93088294D01*
X88475500Y-93099500D01*
X32724500Y-93099500D01*
X32657461Y-93079815D01*
X32611706Y-93027011D01*
X32600500Y-92975500D01*
X32600500Y-88985258D01*
X33849500Y-88985258D01*
X33849500Y-89214741D01*
X33874446Y-89404215D01*
X33879452Y-89442238D01*
X33879453Y-89442240D01*
X33938842Y-89663887D01*
X34026650Y-89875876D01*
X34026657Y-89875890D01*
X34141392Y-90074617D01*
X34281081Y-90256661D01*
X34281089Y-90256670D01*
X34443330Y-90418911D01*
X34443338Y-90418918D01*
X34625382Y-90558607D01*
X34625385Y-90558608D01*
X34625388Y-90558611D01*
X34824112Y-90673344D01*
X34824117Y-90673346D01*
X34824123Y-90673349D01*
X34915480Y-90711190D01*
X35036113Y-90761158D01*
X35257762Y-90820548D01*
X35485266Y-90850500D01*
X35485273Y-90850500D01*
X35714727Y-90850500D01*
X35714734Y-90850500D01*
X35942238Y-90820548D01*
X36163887Y-90761158D01*
X36375888Y-90673344D01*
X36574612Y-90558611D01*
X36756661Y-90418919D01*
X36756665Y-90418914D01*
X36756670Y-90418911D01*
X36918911Y-90256670D01*
X36918914Y-90256665D01*
X36918919Y-90256661D01*
X37058611Y-90074612D01*
X37173344Y-89875888D01*
X37261158Y-89663887D01*
X37320548Y-89442238D01*
X37350500Y-89214734D01*
X37350500Y-88985266D01*
X37350499Y-88985258D01*
X73849500Y-88985258D01*
X73849500Y-89214741D01*
X73874446Y-89404215D01*
X73879452Y-89442238D01*
X73879453Y-89442240D01*
X73938842Y-89663887D01*
X74026650Y-89875876D01*
X74026657Y-89875890D01*
X74141392Y-90074617D01*
X74281081Y-90256661D01*
X74281089Y-90256670D01*
X74443330Y-90418911D01*
X74443338Y-90418918D01*
X74625382Y-90558607D01*
X74625385Y-90558608D01*
X74625388Y-90558611D01*
X74824112Y-90673344D01*
X74824117Y-90673346D01*
X74824123Y-90673349D01*
X74915480Y-90711190D01*
X75036113Y-90761158D01*
X75257762Y-90820548D01*
X75485266Y-90850500D01*
X75485273Y-90850500D01*
X75714727Y-90850500D01*
X75714734Y-90850500D01*
X75942238Y-90820548D01*
X76163887Y-90761158D01*
X76375888Y-90673344D01*
X76574612Y-90558611D01*
X76756661Y-90418919D01*
X76756665Y-90418914D01*
X76756670Y-90418911D01*
X76918911Y-90256670D01*
X76918914Y-90256665D01*
X76918919Y-90256661D01*
X77058611Y-90074612D01*
X77173344Y-89875888D01*
X77261158Y-89663887D01*
X77320548Y-89442238D01*
X77350500Y-89214734D01*
X77350500Y-88985266D01*
X77320548Y-88757762D01*
X77261158Y-88536113D01*
X77173344Y-88324112D01*
X77058611Y-88125388D01*
X77058608Y-88125385D01*
X77058607Y-88125382D01*
X76918918Y-87943338D01*
X76918911Y-87943330D01*
X76756670Y-87781089D01*
X76756661Y-87781081D01*
X76574617Y-87641392D01*
X76375890Y-87526657D01*
X76375876Y-87526650D01*
X76163887Y-87438842D01*
X75942238Y-87379452D01*
X75904215Y-87374446D01*
X75714741Y-87349500D01*
X75714734Y-87349500D01*
X75485266Y-87349500D01*
X75485258Y-87349500D01*
X75268715Y-87378009D01*
X75257762Y-87379452D01*
X75164076Y-87404554D01*
X75036112Y-87438842D01*
X74824123Y-87526650D01*
X74824109Y-87526657D01*
X74625382Y-87641392D01*
X74443338Y-87781081D01*
X74281081Y-87943338D01*
X74141392Y-88125382D01*
X74026657Y-88324109D01*
X74026650Y-88324123D01*
X73938842Y-88536112D01*
X73879453Y-88757759D01*
X73879451Y-88757770D01*
X73849500Y-88985258D01*
X37350499Y-88985258D01*
X37320548Y-88757762D01*
X37261158Y-88536113D01*
X37173344Y-88324112D01*
X37058611Y-88125388D01*
X37058608Y-88125385D01*
X37058607Y-88125382D01*
X36918918Y-87943338D01*
X36918911Y-87943330D01*
X36756670Y-87781089D01*
X36756661Y-87781081D01*
X36574617Y-87641392D01*
X36375890Y-87526657D01*
X36375876Y-87526650D01*
X36163887Y-87438842D01*
X35942238Y-87379452D01*
X35904215Y-87374446D01*
X35714741Y-87349500D01*
X35714734Y-87349500D01*
X35485266Y-87349500D01*
X35485258Y-87349500D01*
X35268715Y-87378009D01*
X35257762Y-87379452D01*
X35164076Y-87404554D01*
X35036112Y-87438842D01*
X34824123Y-87526650D01*
X34824109Y-87526657D01*
X34625382Y-87641392D01*
X34443338Y-87781081D01*
X34281081Y-87943338D01*
X34141392Y-88125382D01*
X34026657Y-88324109D01*
X34026650Y-88324123D01*
X33938842Y-88536112D01*
X33879453Y-88757759D01*
X33879451Y-88757770D01*
X33849500Y-88985258D01*
X32600500Y-88985258D01*
X32600500Y-82364071D01*
X73749499Y-82364071D01*
X73774497Y-82489738D01*
X73774499Y-82489744D01*
X73823533Y-82608124D01*
X73823538Y-82608133D01*
X73894723Y-82714668D01*
X73894726Y-82714672D01*
X73985327Y-82805273D01*
X73985331Y-82805276D01*
X74091866Y-82876461D01*
X74091872Y-82876464D01*
X74091873Y-82876465D01*
X74210256Y-82925501D01*
X74210260Y-82925501D01*
X74210261Y-82925502D01*
X74335928Y-82950500D01*
X74335931Y-82950500D01*
X74464071Y-82950500D01*
X74548615Y-82933682D01*
X74589744Y-82925501D01*
X74708127Y-82876465D01*
X74814669Y-82805276D01*
X74905276Y-82714669D01*
X74976465Y-82608127D01*
X75025501Y-82489744D01*
X75043210Y-82400716D01*
X75050500Y-82364071D01*
X75050500Y-82235928D01*
X75025502Y-82110261D01*
X75025501Y-82110260D01*
X75025501Y-82110256D01*
X74976465Y-81991873D01*
X74976464Y-81991872D01*
X74976461Y-81991866D01*
X74905276Y-81885331D01*
X74905273Y-81885327D01*
X74886819Y-81866873D01*
X74853334Y-81805550D01*
X74850500Y-81779192D01*
X74850500Y-79537965D01*
X74870185Y-79470926D01*
X74886819Y-79450284D01*
X77050284Y-77286819D01*
X77111607Y-77253334D01*
X77137965Y-77250500D01*
X77450069Y-77250500D01*
X77517108Y-77270185D01*
X77525557Y-77276125D01*
X77531281Y-77280517D01*
X77531284Y-77280520D01*
X77531287Y-77280521D01*
X77531290Y-77280524D01*
X77668209Y-77359573D01*
X77668216Y-77359577D01*
X77820943Y-77400500D01*
X77820945Y-77400500D01*
X77979055Y-77400500D01*
X77979057Y-77400500D01*
X78131784Y-77359577D01*
X78268716Y-77280520D01*
X78380520Y-77168716D01*
X78459577Y-77031784D01*
X78500500Y-76879057D01*
X78500500Y-76720943D01*
X78459577Y-76568216D01*
X78455298Y-76560804D01*
X78380524Y-76431290D01*
X78380518Y-76431282D01*
X78268717Y-76319481D01*
X78268709Y-76319475D01*
X78131790Y-76240426D01*
X78131786Y-76240424D01*
X78131784Y-76240423D01*
X77979057Y-76199500D01*
X77820943Y-76199500D01*
X77668216Y-76240423D01*
X77668209Y-76240426D01*
X77531290Y-76319475D01*
X77525557Y-76323875D01*
X77460388Y-76349070D01*
X77450069Y-76349500D01*
X76840691Y-76349500D01*
X76750325Y-76373713D01*
X76750324Y-76373712D01*
X76726116Y-76380199D01*
X76726113Y-76380200D01*
X76623386Y-76439511D01*
X76623383Y-76439513D01*
X75062181Y-78000716D01*
X75000858Y-78034201D01*
X74931166Y-78029217D01*
X74875233Y-77987345D01*
X74850816Y-77921881D01*
X74850500Y-77913035D01*
X74850500Y-73537965D01*
X74870185Y-73470926D01*
X74886819Y-73450284D01*
X77450500Y-70886603D01*
X80059490Y-68277614D01*
X80085950Y-68231784D01*
X80118796Y-68174893D01*
X80118797Y-68174890D01*
X80118796Y-68174890D01*
X80118799Y-68174887D01*
X80144476Y-68079057D01*
X80149500Y-68060309D01*
X80149500Y-61738965D01*
X80169185Y-61671926D01*
X80185819Y-61651284D01*
X81350284Y-60486819D01*
X81411607Y-60453334D01*
X81437965Y-60450500D01*
X86050069Y-60450500D01*
X86117108Y-60470185D01*
X86125557Y-60476125D01*
X86131281Y-60480517D01*
X86131284Y-60480520D01*
X86131287Y-60480521D01*
X86131290Y-60480524D01*
X86268209Y-60559573D01*
X86268216Y-60559577D01*
X86420943Y-60600500D01*
X86420945Y-60600500D01*
X86579055Y-60600500D01*
X86579057Y-60600500D01*
X86731784Y-60559577D01*
X86868716Y-60480520D01*
X86980520Y-60368716D01*
X87059577Y-60231784D01*
X87100500Y-60079057D01*
X87100500Y-59920943D01*
X87059577Y-59768216D01*
X86985270Y-59639511D01*
X86980524Y-59631290D01*
X86980518Y-59631282D01*
X86868717Y-59519481D01*
X86868709Y-59519475D01*
X86731790Y-59440426D01*
X86731786Y-59440424D01*
X86731784Y-59440423D01*
X86579057Y-59399500D01*
X86420943Y-59399500D01*
X86268216Y-59440423D01*
X86268209Y-59440426D01*
X86131290Y-59519475D01*
X86125557Y-59523875D01*
X86060388Y-59549070D01*
X86050069Y-59549500D01*
X81140691Y-59549500D01*
X81071944Y-59567920D01*
X81026112Y-59580201D01*
X81026107Y-59580204D01*
X80923393Y-59639505D01*
X80923385Y-59639511D01*
X79338513Y-61224383D01*
X79338509Y-61224389D01*
X79279201Y-61327112D01*
X79279200Y-61327117D01*
X79248500Y-61441691D01*
X79248500Y-67763034D01*
X79228815Y-67830073D01*
X79212181Y-67850715D01*
X74039513Y-73023383D01*
X74039511Y-73023386D01*
X73980199Y-73126114D01*
X73976295Y-73140689D01*
X73976295Y-73140690D01*
X73949500Y-73240691D01*
X73949500Y-81779192D01*
X73929815Y-81846231D01*
X73913181Y-81866873D01*
X73894726Y-81885327D01*
X73894723Y-81885331D01*
X73823538Y-81991866D01*
X73823533Y-81991875D01*
X73774499Y-82110255D01*
X73774497Y-82110261D01*
X73749500Y-82235928D01*
X73749500Y-82235931D01*
X73749500Y-82364069D01*
X73749500Y-82364071D01*
X73749499Y-82364071D01*
X32600500Y-82364071D01*
X32600500Y-79164071D01*
X47949499Y-79164071D01*
X47974497Y-79289738D01*
X47974499Y-79289744D01*
X48023533Y-79408124D01*
X48023538Y-79408133D01*
X48094723Y-79514668D01*
X48094726Y-79514672D01*
X48185327Y-79605273D01*
X48185331Y-79605276D01*
X48291866Y-79676461D01*
X48291872Y-79676464D01*
X48291873Y-79676465D01*
X48410256Y-79725501D01*
X48410260Y-79725501D01*
X48410261Y-79725502D01*
X48535928Y-79750500D01*
X48535931Y-79750500D01*
X48664071Y-79750500D01*
X48748615Y-79733682D01*
X48789744Y-79725501D01*
X48908127Y-79676465D01*
X49014669Y-79605276D01*
X49022287Y-79597658D01*
X49033127Y-79586819D01*
X49094450Y-79553334D01*
X49120808Y-79550500D01*
X54050672Y-79550500D01*
X54050673Y-79550500D01*
X54141037Y-79526286D01*
X54165251Y-79519799D01*
X54267978Y-79460489D01*
X55864396Y-77864071D01*
X61149499Y-77864071D01*
X61174497Y-77989738D01*
X61174499Y-77989744D01*
X61223533Y-78108124D01*
X61223538Y-78108133D01*
X61294723Y-78214668D01*
X61294726Y-78214672D01*
X61385327Y-78305273D01*
X61385331Y-78305276D01*
X61491866Y-78376461D01*
X61491872Y-78376464D01*
X61491873Y-78376465D01*
X61610256Y-78425501D01*
X61670910Y-78437566D01*
X61732818Y-78469949D01*
X61734398Y-78471501D01*
X62813181Y-79550284D01*
X62846666Y-79611607D01*
X62849500Y-79637965D01*
X62849500Y-79664069D01*
X62849500Y-79664071D01*
X62849499Y-79664071D01*
X62874497Y-79789738D01*
X62874499Y-79789744D01*
X62923533Y-79908124D01*
X62923538Y-79908133D01*
X62994723Y-80014668D01*
X62994726Y-80014672D01*
X63085327Y-80105273D01*
X63085331Y-80105276D01*
X63191866Y-80176461D01*
X63191872Y-80176464D01*
X63191873Y-80176465D01*
X63310256Y-80225501D01*
X63310260Y-80225501D01*
X63310261Y-80225502D01*
X63435928Y-80250500D01*
X63435931Y-80250500D01*
X63564071Y-80250500D01*
X63648615Y-80233682D01*
X63689744Y-80225501D01*
X63808127Y-80176465D01*
X63914669Y-80105276D01*
X64005276Y-80014669D01*
X64076465Y-79908127D01*
X64125501Y-79789744D01*
X64148034Y-79676466D01*
X64150500Y-79664071D01*
X64150500Y-79535928D01*
X64125502Y-79410261D01*
X64125501Y-79410260D01*
X64125501Y-79410256D01*
X64076465Y-79291873D01*
X64076464Y-79291872D01*
X64076461Y-79291866D01*
X64005276Y-79185331D01*
X64005273Y-79185327D01*
X63914672Y-79094726D01*
X63914668Y-79094723D01*
X63808133Y-79023538D01*
X63808124Y-79023533D01*
X63689744Y-78974499D01*
X63689738Y-78974497D01*
X63564071Y-78949500D01*
X63564069Y-78949500D01*
X63537965Y-78949500D01*
X63470926Y-78929815D01*
X63450284Y-78913181D01*
X62486819Y-77949716D01*
X62453334Y-77888393D01*
X62450500Y-77862035D01*
X62450500Y-77735928D01*
X62425502Y-77610261D01*
X62425501Y-77610260D01*
X62425501Y-77610256D01*
X62376465Y-77491873D01*
X62376464Y-77491872D01*
X62376461Y-77491866D01*
X62305276Y-77385331D01*
X62305273Y-77385327D01*
X62214672Y-77294726D01*
X62214668Y-77294723D01*
X62108133Y-77223538D01*
X62108124Y-77223533D01*
X61989744Y-77174499D01*
X61989738Y-77174497D01*
X61864071Y-77149500D01*
X61864069Y-77149500D01*
X61735931Y-77149500D01*
X61735929Y-77149500D01*
X61610261Y-77174497D01*
X61610255Y-77174499D01*
X61491875Y-77223533D01*
X61491866Y-77223538D01*
X61385331Y-77294723D01*
X61385327Y-77294726D01*
X61294726Y-77385327D01*
X61294723Y-77385331D01*
X61223538Y-77491866D01*
X61223533Y-77491875D01*
X61174499Y-77610255D01*
X61174497Y-77610261D01*
X61149500Y-77735928D01*
X61149500Y-77735931D01*
X61149500Y-77864069D01*
X61149500Y-77864071D01*
X61149499Y-77864071D01*
X55864396Y-77864071D01*
X57050284Y-76678183D01*
X57111607Y-76644698D01*
X57115224Y-76643967D01*
X57126496Y-76641864D01*
X57167945Y-76641864D01*
X57258309Y-76617650D01*
X57282523Y-76611163D01*
X57385250Y-76551853D01*
X57660490Y-76276614D01*
X57719799Y-76173886D01*
X57723705Y-76159309D01*
X57750500Y-76059309D01*
X57750500Y-75920807D01*
X57770185Y-75853768D01*
X57786821Y-75833124D01*
X57805274Y-75814671D01*
X57805276Y-75814669D01*
X57876465Y-75708127D01*
X57925501Y-75589744D01*
X57933682Y-75548615D01*
X57950500Y-75464071D01*
X57950500Y-75335928D01*
X57925502Y-75210261D01*
X57925501Y-75210260D01*
X57925501Y-75210256D01*
X57876465Y-75091873D01*
X57876464Y-75091872D01*
X57876461Y-75091866D01*
X57805276Y-74985331D01*
X57805273Y-74985327D01*
X57714672Y-74894726D01*
X57714668Y-74894723D01*
X57608133Y-74823538D01*
X57608124Y-74823533D01*
X57489744Y-74774499D01*
X57489738Y-74774497D01*
X57364071Y-74749500D01*
X57364069Y-74749500D01*
X57235931Y-74749500D01*
X57235929Y-74749500D01*
X57110261Y-74774497D01*
X57110255Y-74774499D01*
X56991875Y-74823533D01*
X56991866Y-74823538D01*
X56885331Y-74894723D01*
X56885327Y-74894726D01*
X56794726Y-74985327D01*
X56794723Y-74985331D01*
X56723538Y-75091866D01*
X56723533Y-75091875D01*
X56674499Y-75210255D01*
X56674497Y-75210261D01*
X56649500Y-75335928D01*
X56649500Y-75335931D01*
X56649500Y-75464069D01*
X56649500Y-75464071D01*
X56649499Y-75464071D01*
X56674497Y-75589738D01*
X56674500Y-75589748D01*
X56703623Y-75660057D01*
X56711092Y-75729526D01*
X56679817Y-75792005D01*
X56671442Y-75800189D01*
X56662000Y-75808580D01*
X56623386Y-75830875D01*
X56515149Y-75939110D01*
X56512419Y-75941538D01*
X56483985Y-75954959D01*
X56456396Y-75970024D01*
X56452639Y-75969755D01*
X56449234Y-75971363D01*
X56418056Y-75967281D01*
X56386704Y-75965039D01*
X56383690Y-75962782D01*
X56379956Y-75962294D01*
X56355941Y-75942010D01*
X56330771Y-75923168D01*
X56326936Y-75917748D01*
X56305274Y-75885328D01*
X56214672Y-75794726D01*
X56214668Y-75794723D01*
X56108133Y-75723538D01*
X56108124Y-75723533D01*
X55989744Y-75674499D01*
X55989738Y-75674497D01*
X55864071Y-75649500D01*
X55864069Y-75649500D01*
X55735931Y-75649500D01*
X55735929Y-75649500D01*
X55610261Y-75674497D01*
X55610255Y-75674499D01*
X55491875Y-75723533D01*
X55491866Y-75723538D01*
X55385331Y-75794723D01*
X55385327Y-75794726D01*
X55366873Y-75813181D01*
X55305550Y-75846666D01*
X55279192Y-75849500D01*
X54137965Y-75849500D01*
X54070926Y-75829815D01*
X54050284Y-75813181D01*
X51486819Y-73249716D01*
X51453334Y-73188393D01*
X51450500Y-73162035D01*
X51450500Y-73135928D01*
X51425502Y-73010261D01*
X51425501Y-73010260D01*
X51425501Y-73010256D01*
X51382017Y-72905276D01*
X51376466Y-72891875D01*
X51376461Y-72891866D01*
X51305276Y-72785331D01*
X51305273Y-72785327D01*
X51214672Y-72694726D01*
X51214668Y-72694723D01*
X51108133Y-72623538D01*
X51108124Y-72623533D01*
X50989744Y-72574499D01*
X50989738Y-72574497D01*
X50864071Y-72549500D01*
X50864069Y-72549500D01*
X50735931Y-72549500D01*
X50735929Y-72549500D01*
X50610261Y-72574497D01*
X50610255Y-72574499D01*
X50491875Y-72623533D01*
X50491866Y-72623538D01*
X50385327Y-72694726D01*
X50383987Y-72695826D01*
X50383148Y-72696182D01*
X50380266Y-72698108D01*
X50379900Y-72697561D01*
X50319676Y-72723136D01*
X50250809Y-72711341D01*
X50217646Y-72687650D01*
X50169697Y-72639701D01*
X50169693Y-72639698D01*
X50063158Y-72568513D01*
X50063149Y-72568508D01*
X49944769Y-72519474D01*
X49944763Y-72519472D01*
X49819096Y-72494475D01*
X49819094Y-72494475D01*
X49690956Y-72494475D01*
X49690954Y-72494475D01*
X49565286Y-72519472D01*
X49565280Y-72519474D01*
X49446900Y-72568508D01*
X49446891Y-72568513D01*
X49340356Y-72639698D01*
X49340352Y-72639701D01*
X49249751Y-72730302D01*
X49249748Y-72730306D01*
X49178563Y-72836841D01*
X49178558Y-72836850D01*
X49129524Y-72955230D01*
X49129522Y-72955236D01*
X49104525Y-73080903D01*
X49104525Y-73080906D01*
X49104525Y-73209044D01*
X49104525Y-73209046D01*
X49104524Y-73209046D01*
X49129522Y-73334713D01*
X49129524Y-73334719D01*
X49178558Y-73453099D01*
X49178563Y-73453108D01*
X49249748Y-73559643D01*
X49249751Y-73559647D01*
X49340352Y-73650248D01*
X49340356Y-73650251D01*
X49446891Y-73721436D01*
X49446897Y-73721439D01*
X49446898Y-73721440D01*
X49565281Y-73770476D01*
X49565285Y-73770476D01*
X49565286Y-73770477D01*
X49690953Y-73795475D01*
X49690956Y-73795475D01*
X49717060Y-73795475D01*
X49784099Y-73815160D01*
X49804740Y-73831793D01*
X53333436Y-77360490D01*
X53436164Y-77419799D01*
X53550741Y-77450500D01*
X54479192Y-77450500D01*
X54546231Y-77470185D01*
X54552794Y-77474707D01*
X54560292Y-77480237D01*
X54585331Y-77505276D01*
X54680065Y-77568575D01*
X54682405Y-77570301D01*
X54701865Y-77595914D01*
X54722499Y-77620605D01*
X54722870Y-77623562D01*
X54724673Y-77625935D01*
X54727196Y-77658009D01*
X54731206Y-77689930D01*
X54729920Y-77692617D01*
X54730154Y-77695589D01*
X54714934Y-77723938D01*
X54701051Y-77752957D01*
X54697143Y-77757079D01*
X54697106Y-77757149D01*
X54697045Y-77757182D01*
X54696484Y-77757775D01*
X53841080Y-78613181D01*
X53779757Y-78646666D01*
X53753399Y-78649500D01*
X49120808Y-78649500D01*
X49053769Y-78629815D01*
X49033127Y-78613181D01*
X49014672Y-78594726D01*
X49014668Y-78594723D01*
X48908133Y-78523538D01*
X48908124Y-78523533D01*
X48789744Y-78474499D01*
X48789738Y-78474497D01*
X48664071Y-78449500D01*
X48664069Y-78449500D01*
X48535931Y-78449500D01*
X48535929Y-78449500D01*
X48410261Y-78474497D01*
X48410255Y-78474499D01*
X48291875Y-78523533D01*
X48291866Y-78523538D01*
X48185331Y-78594723D01*
X48185327Y-78594726D01*
X48094726Y-78685327D01*
X48094723Y-78685331D01*
X48023538Y-78791866D01*
X48023533Y-78791875D01*
X47974499Y-78910255D01*
X47974497Y-78910261D01*
X47949500Y-79035928D01*
X47949500Y-79035931D01*
X47949500Y-79164069D01*
X47949500Y-79164071D01*
X47949499Y-79164071D01*
X32600500Y-79164071D01*
X32600500Y-73464071D01*
X40649499Y-73464071D01*
X40674497Y-73589738D01*
X40674499Y-73589744D01*
X40723533Y-73708124D01*
X40723538Y-73708133D01*
X40794723Y-73814668D01*
X40794726Y-73814672D01*
X40885327Y-73905273D01*
X40885331Y-73905276D01*
X40991866Y-73976461D01*
X40991872Y-73976464D01*
X40991873Y-73976465D01*
X41110256Y-74025501D01*
X41110260Y-74025501D01*
X41110261Y-74025502D01*
X41235928Y-74050500D01*
X41235931Y-74050500D01*
X41364071Y-74050500D01*
X41448615Y-74033682D01*
X41489744Y-74025501D01*
X41608127Y-73976465D01*
X41714669Y-73905276D01*
X41805276Y-73814669D01*
X41876465Y-73708127D01*
X41925501Y-73589744D01*
X41935801Y-73537965D01*
X41950500Y-73464071D01*
X41950500Y-73335928D01*
X41925502Y-73210261D01*
X41925501Y-73210260D01*
X41925501Y-73210256D01*
X41896685Y-73140689D01*
X41876465Y-73091872D01*
X41871396Y-73084286D01*
X41850520Y-73017608D01*
X41850500Y-73015398D01*
X41850500Y-72320807D01*
X41870185Y-72253768D01*
X41886821Y-72233124D01*
X41905274Y-72214671D01*
X41905276Y-72214669D01*
X41976465Y-72108127D01*
X42025501Y-71989744D01*
X42044402Y-71894724D01*
X42050500Y-71864071D01*
X42050500Y-71735928D01*
X42025502Y-71610261D01*
X42025501Y-71610260D01*
X42025501Y-71610256D01*
X41976465Y-71491873D01*
X41976464Y-71491872D01*
X41976461Y-71491866D01*
X41905276Y-71385331D01*
X41905273Y-71385327D01*
X41814672Y-71294726D01*
X41814668Y-71294723D01*
X41708133Y-71223538D01*
X41708124Y-71223533D01*
X41589744Y-71174499D01*
X41589738Y-71174497D01*
X41464071Y-71149500D01*
X41464069Y-71149500D01*
X41335931Y-71149500D01*
X41335929Y-71149500D01*
X41210261Y-71174497D01*
X41210255Y-71174499D01*
X41091875Y-71223533D01*
X41091866Y-71223538D01*
X40985331Y-71294723D01*
X40985327Y-71294726D01*
X40894726Y-71385327D01*
X40894723Y-71385331D01*
X40823538Y-71491866D01*
X40823533Y-71491875D01*
X40774499Y-71610255D01*
X40774497Y-71610261D01*
X40749500Y-71735928D01*
X40749500Y-71735931D01*
X40749500Y-71864069D01*
X40749500Y-71864071D01*
X40749499Y-71864071D01*
X40774497Y-71989738D01*
X40774499Y-71989744D01*
X40823533Y-72108124D01*
X40823538Y-72108133D01*
X40894723Y-72214668D01*
X40894725Y-72214671D01*
X40913179Y-72233124D01*
X40946666Y-72294446D01*
X40949500Y-72320807D01*
X40949500Y-72785568D01*
X40929815Y-72852607D01*
X40894396Y-72888667D01*
X40885328Y-72894726D01*
X40885324Y-72894730D01*
X40794726Y-72985327D01*
X40794723Y-72985331D01*
X40723538Y-73091866D01*
X40723533Y-73091875D01*
X40674499Y-73210255D01*
X40674497Y-73210261D01*
X40649500Y-73335928D01*
X40649500Y-73335931D01*
X40649500Y-73464069D01*
X40649500Y-73464071D01*
X40649499Y-73464071D01*
X32600500Y-73464071D01*
X32600500Y-66568995D01*
X33489499Y-66568995D01*
X33516418Y-66704322D01*
X33516421Y-66704332D01*
X33569221Y-66831804D01*
X33569228Y-66831817D01*
X33645885Y-66946541D01*
X33645888Y-66946545D01*
X33743454Y-67044111D01*
X33743458Y-67044114D01*
X33858182Y-67120771D01*
X33858195Y-67120778D01*
X33930765Y-67150837D01*
X33985672Y-67173580D01*
X33985676Y-67173580D01*
X33985677Y-67173581D01*
X34121004Y-67200500D01*
X34121007Y-67200500D01*
X34258995Y-67200500D01*
X34350041Y-67182389D01*
X34394328Y-67173580D01*
X34417285Y-67164071D01*
X41749499Y-67164071D01*
X41774497Y-67289738D01*
X41774499Y-67289744D01*
X41823533Y-67408124D01*
X41823538Y-67408133D01*
X41894723Y-67514668D01*
X41894726Y-67514672D01*
X41985327Y-67605273D01*
X41985331Y-67605276D01*
X42091866Y-67676461D01*
X42091872Y-67676464D01*
X42091873Y-67676465D01*
X42210256Y-67725501D01*
X42210260Y-67725501D01*
X42210261Y-67725502D01*
X42335928Y-67750500D01*
X42335931Y-67750500D01*
X42464071Y-67750500D01*
X42548615Y-67733682D01*
X42589744Y-67725501D01*
X42708127Y-67676465D01*
X42814669Y-67605276D01*
X42905276Y-67514669D01*
X42976465Y-67408127D01*
X43025501Y-67289744D01*
X43048608Y-67173580D01*
X43050500Y-67164071D01*
X43050500Y-67137965D01*
X43070185Y-67070926D01*
X43086819Y-67050284D01*
X43650285Y-66486819D01*
X43711608Y-66453334D01*
X43737966Y-66450500D01*
X43764071Y-66450500D01*
X43862079Y-66431004D01*
X43889744Y-66425501D01*
X44008127Y-66376465D01*
X44114669Y-66305276D01*
X44205276Y-66214669D01*
X44276465Y-66108127D01*
X44291721Y-66071293D01*
X44335560Y-66016892D01*
X44401854Y-65994826D01*
X44469554Y-66012104D01*
X44493963Y-66031066D01*
X45313181Y-66850284D01*
X45346666Y-66911607D01*
X45349500Y-66937965D01*
X45349500Y-70550069D01*
X45329815Y-70617108D01*
X45323875Y-70625557D01*
X45319475Y-70631290D01*
X45240426Y-70768209D01*
X45240423Y-70768216D01*
X45199500Y-70920943D01*
X45199500Y-71079057D01*
X45238214Y-71223538D01*
X45240423Y-71231783D01*
X45240426Y-71231790D01*
X45319475Y-71368709D01*
X45319479Y-71368714D01*
X45319480Y-71368716D01*
X45431284Y-71480520D01*
X45431286Y-71480521D01*
X45431290Y-71480524D01*
X45552494Y-71550500D01*
X45568216Y-71559577D01*
X45720943Y-71600500D01*
X45720945Y-71600500D01*
X45879055Y-71600500D01*
X45879057Y-71600500D01*
X46031784Y-71559577D01*
X46168716Y-71480520D01*
X46280520Y-71368716D01*
X46359577Y-71231784D01*
X46372562Y-71183319D01*
X46408924Y-71123662D01*
X46471770Y-71093131D01*
X46541146Y-71101425D01*
X46595025Y-71145909D01*
X46606897Y-71167960D01*
X46623535Y-71208126D01*
X46623538Y-71208133D01*
X46694723Y-71314668D01*
X46694726Y-71314672D01*
X46785327Y-71405273D01*
X46785331Y-71405276D01*
X46891866Y-71476461D01*
X46891875Y-71476466D01*
X46901672Y-71480524D01*
X47010256Y-71525501D01*
X47010260Y-71525501D01*
X47010261Y-71525502D01*
X47135928Y-71550500D01*
X47135931Y-71550500D01*
X47264071Y-71550500D01*
X47349773Y-71533452D01*
X47389744Y-71525501D01*
X47508127Y-71476465D01*
X47614669Y-71405276D01*
X47705276Y-71314669D01*
X47776465Y-71208127D01*
X47825501Y-71089744D01*
X47849675Y-70968216D01*
X47850500Y-70964071D01*
X50149499Y-70964071D01*
X50174497Y-71089738D01*
X50174499Y-71089744D01*
X50223533Y-71208124D01*
X50223538Y-71208133D01*
X50294723Y-71314668D01*
X50294726Y-71314672D01*
X50385327Y-71405273D01*
X50385331Y-71405276D01*
X50491866Y-71476461D01*
X50491875Y-71476466D01*
X50501672Y-71480524D01*
X50610256Y-71525501D01*
X50610260Y-71525501D01*
X50610261Y-71525502D01*
X50735928Y-71550500D01*
X50735931Y-71550500D01*
X50864071Y-71550500D01*
X50949773Y-71533452D01*
X50989744Y-71525501D01*
X51108127Y-71476465D01*
X51214669Y-71405276D01*
X51305276Y-71314669D01*
X51376465Y-71208127D01*
X51425501Y-71089744D01*
X51449675Y-70968216D01*
X51450500Y-70964071D01*
X51450500Y-70937965D01*
X51456958Y-70915971D01*
X51458889Y-70893132D01*
X51467579Y-70879800D01*
X51470185Y-70870926D01*
X51476203Y-70862376D01*
X51481115Y-70855987D01*
X51560489Y-70776614D01*
X51619798Y-70673887D01*
X51619799Y-70673886D01*
X51650500Y-70559309D01*
X51650500Y-69040691D01*
X51619799Y-68926114D01*
X51619799Y-68926113D01*
X51560489Y-68823386D01*
X51386819Y-68649716D01*
X51353334Y-68588393D01*
X51350500Y-68562035D01*
X51350500Y-65720807D01*
X51370185Y-65653768D01*
X51386821Y-65633124D01*
X51405274Y-65614671D01*
X51405276Y-65614669D01*
X51476465Y-65508127D01*
X51525501Y-65389744D01*
X51544402Y-65294724D01*
X51550500Y-65264071D01*
X51550500Y-65135928D01*
X51525502Y-65010261D01*
X51525501Y-65010260D01*
X51525501Y-65010256D01*
X51476465Y-64891873D01*
X51476464Y-64891872D01*
X51476461Y-64891866D01*
X51405276Y-64785331D01*
X51405273Y-64785327D01*
X51314672Y-64694726D01*
X51314668Y-64694723D01*
X51208133Y-64623538D01*
X51208124Y-64623533D01*
X51089744Y-64574499D01*
X51089738Y-64574497D01*
X50964071Y-64549500D01*
X50964069Y-64549500D01*
X50835931Y-64549500D01*
X50835929Y-64549500D01*
X50710261Y-64574497D01*
X50710255Y-64574499D01*
X50591875Y-64623533D01*
X50591866Y-64623538D01*
X50485331Y-64694723D01*
X50485327Y-64694726D01*
X50394726Y-64785327D01*
X50394723Y-64785331D01*
X50323538Y-64891866D01*
X50323533Y-64891875D01*
X50274499Y-65010255D01*
X50274497Y-65010261D01*
X50249500Y-65135928D01*
X50249500Y-65135931D01*
X50249500Y-65264069D01*
X50249500Y-65264071D01*
X50249499Y-65264071D01*
X50274497Y-65389738D01*
X50274499Y-65389744D01*
X50323533Y-65508124D01*
X50323538Y-65508133D01*
X50394723Y-65614668D01*
X50394725Y-65614671D01*
X50413179Y-65633124D01*
X50446666Y-65694446D01*
X50449500Y-65720807D01*
X50449500Y-68859309D01*
X50450776Y-68864071D01*
X50466765Y-68923744D01*
X50473667Y-68949500D01*
X50480201Y-68973887D01*
X50539511Y-69076614D01*
X50539513Y-69076616D01*
X50713181Y-69250284D01*
X50746666Y-69311607D01*
X50749500Y-69337965D01*
X50749500Y-70145037D01*
X50729815Y-70212076D01*
X50677011Y-70257831D01*
X50649692Y-70266654D01*
X50610261Y-70274497D01*
X50610255Y-70274499D01*
X50491875Y-70323533D01*
X50491866Y-70323538D01*
X50385331Y-70394723D01*
X50385327Y-70394726D01*
X50294726Y-70485327D01*
X50294723Y-70485331D01*
X50223538Y-70591866D01*
X50223533Y-70591875D01*
X50174499Y-70710255D01*
X50174497Y-70710261D01*
X50149500Y-70835928D01*
X50149500Y-70835931D01*
X50149500Y-70964069D01*
X50149500Y-70964071D01*
X50149499Y-70964071D01*
X47850500Y-70964071D01*
X47850500Y-70937965D01*
X47859144Y-70908524D01*
X47865668Y-70878538D01*
X47869422Y-70873522D01*
X47870185Y-70870926D01*
X47886819Y-70850284D01*
X47994945Y-70742158D01*
X48342380Y-70394723D01*
X48760489Y-69976614D01*
X48819798Y-69873887D01*
X48819799Y-69873886D01*
X48850500Y-69759309D01*
X48850500Y-65520807D01*
X48870185Y-65453768D01*
X48886821Y-65433124D01*
X48905274Y-65414671D01*
X48905276Y-65414669D01*
X48976465Y-65308127D01*
X49025501Y-65189744D01*
X49039479Y-65119475D01*
X49050500Y-65064071D01*
X49050500Y-64935928D01*
X49025502Y-64810261D01*
X49025501Y-64810260D01*
X49025501Y-64810256D01*
X48987574Y-64718692D01*
X48976466Y-64691875D01*
X48976461Y-64691866D01*
X48905276Y-64585331D01*
X48905273Y-64585327D01*
X48814672Y-64494726D01*
X48814668Y-64494723D01*
X48708133Y-64423538D01*
X48708124Y-64423533D01*
X48589744Y-64374499D01*
X48589738Y-64374497D01*
X48464071Y-64349500D01*
X48464069Y-64349500D01*
X48335931Y-64349500D01*
X48335929Y-64349500D01*
X48210261Y-64374497D01*
X48210255Y-64374499D01*
X48091875Y-64423533D01*
X48091866Y-64423538D01*
X47985331Y-64494723D01*
X47985327Y-64494726D01*
X47894726Y-64585327D01*
X47894723Y-64585331D01*
X47823538Y-64691866D01*
X47823533Y-64691875D01*
X47774499Y-64810255D01*
X47774497Y-64810261D01*
X47749500Y-64935928D01*
X47749500Y-64935931D01*
X47749500Y-65064069D01*
X47749500Y-65064071D01*
X47749499Y-65064071D01*
X47774497Y-65189738D01*
X47774499Y-65189744D01*
X47823533Y-65308124D01*
X47823538Y-65308133D01*
X47894723Y-65414668D01*
X47894725Y-65414671D01*
X47913179Y-65433124D01*
X47946666Y-65494446D01*
X47949500Y-65520807D01*
X47949500Y-69462035D01*
X47929815Y-69529074D01*
X47913181Y-69549716D01*
X47249716Y-70213181D01*
X47188393Y-70246666D01*
X47162035Y-70249500D01*
X47135929Y-70249500D01*
X47010261Y-70274497D01*
X47010255Y-70274499D01*
X46891875Y-70323533D01*
X46891866Y-70323538D01*
X46785331Y-70394723D01*
X46785327Y-70394726D01*
X46694726Y-70485327D01*
X46694723Y-70485331D01*
X46623538Y-70591866D01*
X46623533Y-70591875D01*
X46574499Y-70710255D01*
X46572730Y-70716088D01*
X46570749Y-70715487D01*
X46563394Y-70729534D01*
X46555439Y-70753522D01*
X46547464Y-70759962D01*
X46542709Y-70769045D01*
X46520742Y-70781543D01*
X46501082Y-70797421D01*
X46490891Y-70798527D01*
X46481981Y-70803597D01*
X46456744Y-70802235D01*
X46431620Y-70804963D01*
X46422448Y-70800384D01*
X46412213Y-70799832D01*
X46391718Y-70785042D01*
X46369108Y-70773754D01*
X46359676Y-70761918D01*
X46355555Y-70758945D01*
X46346933Y-70746296D01*
X46346543Y-70745641D01*
X46280520Y-70631284D01*
X46275606Y-70626370D01*
X46267925Y-70613455D01*
X46260994Y-70586419D01*
X46250930Y-70560388D01*
X46250500Y-70550069D01*
X46250500Y-66640693D01*
X46250500Y-66640691D01*
X46219799Y-66526114D01*
X46219799Y-66526113D01*
X46160489Y-66423386D01*
X44436700Y-64699597D01*
X44403215Y-64638274D01*
X44401442Y-64628099D01*
X44400500Y-64620945D01*
X44400500Y-64620943D01*
X44359577Y-64468216D01*
X44359573Y-64468209D01*
X44280524Y-64331290D01*
X44280518Y-64331282D01*
X44168717Y-64219481D01*
X44168709Y-64219475D01*
X44031790Y-64140426D01*
X44031786Y-64140424D01*
X44031784Y-64140423D01*
X43879057Y-64099500D01*
X43720943Y-64099500D01*
X43568216Y-64140423D01*
X43568209Y-64140426D01*
X43431290Y-64219475D01*
X43431282Y-64219481D01*
X43319481Y-64331282D01*
X43319475Y-64331290D01*
X43240426Y-64468209D01*
X43240423Y-64468216D01*
X43199500Y-64620943D01*
X43199500Y-64779057D01*
X43229730Y-64891875D01*
X43240423Y-64931783D01*
X43240426Y-64931790D01*
X43319475Y-65068709D01*
X43319481Y-65068717D01*
X43334443Y-65083679D01*
X43367928Y-65145002D01*
X43362944Y-65214694D01*
X43321072Y-65270627D01*
X43315655Y-65274461D01*
X43285329Y-65294724D01*
X43194726Y-65385327D01*
X43194723Y-65385331D01*
X43123538Y-65491866D01*
X43123533Y-65491875D01*
X43074499Y-65610255D01*
X43074497Y-65610261D01*
X43049500Y-65735928D01*
X43049500Y-65762034D01*
X43029815Y-65829073D01*
X43013181Y-65849715D01*
X42449716Y-66413181D01*
X42388393Y-66446666D01*
X42362035Y-66449500D01*
X42335929Y-66449500D01*
X42210261Y-66474497D01*
X42210255Y-66474499D01*
X42091875Y-66523533D01*
X42091866Y-66523538D01*
X41985331Y-66594723D01*
X41985327Y-66594726D01*
X41894726Y-66685327D01*
X41894723Y-66685331D01*
X41823538Y-66791866D01*
X41823533Y-66791875D01*
X41774499Y-66910255D01*
X41774497Y-66910261D01*
X41749500Y-67035928D01*
X41749500Y-67035931D01*
X41749500Y-67164069D01*
X41749500Y-67164071D01*
X41749499Y-67164071D01*
X34417285Y-67164071D01*
X34521811Y-67120775D01*
X34636542Y-67044114D01*
X34734114Y-66946542D01*
X34810775Y-66831811D01*
X34863580Y-66704328D01*
X34881414Y-66614672D01*
X34890500Y-66568995D01*
X34890500Y-66431004D01*
X34863581Y-66295677D01*
X34863580Y-66295676D01*
X34863580Y-66295672D01*
X34855628Y-66276473D01*
X34810778Y-66168195D01*
X34810771Y-66168182D01*
X34734114Y-66053458D01*
X34734111Y-66053454D01*
X34636545Y-65955888D01*
X34636541Y-65955885D01*
X34521817Y-65879228D01*
X34521804Y-65879221D01*
X34394332Y-65826421D01*
X34394322Y-65826418D01*
X34258995Y-65799500D01*
X34258993Y-65799500D01*
X34121007Y-65799500D01*
X34121005Y-65799500D01*
X33985677Y-65826418D01*
X33985667Y-65826421D01*
X33858195Y-65879221D01*
X33858182Y-65879228D01*
X33743458Y-65955885D01*
X33743454Y-65955888D01*
X33645888Y-66053454D01*
X33645885Y-66053458D01*
X33569228Y-66168182D01*
X33569221Y-66168195D01*
X33516421Y-66295667D01*
X33516418Y-66295677D01*
X33489500Y-66431004D01*
X33489500Y-66431007D01*
X33489500Y-66568993D01*
X33489500Y-66568995D01*
X33489499Y-66568995D01*
X32600500Y-66568995D01*
X32600500Y-63568995D01*
X33489499Y-63568995D01*
X33516418Y-63704322D01*
X33516421Y-63704332D01*
X33569221Y-63831804D01*
X33569228Y-63831817D01*
X33645885Y-63946541D01*
X33645888Y-63946545D01*
X33743454Y-64044111D01*
X33743458Y-64044114D01*
X33858182Y-64120771D01*
X33858195Y-64120778D01*
X33985667Y-64173578D01*
X33985672Y-64173580D01*
X33985676Y-64173580D01*
X33985677Y-64173581D01*
X34121004Y-64200500D01*
X34121007Y-64200500D01*
X34258995Y-64200500D01*
X34350041Y-64182389D01*
X34394328Y-64173580D01*
X34521811Y-64120775D01*
X34636542Y-64044114D01*
X34734114Y-63946542D01*
X34810775Y-63831811D01*
X34863580Y-63704328D01*
X34890500Y-63568993D01*
X34890500Y-63431007D01*
X34890500Y-63431004D01*
X34863581Y-63295677D01*
X34863580Y-63295676D01*
X34863580Y-63295672D01*
X34863578Y-63295667D01*
X34810778Y-63168195D01*
X34810771Y-63168182D01*
X34734114Y-63053458D01*
X34734111Y-63053454D01*
X34636545Y-62955888D01*
X34636541Y-62955885D01*
X34521817Y-62879228D01*
X34521804Y-62879221D01*
X34394332Y-62826421D01*
X34394322Y-62826418D01*
X34258995Y-62799500D01*
X34258993Y-62799500D01*
X34121007Y-62799500D01*
X34121005Y-62799500D01*
X33985677Y-62826418D01*
X33985667Y-62826421D01*
X33858195Y-62879221D01*
X33858182Y-62879228D01*
X33743458Y-62955885D01*
X33743454Y-62955888D01*
X33645888Y-63053454D01*
X33645885Y-63053458D01*
X33569228Y-63168182D01*
X33569221Y-63168195D01*
X33516421Y-63295667D01*
X33516418Y-63295677D01*
X33489500Y-63431004D01*
X33489500Y-63431007D01*
X33489500Y-63568993D01*
X33489500Y-63568995D01*
X33489499Y-63568995D01*
X32600500Y-63568995D01*
X32600500Y-62220943D01*
X52099500Y-62220943D01*
X52099500Y-62379057D01*
X52126687Y-62480518D01*
X52140423Y-62531783D01*
X52140426Y-62531790D01*
X52219475Y-62668709D01*
X52219481Y-62668717D01*
X52313181Y-62762417D01*
X52346666Y-62823740D01*
X52349500Y-62850098D01*
X52349500Y-67550069D01*
X52329815Y-67617108D01*
X52323875Y-67625557D01*
X52319475Y-67631290D01*
X52240426Y-67768209D01*
X52240423Y-67768216D01*
X52199500Y-67920943D01*
X52199500Y-68079057D01*
X52238214Y-68223538D01*
X52240423Y-68231783D01*
X52240426Y-68231790D01*
X52319475Y-68368709D01*
X52319479Y-68368714D01*
X52319480Y-68368716D01*
X52431284Y-68480520D01*
X52431286Y-68480521D01*
X52431290Y-68480524D01*
X52568209Y-68559573D01*
X52568216Y-68559577D01*
X52720943Y-68600500D01*
X52720945Y-68600500D01*
X52728099Y-68601442D01*
X52791996Y-68629707D01*
X52799597Y-68636700D01*
X53713181Y-69550284D01*
X53746666Y-69611607D01*
X53749500Y-69637965D01*
X53749500Y-73150069D01*
X53729815Y-73217108D01*
X53723875Y-73225557D01*
X53719475Y-73231290D01*
X53640426Y-73368209D01*
X53640423Y-73368216D01*
X53599500Y-73520943D01*
X53599500Y-73679057D01*
X53629405Y-73790662D01*
X53640423Y-73831783D01*
X53640426Y-73831790D01*
X53719475Y-73968709D01*
X53719479Y-73968714D01*
X53719480Y-73968716D01*
X53831284Y-74080520D01*
X53831286Y-74080521D01*
X53831290Y-74080524D01*
X53933460Y-74139511D01*
X53968216Y-74159577D01*
X54120943Y-74200500D01*
X54120945Y-74200500D01*
X54279055Y-74200500D01*
X54279057Y-74200500D01*
X54431784Y-74159577D01*
X54568716Y-74080520D01*
X54680520Y-73968716D01*
X54759577Y-73831784D01*
X54800500Y-73679057D01*
X54800500Y-73520943D01*
X54759577Y-73368216D01*
X54756217Y-73362397D01*
X54680524Y-73231290D01*
X54680521Y-73231287D01*
X54680520Y-73231284D01*
X54680517Y-73231281D01*
X54676125Y-73225557D01*
X54650930Y-73160388D01*
X54650500Y-73150069D01*
X54650500Y-71120943D01*
X60799500Y-71120943D01*
X60799500Y-71279057D01*
X60838330Y-71423970D01*
X60840423Y-71431783D01*
X60840426Y-71431790D01*
X60919473Y-71568706D01*
X60919477Y-71568712D01*
X60919480Y-71568716D01*
X60919482Y-71568718D01*
X60923872Y-71574438D01*
X60949069Y-71639606D01*
X60949500Y-71649930D01*
X60949500Y-74450069D01*
X60929815Y-74517108D01*
X60923875Y-74525557D01*
X60919475Y-74531290D01*
X60840426Y-74668209D01*
X60840423Y-74668216D01*
X60799500Y-74820943D01*
X60799500Y-74979057D01*
X60838740Y-75125501D01*
X60840423Y-75131783D01*
X60840426Y-75131790D01*
X60919475Y-75268709D01*
X60919479Y-75268714D01*
X60919480Y-75268716D01*
X61031284Y-75380520D01*
X61031286Y-75380521D01*
X61031290Y-75380524D01*
X61106537Y-75423967D01*
X61168216Y-75459577D01*
X61320943Y-75500500D01*
X61320945Y-75500500D01*
X61479055Y-75500500D01*
X61479057Y-75500500D01*
X61631784Y-75459577D01*
X61768716Y-75380520D01*
X61880520Y-75268716D01*
X61959577Y-75131784D01*
X62000500Y-74979057D01*
X62000500Y-74820943D01*
X61959577Y-74668216D01*
X61945128Y-74643189D01*
X61880524Y-74531290D01*
X61880521Y-74531287D01*
X61880520Y-74531284D01*
X61880517Y-74531281D01*
X61876125Y-74525557D01*
X61850930Y-74460388D01*
X61850500Y-74450069D01*
X61850500Y-72464071D01*
X72249499Y-72464071D01*
X72274497Y-72589738D01*
X72274499Y-72589744D01*
X72323533Y-72708124D01*
X72323538Y-72708133D01*
X72394723Y-72814668D01*
X72394726Y-72814672D01*
X72485327Y-72905273D01*
X72485331Y-72905276D01*
X72591866Y-72976461D01*
X72591875Y-72976466D01*
X72613268Y-72985327D01*
X72710256Y-73025501D01*
X72710260Y-73025501D01*
X72710261Y-73025502D01*
X72835928Y-73050500D01*
X72835931Y-73050500D01*
X72964071Y-73050500D01*
X73048615Y-73033682D01*
X73089744Y-73025501D01*
X73208127Y-72976465D01*
X73314669Y-72905276D01*
X73405276Y-72814669D01*
X73476465Y-72708127D01*
X73525501Y-72589744D01*
X73550500Y-72464069D01*
X73550500Y-72437965D01*
X73570185Y-72370926D01*
X73586819Y-72350284D01*
X76450285Y-69486819D01*
X76511608Y-69453334D01*
X76537966Y-69450500D01*
X76564071Y-69450500D01*
X76648615Y-69433682D01*
X76689744Y-69425501D01*
X76808127Y-69376465D01*
X76914669Y-69305276D01*
X77005276Y-69214669D01*
X77076465Y-69108127D01*
X77125501Y-68989744D01*
X77150500Y-68864069D01*
X77150500Y-68735931D01*
X77150500Y-68735928D01*
X77125502Y-68610261D01*
X77125501Y-68610260D01*
X77125501Y-68610256D01*
X77076465Y-68491873D01*
X77076464Y-68491872D01*
X77076461Y-68491866D01*
X77005276Y-68385331D01*
X77005273Y-68385327D01*
X76914672Y-68294726D01*
X76914668Y-68294723D01*
X76808133Y-68223538D01*
X76808124Y-68223533D01*
X76689744Y-68174499D01*
X76689738Y-68174497D01*
X76564071Y-68149500D01*
X76564069Y-68149500D01*
X76435931Y-68149500D01*
X76435929Y-68149500D01*
X76310261Y-68174497D01*
X76310255Y-68174499D01*
X76191875Y-68223533D01*
X76191866Y-68223538D01*
X76085331Y-68294723D01*
X76085327Y-68294726D01*
X75994726Y-68385327D01*
X75994723Y-68385331D01*
X75923538Y-68491866D01*
X75923533Y-68491875D01*
X75874499Y-68610255D01*
X75874497Y-68610261D01*
X75849500Y-68735928D01*
X75849500Y-68762034D01*
X75829815Y-68829073D01*
X75813181Y-68849715D01*
X72949716Y-71713181D01*
X72888393Y-71746666D01*
X72862035Y-71749500D01*
X72835929Y-71749500D01*
X72710261Y-71774497D01*
X72710255Y-71774499D01*
X72591875Y-71823533D01*
X72591866Y-71823538D01*
X72485331Y-71894723D01*
X72485327Y-71894726D01*
X72394726Y-71985327D01*
X72394723Y-71985331D01*
X72323538Y-72091866D01*
X72323533Y-72091875D01*
X72274499Y-72210255D01*
X72274497Y-72210261D01*
X72249500Y-72335928D01*
X72249500Y-72335931D01*
X72249500Y-72464069D01*
X72249500Y-72464071D01*
X72249499Y-72464071D01*
X61850500Y-72464071D01*
X61850500Y-71649930D01*
X61870185Y-71582891D01*
X61876128Y-71574438D01*
X61880512Y-71568723D01*
X61880520Y-71568716D01*
X61885797Y-71559577D01*
X61931437Y-71480524D01*
X61959577Y-71431784D01*
X62000500Y-71279057D01*
X62000500Y-71120943D01*
X61959577Y-70968216D01*
X61942112Y-70937965D01*
X61880524Y-70831290D01*
X61880518Y-70831282D01*
X61768717Y-70719481D01*
X61768709Y-70719475D01*
X61631790Y-70640426D01*
X61631786Y-70640424D01*
X61631784Y-70640423D01*
X61479057Y-70599500D01*
X61320943Y-70599500D01*
X61168216Y-70640423D01*
X61168209Y-70640426D01*
X61031290Y-70719475D01*
X61031282Y-70719481D01*
X60919481Y-70831282D01*
X60919475Y-70831290D01*
X60840426Y-70968209D01*
X60840423Y-70968216D01*
X60799500Y-71120943D01*
X54650500Y-71120943D01*
X54650500Y-69340693D01*
X54650500Y-69340691D01*
X54619799Y-69226114D01*
X54619799Y-69226113D01*
X54560489Y-69123386D01*
X53436700Y-67999597D01*
X53403215Y-67938274D01*
X53401442Y-67928099D01*
X53400500Y-67920945D01*
X53400500Y-67920943D01*
X53359577Y-67768216D01*
X53338258Y-67731290D01*
X53280524Y-67631290D01*
X53280521Y-67631287D01*
X53280520Y-67631284D01*
X53280517Y-67631281D01*
X53276125Y-67625557D01*
X53250930Y-67560388D01*
X53250500Y-67550069D01*
X53250500Y-66264071D01*
X65749499Y-66264071D01*
X65774497Y-66389738D01*
X65774499Y-66389744D01*
X65823533Y-66508124D01*
X65823538Y-66508133D01*
X65894723Y-66614668D01*
X65894726Y-66614672D01*
X65985325Y-66705271D01*
X65985328Y-66705273D01*
X65985331Y-66705276D01*
X65994388Y-66711327D01*
X66039193Y-66764935D01*
X66049500Y-66814431D01*
X66049500Y-68279192D01*
X66029815Y-68346231D01*
X66013181Y-68366873D01*
X65994726Y-68385327D01*
X65994723Y-68385331D01*
X65923538Y-68491866D01*
X65923533Y-68491875D01*
X65874499Y-68610255D01*
X65874497Y-68610261D01*
X65849500Y-68735928D01*
X65849500Y-68735931D01*
X65849500Y-68864069D01*
X65849500Y-68864071D01*
X65849499Y-68864071D01*
X65874497Y-68989738D01*
X65874499Y-68989744D01*
X65923533Y-69108124D01*
X65923538Y-69108133D01*
X65994723Y-69214668D01*
X65994726Y-69214672D01*
X66085327Y-69305273D01*
X66085331Y-69305276D01*
X66191866Y-69376461D01*
X66191872Y-69376464D01*
X66191873Y-69376465D01*
X66310256Y-69425501D01*
X66310260Y-69425501D01*
X66310261Y-69425502D01*
X66435928Y-69450500D01*
X66435931Y-69450500D01*
X66564071Y-69450500D01*
X66648615Y-69433682D01*
X66689744Y-69425501D01*
X66808127Y-69376465D01*
X66914669Y-69305276D01*
X67005276Y-69214669D01*
X67076465Y-69108127D01*
X67125501Y-68989744D01*
X67150500Y-68864069D01*
X67150500Y-68735931D01*
X67150500Y-68735928D01*
X67125502Y-68610261D01*
X67125501Y-68610260D01*
X67125501Y-68610256D01*
X67076465Y-68491873D01*
X67076464Y-68491872D01*
X67076461Y-68491866D01*
X67005276Y-68385331D01*
X67005273Y-68385327D01*
X66986819Y-68366873D01*
X66953334Y-68305550D01*
X66950500Y-68279192D01*
X66950500Y-66584600D01*
X66970185Y-66517561D01*
X66971359Y-66515768D01*
X66976465Y-66508127D01*
X67025501Y-66389744D01*
X67050500Y-66264069D01*
X67050500Y-66135931D01*
X67050500Y-66135928D01*
X67025502Y-66010261D01*
X67025501Y-66010260D01*
X67025501Y-66010256D01*
X66976465Y-65891873D01*
X66976464Y-65891872D01*
X66976461Y-65891866D01*
X66905276Y-65785331D01*
X66905273Y-65785327D01*
X66814672Y-65694726D01*
X66814668Y-65694723D01*
X66708133Y-65623538D01*
X66708124Y-65623533D01*
X66589744Y-65574499D01*
X66589738Y-65574497D01*
X66464071Y-65549500D01*
X66464069Y-65549500D01*
X66335931Y-65549500D01*
X66335929Y-65549500D01*
X66210261Y-65574497D01*
X66210255Y-65574499D01*
X66091875Y-65623533D01*
X66091866Y-65623538D01*
X65985331Y-65694723D01*
X65985327Y-65694726D01*
X65894726Y-65785327D01*
X65894723Y-65785331D01*
X65823538Y-65891866D01*
X65823533Y-65891875D01*
X65774499Y-66010255D01*
X65774497Y-66010261D01*
X65749500Y-66135928D01*
X65749500Y-66135931D01*
X65749500Y-66264069D01*
X65749500Y-66264071D01*
X65749499Y-66264071D01*
X53250500Y-66264071D01*
X53250500Y-62578362D01*
X53258167Y-62539822D01*
X53257473Y-62539636D01*
X53273313Y-62480520D01*
X53300500Y-62379057D01*
X53300500Y-62220943D01*
X53259577Y-62068216D01*
X53180520Y-61931284D01*
X53170179Y-61920943D01*
X66799500Y-61920943D01*
X66799500Y-62079056D01*
X66840423Y-62231783D01*
X66840426Y-62231790D01*
X66919475Y-62368709D01*
X66919479Y-62368714D01*
X66919480Y-62368716D01*
X67031284Y-62480520D01*
X67031286Y-62480521D01*
X67031290Y-62480524D01*
X67120087Y-62531790D01*
X67168216Y-62559577D01*
X67320943Y-62600500D01*
X67320945Y-62600500D01*
X67328099Y-62601442D01*
X67391996Y-62629707D01*
X67399597Y-62636700D01*
X70363299Y-65600402D01*
X70396784Y-65661725D01*
X70398556Y-65671893D01*
X70399498Y-65679050D01*
X70399500Y-65679056D01*
X70399500Y-65679057D01*
X70429404Y-65790662D01*
X70440423Y-65831783D01*
X70440426Y-65831790D01*
X70519475Y-65968709D01*
X70519479Y-65968714D01*
X70519480Y-65968716D01*
X70631284Y-66080520D01*
X70631286Y-66080521D01*
X70631290Y-66080524D01*
X70768209Y-66159573D01*
X70768216Y-66159577D01*
X70920943Y-66200500D01*
X70920945Y-66200500D01*
X71079055Y-66200500D01*
X71079057Y-66200500D01*
X71231784Y-66159577D01*
X71368716Y-66080520D01*
X71480520Y-65968716D01*
X71559577Y-65831784D01*
X71600500Y-65679057D01*
X71600500Y-65520943D01*
X71559577Y-65368216D01*
X71546676Y-65345871D01*
X71480524Y-65231290D01*
X71480518Y-65231282D01*
X71368717Y-65119481D01*
X71368709Y-65119475D01*
X71231790Y-65040426D01*
X71231786Y-65040424D01*
X71231784Y-65040423D01*
X71079057Y-64999500D01*
X71079050Y-64999498D01*
X71071893Y-64998556D01*
X71007997Y-64970287D01*
X71000403Y-64963299D01*
X68036700Y-61999596D01*
X68003215Y-61938273D01*
X68001442Y-61928100D01*
X68000500Y-61920944D01*
X67973313Y-61819481D01*
X67959577Y-61768216D01*
X67919904Y-61699500D01*
X67880524Y-61631290D01*
X67880518Y-61631282D01*
X67768717Y-61519481D01*
X67768709Y-61519475D01*
X67631790Y-61440426D01*
X67631786Y-61440424D01*
X67631784Y-61440423D01*
X67479057Y-61399500D01*
X67320943Y-61399500D01*
X67168216Y-61440423D01*
X67168209Y-61440426D01*
X67031290Y-61519475D01*
X67031282Y-61519481D01*
X66919481Y-61631282D01*
X66919475Y-61631290D01*
X66840426Y-61768209D01*
X66840423Y-61768216D01*
X66799500Y-61920943D01*
X53170179Y-61920943D01*
X53068716Y-61819480D01*
X53068714Y-61819479D01*
X53068709Y-61819475D01*
X52931790Y-61740426D01*
X52931786Y-61740424D01*
X52931784Y-61740423D01*
X52779057Y-61699500D01*
X52620943Y-61699500D01*
X52468216Y-61740423D01*
X52468209Y-61740426D01*
X52331290Y-61819475D01*
X52331282Y-61819481D01*
X52219481Y-61931282D01*
X52219475Y-61931290D01*
X52140426Y-62068209D01*
X52140423Y-62068216D01*
X52099500Y-62220943D01*
X32600500Y-62220943D01*
X32600500Y-60770943D01*
X68149500Y-60770943D01*
X68149500Y-60929056D01*
X68190423Y-61081783D01*
X68190426Y-61081790D01*
X68269475Y-61218709D01*
X68269479Y-61218714D01*
X68269480Y-61218716D01*
X68381284Y-61330520D01*
X68381286Y-61330521D01*
X68381290Y-61330524D01*
X68500762Y-61399500D01*
X68518216Y-61409577D01*
X68670943Y-61450500D01*
X68739550Y-61450500D01*
X68806589Y-61470185D01*
X68827231Y-61486819D01*
X73113181Y-65772769D01*
X73146666Y-65834092D01*
X73149500Y-65860450D01*
X73149500Y-67650069D01*
X73129815Y-67717108D01*
X73123875Y-67725557D01*
X73119475Y-67731290D01*
X73040426Y-67868209D01*
X73040423Y-67868216D01*
X72999500Y-68020943D01*
X72999500Y-68179057D01*
X73030494Y-68294726D01*
X73040423Y-68331783D01*
X73040426Y-68331790D01*
X73119475Y-68468709D01*
X73119479Y-68468714D01*
X73119480Y-68468716D01*
X73231284Y-68580520D01*
X73231286Y-68580521D01*
X73231290Y-68580524D01*
X73334811Y-68640291D01*
X73368216Y-68659577D01*
X73520943Y-68700500D01*
X73520945Y-68700500D01*
X73679055Y-68700500D01*
X73679057Y-68700500D01*
X73831784Y-68659577D01*
X73968716Y-68580520D01*
X74080520Y-68468716D01*
X74159577Y-68331784D01*
X74200500Y-68179057D01*
X74200500Y-68020943D01*
X74159577Y-67868216D01*
X74149473Y-67850715D01*
X74080524Y-67731290D01*
X74080521Y-67731287D01*
X74080520Y-67731284D01*
X74080517Y-67731281D01*
X74076125Y-67725557D01*
X74050930Y-67660388D01*
X74050500Y-67650069D01*
X74050500Y-65563177D01*
X74026286Y-65472810D01*
X74026286Y-65472809D01*
X74021184Y-65453768D01*
X74019799Y-65448598D01*
X73960489Y-65345871D01*
X69361160Y-60746542D01*
X69329067Y-60690956D01*
X69309577Y-60618216D01*
X69309574Y-60618212D01*
X69309574Y-60618209D01*
X69230524Y-60481290D01*
X69230518Y-60481282D01*
X69118717Y-60369481D01*
X69118709Y-60369475D01*
X68981790Y-60290426D01*
X68981786Y-60290424D01*
X68981784Y-60290423D01*
X68829057Y-60249500D01*
X68670943Y-60249500D01*
X68518216Y-60290423D01*
X68518209Y-60290426D01*
X68381290Y-60369475D01*
X68381282Y-60369481D01*
X68269481Y-60481282D01*
X68269475Y-60481290D01*
X68190426Y-60618209D01*
X68190423Y-60618216D01*
X68149500Y-60770943D01*
X32600500Y-60770943D01*
X32600500Y-56985258D01*
X33849500Y-56985258D01*
X33849500Y-57214741D01*
X33874446Y-57404215D01*
X33879452Y-57442238D01*
X33879453Y-57442240D01*
X33938842Y-57663887D01*
X34026650Y-57875876D01*
X34026657Y-57875890D01*
X34141392Y-58074617D01*
X34281081Y-58256661D01*
X34281089Y-58256670D01*
X34443330Y-58418911D01*
X34443338Y-58418918D01*
X34625382Y-58558607D01*
X34625385Y-58558608D01*
X34625388Y-58558611D01*
X34824112Y-58673344D01*
X34824117Y-58673346D01*
X34824123Y-58673349D01*
X34915480Y-58711190D01*
X35036113Y-58761158D01*
X35257762Y-58820548D01*
X35485266Y-58850500D01*
X35485273Y-58850500D01*
X35714727Y-58850500D01*
X35714734Y-58850500D01*
X35942238Y-58820548D01*
X36163887Y-58761158D01*
X36375888Y-58673344D01*
X36574612Y-58558611D01*
X36756661Y-58418919D01*
X36756665Y-58418914D01*
X36756670Y-58418911D01*
X36918911Y-58256670D01*
X36918914Y-58256665D01*
X36918919Y-58256661D01*
X37058611Y-58074612D01*
X37173344Y-57875888D01*
X37261158Y-57663887D01*
X37320548Y-57442238D01*
X37350500Y-57214734D01*
X37350500Y-56985266D01*
X37350499Y-56985258D01*
X73849500Y-56985258D01*
X73849500Y-57214741D01*
X73874446Y-57404215D01*
X73879452Y-57442238D01*
X73879453Y-57442240D01*
X73938842Y-57663887D01*
X74026650Y-57875876D01*
X74026657Y-57875890D01*
X74141392Y-58074617D01*
X74281081Y-58256661D01*
X74281089Y-58256670D01*
X74443330Y-58418911D01*
X74443338Y-58418918D01*
X74625382Y-58558607D01*
X74625385Y-58558608D01*
X74625388Y-58558611D01*
X74824112Y-58673344D01*
X74824117Y-58673346D01*
X74824123Y-58673349D01*
X74915480Y-58711190D01*
X75036113Y-58761158D01*
X75257762Y-58820548D01*
X75485266Y-58850500D01*
X75485273Y-58850500D01*
X75714727Y-58850500D01*
X75714734Y-58850500D01*
X75942238Y-58820548D01*
X76163887Y-58761158D01*
X76375888Y-58673344D01*
X76574612Y-58558611D01*
X76756661Y-58418919D01*
X76756665Y-58418914D01*
X76756670Y-58418911D01*
X76918911Y-58256670D01*
X76918914Y-58256665D01*
X76918919Y-58256661D01*
X77058611Y-58074612D01*
X77173344Y-57875888D01*
X77261158Y-57663887D01*
X77320548Y-57442238D01*
X77350500Y-57214734D01*
X77350500Y-56985266D01*
X77320548Y-56757762D01*
X77261158Y-56536113D01*
X77173344Y-56324112D01*
X77058611Y-56125388D01*
X77058608Y-56125385D01*
X77058607Y-56125382D01*
X76918918Y-55943338D01*
X76918911Y-55943330D01*
X76756670Y-55781089D01*
X76756661Y-55781081D01*
X76574617Y-55641392D01*
X76375890Y-55526657D01*
X76375876Y-55526650D01*
X76163887Y-55438842D01*
X75942238Y-55379452D01*
X75904215Y-55374446D01*
X75714741Y-55349500D01*
X75714734Y-55349500D01*
X75485266Y-55349500D01*
X75485258Y-55349500D01*
X75268715Y-55378009D01*
X75257762Y-55379452D01*
X75164076Y-55404554D01*
X75036112Y-55438842D01*
X74824123Y-55526650D01*
X74824109Y-55526657D01*
X74625382Y-55641392D01*
X74443338Y-55781081D01*
X74281081Y-55943338D01*
X74141392Y-56125382D01*
X74026657Y-56324109D01*
X74026650Y-56324123D01*
X73938842Y-56536112D01*
X73879453Y-56757759D01*
X73879451Y-56757770D01*
X73849500Y-56985258D01*
X37350499Y-56985258D01*
X37320548Y-56757762D01*
X37261158Y-56536113D01*
X37173344Y-56324112D01*
X37058611Y-56125388D01*
X37058608Y-56125385D01*
X37058607Y-56125382D01*
X36918918Y-55943338D01*
X36918911Y-55943330D01*
X36756670Y-55781089D01*
X36756661Y-55781081D01*
X36574617Y-55641392D01*
X36375890Y-55526657D01*
X36375876Y-55526650D01*
X36163887Y-55438842D01*
X35942238Y-55379452D01*
X35904215Y-55374446D01*
X35714741Y-55349500D01*
X35714734Y-55349500D01*
X35485266Y-55349500D01*
X35485258Y-55349500D01*
X35268715Y-55378009D01*
X35257762Y-55379452D01*
X35164076Y-55404554D01*
X35036112Y-55438842D01*
X34824123Y-55526650D01*
X34824109Y-55526657D01*
X34625382Y-55641392D01*
X34443338Y-55781081D01*
X34281081Y-55943338D01*
X34141392Y-56125382D01*
X34026657Y-56324109D01*
X34026650Y-56324123D01*
X33938842Y-56536112D01*
X33879453Y-56757759D01*
X33879451Y-56757770D01*
X33849500Y-56985258D01*
X32600500Y-56985258D01*
X32600500Y-53224500D01*
X32620185Y-53157461D01*
X32672989Y-53111706D01*
X32724500Y-53100500D01*
X88475500Y-53100500D01*
X88542539Y-53120185D01*
G37*
%TD.AperFunction*%
%TA.AperFunction,Conductor*%
G36*
X86029074Y-78570185D02*
G01*
X86049716Y-78586819D01*
X86513181Y-79050284D01*
X86546666Y-79111607D01*
X86549500Y-79137965D01*
X86549500Y-80262035D01*
X86529815Y-80329074D01*
X86513181Y-80349716D01*
X85449716Y-81413181D01*
X85388393Y-81446666D01*
X85362035Y-81449500D01*
X82743343Y-81449500D01*
X82676304Y-81429815D01*
X82630549Y-81377011D01*
X82620605Y-81307853D01*
X82649630Y-81244297D01*
X82687048Y-81215016D01*
X82760376Y-81177652D01*
X82760382Y-81177649D01*
X82797283Y-81150837D01*
X82194462Y-80548016D01*
X82276473Y-80526042D01*
X82380727Y-80465851D01*
X82465851Y-80380727D01*
X82526042Y-80276473D01*
X82548016Y-80194463D01*
X83150836Y-80797284D01*
X83171481Y-80795659D01*
X83182550Y-80787124D01*
X83252163Y-80781145D01*
X83313959Y-80813750D01*
X83315220Y-80814994D01*
X83423967Y-80923741D01*
X83423971Y-80923744D01*
X83597658Y-81039799D01*
X83597671Y-81039806D01*
X83742414Y-81099759D01*
X83790664Y-81119745D01*
X83840834Y-81129724D01*
X83995547Y-81160500D01*
X83995550Y-81160500D01*
X84204452Y-81160500D01*
X84307593Y-81139983D01*
X84409336Y-81119745D01*
X84602335Y-81039803D01*
X84776029Y-80923744D01*
X84923744Y-80776029D01*
X85039803Y-80602335D01*
X85119745Y-80409336D01*
X85146174Y-80276473D01*
X85160500Y-80204452D01*
X85160500Y-79995547D01*
X85119746Y-79790670D01*
X85119745Y-79790664D01*
X85092754Y-79725501D01*
X85039806Y-79597671D01*
X85039799Y-79597658D01*
X84923744Y-79423971D01*
X84923741Y-79423967D01*
X84776032Y-79276258D01*
X84776028Y-79276255D01*
X84666547Y-79203102D01*
X84621742Y-79149490D01*
X84613035Y-79080165D01*
X84643189Y-79017137D01*
X84666547Y-78996898D01*
X84700072Y-78974497D01*
X84776029Y-78923744D01*
X84923744Y-78776029D01*
X85037615Y-78605608D01*
X85091227Y-78560804D01*
X85140717Y-78550500D01*
X85962035Y-78550500D01*
X86029074Y-78570185D01*
G37*
%TD.AperFunction*%
%TA.AperFunction,Conductor*%
G36*
X83182863Y-78643189D02*
G01*
X83203102Y-78666547D01*
X83276255Y-78776028D01*
X83276258Y-78776032D01*
X83423967Y-78923741D01*
X83423971Y-78923744D01*
X83533452Y-78996898D01*
X83578257Y-79050511D01*
X83586964Y-79119836D01*
X83556809Y-79182863D01*
X83533452Y-79203102D01*
X83423971Y-79276254D01*
X83315221Y-79385005D01*
X83253898Y-79418489D01*
X83184206Y-79413505D01*
X83172019Y-79404381D01*
X83150837Y-79402714D01*
X82548016Y-80005535D01*
X82526042Y-79923527D01*
X82465851Y-79819273D01*
X82380727Y-79734149D01*
X82276473Y-79673958D01*
X82194463Y-79651983D01*
X82797283Y-79049161D01*
X82795658Y-79028516D01*
X82787125Y-79017450D01*
X82781144Y-78947837D01*
X82813749Y-78886042D01*
X82814928Y-78884844D01*
X82923744Y-78776029D01*
X82996898Y-78666547D01*
X83050510Y-78621742D01*
X83119835Y-78613035D01*
X83182863Y-78643189D01*
G37*
%TD.AperFunction*%
%TA.AperFunction,Conductor*%
G36*
X83150836Y-66797284D02*
G01*
X83171481Y-66795659D01*
X83182550Y-66787124D01*
X83252163Y-66781145D01*
X83313959Y-66813750D01*
X83315220Y-66814994D01*
X83423967Y-66923741D01*
X83423971Y-66923744D01*
X83533452Y-66996898D01*
X83578257Y-67050511D01*
X83586964Y-67119836D01*
X83556809Y-67182863D01*
X83533452Y-67203102D01*
X83423971Y-67276255D01*
X83423967Y-67276258D01*
X83276258Y-67423967D01*
X83276255Y-67423971D01*
X83203102Y-67533452D01*
X83149489Y-67578257D01*
X83080164Y-67586964D01*
X83017137Y-67556809D01*
X82996898Y-67533452D01*
X82923744Y-67423971D01*
X82923741Y-67423967D01*
X82814994Y-67315220D01*
X82781509Y-67253897D01*
X82786493Y-67184205D01*
X82795617Y-67172016D01*
X82797284Y-67150836D01*
X82194464Y-66548016D01*
X82276473Y-66526042D01*
X82380727Y-66465851D01*
X82465851Y-66380727D01*
X82526042Y-66276473D01*
X82548016Y-66194463D01*
X83150836Y-66797284D01*
G37*
%TD.AperFunction*%
%TD*%
M02*
