%TF.GenerationSoftware,KiCad,Pcbnew,9.0.2*%
%TF.CreationDate,2025-06-28T19:26:11+02:00*%
%TF.ProjectId,cantoto,63616e74-6f74-46f2-9e6b-696361645f70,rev?*%
%TF.SameCoordinates,Original*%
%TF.FileFunction,Copper,L1,Top*%
%TF.FilePolarity,Positive*%
%FSLAX46Y46*%
G04 Gerber Fmt 4.6, Leading zero omitted, Abs format (unit mm)*
G04 Created by KiCad (PCBNEW 9.0.2) date 2025-06-28 19:26:11*
%MOMM*%
%LPD*%
G01*
G04 APERTURE LIST*
G04 Aperture macros list*
%AMRoundRect*
0 Rectangle with rounded corners*
0 $1 Rounding radius*
0 $2 $3 $4 $5 $6 $7 $8 $9 X,Y pos of 4 corners*
0 Add a 4 corners polygon primitive as box body*
4,1,4,$2,$3,$4,$5,$6,$7,$8,$9,$2,$3,0*
0 Add four circle primitives for the rounded corners*
1,1,$1+$1,$2,$3*
1,1,$1+$1,$4,$5*
1,1,$1+$1,$6,$7*
1,1,$1+$1,$8,$9*
0 Add four rect primitives between the rounded corners*
20,1,$1+$1,$2,$3,$4,$5,0*
20,1,$1+$1,$4,$5,$6,$7,0*
20,1,$1+$1,$6,$7,$8,$9,0*
20,1,$1+$1,$8,$9,$2,$3,0*%
G04 Aperture macros list end*
%TA.AperFunction,SMDPad,CuDef*%
%ADD10RoundRect,0.250000X-0.650000X0.325000X-0.650000X-0.325000X0.650000X-0.325000X0.650000X0.325000X0*%
%TD*%
%TA.AperFunction,SMDPad,CuDef*%
%ADD11RoundRect,0.250000X0.250000X0.475000X-0.250000X0.475000X-0.250000X-0.475000X0.250000X-0.475000X0*%
%TD*%
%TA.AperFunction,SMDPad,CuDef*%
%ADD12RoundRect,0.135000X-0.135000X-0.185000X0.135000X-0.185000X0.135000X0.185000X-0.135000X0.185000X0*%
%TD*%
%TA.AperFunction,SMDPad,CuDef*%
%ADD13RoundRect,0.075000X-0.662500X-0.075000X0.662500X-0.075000X0.662500X0.075000X-0.662500X0.075000X0*%
%TD*%
%TA.AperFunction,SMDPad,CuDef*%
%ADD14RoundRect,0.075000X-0.075000X-0.662500X0.075000X-0.662500X0.075000X0.662500X-0.075000X0.662500X0*%
%TD*%
%TA.AperFunction,SMDPad,CuDef*%
%ADD15RoundRect,0.140000X0.170000X-0.140000X0.170000X0.140000X-0.170000X0.140000X-0.170000X-0.140000X0*%
%TD*%
%TA.AperFunction,SMDPad,CuDef*%
%ADD16RoundRect,0.150000X0.150000X-0.587500X0.150000X0.587500X-0.150000X0.587500X-0.150000X-0.587500X0*%
%TD*%
%TA.AperFunction,SMDPad,CuDef*%
%ADD17RoundRect,0.135000X0.135000X0.185000X-0.135000X0.185000X-0.135000X-0.185000X0.135000X-0.185000X0*%
%TD*%
%TA.AperFunction,SMDPad,CuDef*%
%ADD18RoundRect,0.100000X-0.100000X0.225000X-0.100000X-0.225000X0.100000X-0.225000X0.100000X0.225000X0*%
%TD*%
%TA.AperFunction,SMDPad,CuDef*%
%ADD19RoundRect,0.250000X-0.475000X0.250000X-0.475000X-0.250000X0.475000X-0.250000X0.475000X0.250000X0*%
%TD*%
%TA.AperFunction,SMDPad,CuDef*%
%ADD20RoundRect,0.135000X0.185000X-0.135000X0.185000X0.135000X-0.185000X0.135000X-0.185000X-0.135000X0*%
%TD*%
%TA.AperFunction,SMDPad,CuDef*%
%ADD21RoundRect,0.140000X-0.140000X-0.170000X0.140000X-0.170000X0.140000X0.170000X-0.140000X0.170000X0*%
%TD*%
%TA.AperFunction,SMDPad,CuDef*%
%ADD22RoundRect,0.250000X-0.312500X-1.450000X0.312500X-1.450000X0.312500X1.450000X-0.312500X1.450000X0*%
%TD*%
%TA.AperFunction,SMDPad,CuDef*%
%ADD23R,0.800000X1.000000*%
%TD*%
%TA.AperFunction,SMDPad,CuDef*%
%ADD24R,1.500000X0.700000*%
%TD*%
%TA.AperFunction,SMDPad,CuDef*%
%ADD25RoundRect,0.140000X-0.170000X0.140000X-0.170000X-0.140000X0.170000X-0.140000X0.170000X0.140000X0*%
%TD*%
%TA.AperFunction,SMDPad,CuDef*%
%ADD26RoundRect,0.135000X-0.185000X0.135000X-0.185000X-0.135000X0.185000X-0.135000X0.185000X0.135000X0*%
%TD*%
%TA.AperFunction,SMDPad,CuDef*%
%ADD27RoundRect,0.250000X-0.250000X-0.475000X0.250000X-0.475000X0.250000X0.475000X-0.250000X0.475000X0*%
%TD*%
%TA.AperFunction,SMDPad,CuDef*%
%ADD28O,1.950000X0.570000*%
%TD*%
%TA.AperFunction,SMDPad,CuDef*%
%ADD29RoundRect,0.140000X0.140000X0.170000X-0.140000X0.170000X-0.140000X-0.170000X0.140000X-0.170000X0*%
%TD*%
%TA.AperFunction,SMDPad,CuDef*%
%ADD30R,0.740000X2.400000*%
%TD*%
%TA.AperFunction,SMDPad,CuDef*%
%ADD31RoundRect,0.225000X-0.225000X-0.250000X0.225000X-0.250000X0.225000X0.250000X-0.225000X0.250000X0*%
%TD*%
%TA.AperFunction,SMDPad,CuDef*%
%ADD32R,2.050000X2.240000*%
%TD*%
%TA.AperFunction,SMDPad,CuDef*%
%ADD33RoundRect,0.375000X0.375000X-0.625000X0.375000X0.625000X-0.375000X0.625000X-0.375000X-0.625000X0*%
%TD*%
%TA.AperFunction,SMDPad,CuDef*%
%ADD34RoundRect,0.500000X1.400000X-0.500000X1.400000X0.500000X-1.400000X0.500000X-1.400000X-0.500000X0*%
%TD*%
%TA.AperFunction,SMDPad,CuDef*%
%ADD35R,1.360000X1.230000*%
%TD*%
%TA.AperFunction,SMDPad,CuDef*%
%ADD36RoundRect,0.250000X-0.350000X0.450000X-0.350000X-0.450000X0.350000X-0.450000X0.350000X0.450000X0*%
%TD*%
%TA.AperFunction,SMDPad,CuDef*%
%ADD37RoundRect,0.250000X-0.350000X0.850000X-0.350000X-0.850000X0.350000X-0.850000X0.350000X0.850000X0*%
%TD*%
%TA.AperFunction,SMDPad,CuDef*%
%ADD38RoundRect,0.249997X-2.650003X2.950003X-2.650003X-2.950003X2.650003X-2.950003X2.650003X2.950003X0*%
%TD*%
%TA.AperFunction,ComponentPad*%
%ADD39C,1.520000*%
%TD*%
%TA.AperFunction,SMDPad,CuDef*%
%ADD40RoundRect,0.218750X-0.256250X0.218750X-0.256250X-0.218750X0.256250X-0.218750X0.256250X0.218750X0*%
%TD*%
%TA.AperFunction,ViaPad*%
%ADD41C,0.600000*%
%TD*%
%TA.AperFunction,ViaPad*%
%ADD42C,0.700000*%
%TD*%
%TA.AperFunction,Conductor*%
%ADD43C,0.500000*%
%TD*%
%TA.AperFunction,Conductor*%
%ADD44C,0.300000*%
%TD*%
%TA.AperFunction,Conductor*%
%ADD45C,0.200000*%
%TD*%
G04 APERTURE END LIST*
D10*
%TO.P,C18,1*%
%TO.N,+12V*%
X72100000Y-83050000D03*
%TO.P,C18,2*%
%TO.N,GND*%
X72100000Y-86000000D03*
%TD*%
D11*
%TO.P,C12,1*%
%TO.N,+5V*%
X51300000Y-90900000D03*
%TO.P,C12,2*%
%TO.N,GND*%
X49400000Y-90900000D03*
%TD*%
D12*
%TO.P,R6,1*%
%TO.N,/GPIO_ACC*%
X74580000Y-63400000D03*
%TO.P,R6,2*%
%TO.N,Net-(Q1-B)*%
X75600000Y-63400000D03*
%TD*%
D13*
%TO.P,U1,1,VBAT*%
%TO.N,+3.3V*%
X44137500Y-69050000D03*
%TO.P,U1,2,PC13*%
%TO.N,unconnected-(U1-PC13-Pad2)*%
X44137500Y-69550000D03*
%TO.P,U1,3,PC14*%
%TO.N,unconnected-(U1-PC14-Pad3)*%
X44137500Y-70050000D03*
%TO.P,U1,4,PC15*%
%TO.N,unconnected-(U1-PC15-Pad4)*%
X44137500Y-70550000D03*
%TO.P,U1,5,PD0*%
%TO.N,/HSE_IN*%
X44137500Y-71050000D03*
%TO.P,U1,6,PD1*%
%TO.N,/HSE_OUT*%
X44137500Y-71550000D03*
%TO.P,U1,7,NRST*%
%TO.N,/NRST*%
X44137500Y-72050000D03*
%TO.P,U1,8,VSSA*%
%TO.N,GND*%
X44137500Y-72550000D03*
%TO.P,U1,9,VDDA*%
%TO.N,+3.3VA*%
X44137500Y-73050000D03*
%TO.P,U1,10,PA0*%
%TO.N,unconnected-(U1-PA0-Pad10)*%
X44137500Y-73550000D03*
%TO.P,U1,11,PA1*%
%TO.N,unconnected-(U1-PA1-Pad11)*%
X44137500Y-74050000D03*
%TO.P,U1,12,PA2*%
%TO.N,unconnected-(U1-PA2-Pad12)*%
X44137500Y-74550000D03*
D14*
%TO.P,U1,13,PA3*%
%TO.N,unconnected-(U1-PA3-Pad13)*%
X45550000Y-75962500D03*
%TO.P,U1,14,PA4*%
%TO.N,unconnected-(U1-PA4-Pad14)*%
X46050000Y-75962500D03*
%TO.P,U1,15,PA5*%
%TO.N,unconnected-(U1-PA5-Pad15)*%
X46550000Y-75962500D03*
%TO.P,U1,16,PA6*%
%TO.N,unconnected-(U1-PA6-Pad16)*%
X47050000Y-75962500D03*
%TO.P,U1,17,PA7*%
%TO.N,unconnected-(U1-PA7-Pad17)*%
X47550000Y-75962500D03*
%TO.P,U1,18,PB0*%
%TO.N,/GPIO_ACC*%
X48050000Y-75962500D03*
%TO.P,U1,19,PB1*%
%TO.N,/GPIO_ILL*%
X48550000Y-75962500D03*
%TO.P,U1,20,PB2*%
%TO.N,unconnected-(U1-PB2-Pad20)*%
X49050000Y-75962500D03*
%TO.P,U1,21,PB10*%
%TO.N,unconnected-(U1-PB10-Pad21)*%
X49550000Y-75962500D03*
%TO.P,U1,22,PB11*%
%TO.N,unconnected-(U1-PB11-Pad22)*%
X50050000Y-75962500D03*
%TO.P,U1,23,VSS*%
%TO.N,GND*%
X50550000Y-75962500D03*
%TO.P,U1,24,VDD*%
%TO.N,+3.3V*%
X51050000Y-75962500D03*
D13*
%TO.P,U1,25,PB12*%
%TO.N,unconnected-(U1-PB12-Pad25)*%
X52462500Y-74550000D03*
%TO.P,U1,26,PB13*%
%TO.N,unconnected-(U1-PB13-Pad26)*%
X52462500Y-74050000D03*
%TO.P,U1,27,PB14*%
%TO.N,unconnected-(U1-PB14-Pad27)*%
X52462500Y-73550000D03*
%TO.P,U1,28,PB15*%
%TO.N,unconnected-(U1-PB15-Pad28)*%
X52462500Y-73050000D03*
%TO.P,U1,29,PA8*%
%TO.N,unconnected-(U1-PA8-Pad29)*%
X52462500Y-72550000D03*
%TO.P,U1,30,PA9*%
%TO.N,/USART1_TX*%
X52462500Y-72050000D03*
%TO.P,U1,31,PA10*%
%TO.N,/USART1_RX*%
X52462500Y-71550000D03*
%TO.P,U1,32,PA11*%
%TO.N,/CANRX*%
X52462500Y-71050000D03*
%TO.P,U1,33,PA12*%
%TO.N,/CANTX*%
X52462500Y-70550000D03*
%TO.P,U1,34,PA13*%
%TO.N,/SWDIO*%
X52462500Y-70050000D03*
%TO.P,U1,35,VSS*%
%TO.N,GND*%
X52462500Y-69550000D03*
%TO.P,U1,36,VDD*%
%TO.N,+3.3V*%
X52462500Y-69050000D03*
D14*
%TO.P,U1,37,PA14*%
%TO.N,/SWCLK*%
X51050000Y-67637500D03*
%TO.P,U1,38,PA15*%
%TO.N,unconnected-(U1-PA15-Pad38)*%
X50550000Y-67637500D03*
%TO.P,U1,39,PB3*%
%TO.N,unconnected-(U1-PB3-Pad39)*%
X50050000Y-67637500D03*
%TO.P,U1,40,PB4*%
%TO.N,unconnected-(U1-PB4-Pad40)*%
X49550000Y-67637500D03*
%TO.P,U1,41,PB5*%
%TO.N,/CANSTB*%
X49050000Y-67637500D03*
%TO.P,U1,42,PB6*%
%TO.N,/I2C1_SCL*%
X48550000Y-67637500D03*
%TO.P,U1,43,PB7*%
%TO.N,/I2C1_SCDA*%
X48050000Y-67637500D03*
%TO.P,U1,44,BOOT0*%
%TO.N,/BOOT0*%
X47550000Y-67637500D03*
%TO.P,U1,45,PB8*%
%TO.N,unconnected-(U1-PB8-Pad45)*%
X47050000Y-67637500D03*
%TO.P,U1,46,PB9*%
%TO.N,unconnected-(U1-PB9-Pad46)*%
X46550000Y-67637500D03*
%TO.P,U1,47,VSS*%
%TO.N,GND*%
X46050000Y-67637500D03*
%TO.P,U1,48,VDD*%
%TO.N,+3.3V*%
X45550000Y-67637500D03*
%TD*%
D15*
%TO.P,C11,1*%
%TO.N,/HSE_OUT*%
X40300000Y-73260000D03*
%TO.P,C11,2*%
%TO.N,GND*%
X40300000Y-72300000D03*
%TD*%
D16*
%TO.P,Q2,1,G*%
%TO.N,Net-(Q2-G)*%
X82450000Y-60875000D03*
%TO.P,Q2,2,S*%
%TO.N,+12V*%
X84350000Y-60875000D03*
%TO.P,Q2,3,D*%
%TO.N,/ACC*%
X83400000Y-59000000D03*
%TD*%
%TO.P,Q1,1,B*%
%TO.N,Net-(Q1-B)*%
X77750000Y-62975000D03*
%TO.P,Q1,2,E*%
%TO.N,GND*%
X79650000Y-62975000D03*
%TO.P,Q1,3,C*%
%TO.N,Net-(Q1-C)*%
X78700000Y-61100000D03*
%TD*%
D15*
%TO.P,C9,1*%
%TO.N,/NRST*%
X41200000Y-58680000D03*
%TO.P,C9,2*%
%TO.N,GND*%
X41200000Y-57720000D03*
%TD*%
D17*
%TO.P,R14,1*%
%TO.N,Net-(Q4-G)*%
X78600000Y-78800000D03*
%TO.P,R14,2*%
%TO.N,+12V*%
X77580000Y-78800000D03*
%TD*%
D18*
%TO.P,U6,1,VDD*%
%TO.N,+5V*%
X60050000Y-75350000D03*
%TO.P,U6,2,VSS*%
%TO.N,GND*%
X59400000Y-75350000D03*
%TO.P,U6,3,SCL*%
%TO.N,/I2C1_SCL*%
X58750000Y-75350000D03*
%TO.P,U6,4,SDA*%
%TO.N,/I2C1_SCDA*%
X58750000Y-77250000D03*
%TO.P,U6,5,W*%
%TO.N,/SWC*%
X59400000Y-77250000D03*
%TO.P,U6,6,A*%
%TO.N,Net-(U6-A)*%
X60050000Y-77250000D03*
%TD*%
D15*
%TO.P,C6,1*%
%TO.N,+3.3VA*%
X42300000Y-73460000D03*
%TO.P,C6,2*%
%TO.N,GND*%
X42300000Y-72500000D03*
%TD*%
D17*
%TO.P,R10,1*%
%TO.N,Net-(Q2-G)*%
X86620000Y-62300000D03*
%TO.P,R10,2*%
%TO.N,+12V*%
X85600000Y-62300000D03*
%TD*%
D19*
%TO.P,C13,1*%
%TO.N,+3.3V*%
X44800000Y-84200000D03*
%TO.P,C13,2*%
%TO.N,GND*%
X44800000Y-86100000D03*
%TD*%
D20*
%TO.P,R1,1*%
%TO.N,/SW_BOOT0*%
X37820000Y-65620000D03*
%TO.P,R1,2*%
%TO.N,/BOOT0*%
X37820000Y-64600000D03*
%TD*%
D10*
%TO.P,C16,1*%
%TO.N,+12V*%
X69500000Y-83050000D03*
%TO.P,C16,2*%
%TO.N,GND*%
X69500000Y-86000000D03*
%TD*%
D21*
%TO.P,C2,1*%
%TO.N,+3.3V*%
X45320000Y-65800000D03*
%TO.P,C2,2*%
%TO.N,GND*%
X46280000Y-65800000D03*
%TD*%
D20*
%TO.P,R4,1*%
%TO.N,+3.3V*%
X55200000Y-73600000D03*
%TO.P,R4,2*%
%TO.N,/USART1_TX*%
X55200000Y-72580000D03*
%TD*%
D10*
%TO.P,C17,1*%
%TO.N,+12V*%
X66700000Y-83050000D03*
%TO.P,C17,2*%
%TO.N,GND*%
X66700000Y-86000000D03*
%TD*%
D22*
%TO.P,F1,1*%
%TO.N,+12V*%
X81900000Y-89500000D03*
%TO.P,F1,2*%
%TO.N,VCAR*%
X86175000Y-89500000D03*
%TD*%
D23*
%TO.P,SW1,*%
%TO.N,*%
X35300000Y-61350000D03*
X33090000Y-61350000D03*
X35300000Y-68650000D03*
X33090000Y-68650000D03*
D24*
%TO.P,SW1,1,A*%
%TO.N,GND*%
X35950000Y-62750000D03*
%TO.P,SW1,2,B*%
%TO.N,/SW_BOOT0*%
X35950000Y-65750000D03*
%TO.P,SW1,3,C*%
%TO.N,+3.3V*%
X35950000Y-67250000D03*
%TD*%
D25*
%TO.P,C3,1*%
%TO.N,+3.3V*%
X54400000Y-68320000D03*
%TO.P,C3,2*%
%TO.N,GND*%
X54400000Y-69280000D03*
%TD*%
D26*
%TO.P,R16,1*%
%TO.N,+3.3V*%
X56100000Y-74500000D03*
%TO.P,R16,2*%
%TO.N,/I2C1_SCL*%
X56100000Y-75520000D03*
%TD*%
D27*
%TO.P,C15,1*%
%TO.N,+5V*%
X57900000Y-79800000D03*
%TO.P,C15,2*%
%TO.N,GND*%
X59800000Y-79800000D03*
%TD*%
D12*
%TO.P,R7,1*%
%TO.N,Net-(Q1-B)*%
X78280000Y-65100000D03*
%TO.P,R7,2*%
%TO.N,GND*%
X79300000Y-65100000D03*
%TD*%
D28*
%TO.P,U3,1,TXD*%
%TO.N,/CANTX*%
X63190000Y-68654995D03*
%TO.P,U3,2,GND*%
%TO.N,GND*%
X63190000Y-69934995D03*
%TO.P,U3,3,VCC*%
%TO.N,+5V*%
X63190000Y-71194995D03*
%TO.P,U3,4,RXD*%
%TO.N,/CANRX*%
X63190000Y-72464995D03*
%TO.P,U3,5,SPLIT*%
%TO.N,unconnected-(U3-SPLIT-Pad5)*%
X68610000Y-72464995D03*
%TO.P,U3,6,CANL*%
%TO.N,/CANL*%
X68610000Y-71194995D03*
%TO.P,U3,7,CANH*%
%TO.N,/CANH*%
X68610000Y-69934995D03*
%TO.P,U3,8,STB*%
%TO.N,/CANSTB*%
X68610000Y-68654995D03*
%TD*%
D29*
%TO.P,C4,1*%
%TO.N,+3.3V*%
X51280000Y-77800000D03*
%TO.P,C4,2*%
%TO.N,GND*%
X50320000Y-77800000D03*
%TD*%
D26*
%TO.P,R5,1*%
%TO.N,+5V*%
X61800000Y-75880000D03*
%TO.P,R5,2*%
%TO.N,Net-(U6-A)*%
X61800000Y-76900000D03*
%TD*%
D29*
%TO.P,C8,1*%
%TO.N,+3.3V*%
X42030000Y-77550000D03*
%TO.P,C8,2*%
%TO.N,GND*%
X41070000Y-77550000D03*
%TD*%
D26*
%TO.P,R2,1*%
%TO.N,+3.3V*%
X55800000Y-68300000D03*
%TO.P,R2,2*%
%TO.N,/SWDIO*%
X55800000Y-69320000D03*
%TD*%
D12*
%TO.P,R17,1*%
%TO.N,+3.3V*%
X53080000Y-78100000D03*
%TO.P,R17,2*%
%TO.N,/I2C1_SCDA*%
X54100000Y-78100000D03*
%TD*%
D25*
%TO.P,C1,1*%
%TO.N,+3.3V*%
X42200000Y-68600000D03*
%TO.P,C1,2*%
%TO.N,GND*%
X42200000Y-69560000D03*
%TD*%
D12*
%TO.P,R8,1*%
%TO.N,Net-(Q1-C)*%
X81680000Y-63100000D03*
%TO.P,R8,2*%
%TO.N,Net-(Q2-G)*%
X82700000Y-63100000D03*
%TD*%
D30*
%TO.P,J1,1,VTref*%
%TO.N,+3.3V*%
X67040000Y-55450000D03*
%TO.P,J1,2,SWDIO/TMS*%
%TO.N,/SWDIO*%
X67040000Y-59350000D03*
%TO.P,J1,3,GND*%
%TO.N,GND*%
X65770000Y-55450000D03*
%TO.P,J1,4,SWCLK/TCK*%
%TO.N,/SWCLK*%
X65770000Y-59350000D03*
%TO.P,J1,5,GND*%
%TO.N,GND*%
X64500000Y-55450000D03*
%TO.P,J1,6,SWO/TDO*%
%TO.N,unconnected-(J1-SWO{slash}TDO-Pad6)*%
X64500000Y-59350000D03*
%TO.P,J1,7,KEY*%
%TO.N,unconnected-(J1-KEY-Pad7)*%
X63230000Y-55450000D03*
%TO.P,J1,8,NC/TDI*%
%TO.N,unconnected-(J1-NC{slash}TDI-Pad8)*%
X63230000Y-59350000D03*
%TO.P,J1,9,GNDDetect*%
%TO.N,GND*%
X61960000Y-55450000D03*
%TO.P,J1,10,~{RESET}*%
%TO.N,/NRST*%
X61960000Y-59350000D03*
%TD*%
D31*
%TO.P,C5,1*%
%TO.N,+3.3V*%
X45025000Y-64200000D03*
%TO.P,C5,2*%
%TO.N,GND*%
X46575000Y-64200000D03*
%TD*%
D20*
%TO.P,R11,1*%
%TO.N,/GPIO_ILL*%
X68200000Y-80020000D03*
%TO.P,R11,2*%
%TO.N,Net-(Q3-B)*%
X68200000Y-79000000D03*
%TD*%
D15*
%TO.P,C10,1*%
%TO.N,/HSE_IN*%
X40300000Y-71010000D03*
%TO.P,C10,2*%
%TO.N,GND*%
X40300000Y-70050000D03*
%TD*%
D32*
%TO.P,D1,1,K*%
%TO.N,GND*%
X83900000Y-84400000D03*
%TO.P,D1,2,A*%
%TO.N,+12V*%
X78720000Y-84400000D03*
%TD*%
D33*
%TO.P,U2,1,GND*%
%TO.N,GND*%
X47800000Y-88050000D03*
%TO.P,U2,2,VO*%
%TO.N,+3.3V*%
X50100000Y-88050000D03*
D34*
X50100000Y-81750000D03*
D33*
%TO.P,U2,3,VI*%
%TO.N,+5V*%
X52400000Y-88050000D03*
%TD*%
D12*
%TO.P,R12,1*%
%TO.N,Net-(Q3-B)*%
X70200000Y-80400000D03*
%TO.P,R12,2*%
%TO.N,GND*%
X71220000Y-80400000D03*
%TD*%
D16*
%TO.P,Q4,1,G*%
%TO.N,Net-(Q4-G)*%
X74550000Y-77537500D03*
%TO.P,Q4,2,S*%
%TO.N,+12V*%
X76450000Y-77537500D03*
%TO.P,Q4,3,D*%
%TO.N,/ILL*%
X75500000Y-75662500D03*
%TD*%
D35*
%TO.P,SW2,1,1*%
%TO.N,GND*%
X44600000Y-56120000D03*
%TO.P,SW2,2,2*%
%TO.N,/NRST*%
X44600000Y-60480000D03*
%TD*%
D36*
%TO.P,Y1,1,1*%
%TO.N,/HSE_IN*%
X36850000Y-70600000D03*
%TO.P,Y1,2,2*%
%TO.N,GND*%
X36850000Y-72800000D03*
%TO.P,Y1,3,3*%
%TO.N,/HSE_OUT*%
X38550000Y-72800000D03*
%TO.P,Y1,4,4*%
%TO.N,GND*%
X38550000Y-70600000D03*
%TD*%
D16*
%TO.P,Q3,1,B*%
%TO.N,Net-(Q3-B)*%
X69950000Y-78675000D03*
%TO.P,Q3,2,E*%
%TO.N,GND*%
X71850000Y-78675000D03*
%TO.P,Q3,3,C*%
%TO.N,Net-(Q3-C)*%
X70900000Y-76800000D03*
%TD*%
D19*
%TO.P,C14,1*%
%TO.N,+12V*%
X64100000Y-83700000D03*
%TO.P,C14,2*%
%TO.N,GND*%
X64100000Y-85600000D03*
%TD*%
D17*
%TO.P,R9,1*%
%TO.N,/ACC*%
X83200000Y-57400000D03*
%TO.P,R9,2*%
%TO.N,GND*%
X82180000Y-57400000D03*
%TD*%
D37*
%TO.P,U4,1,VI*%
%TO.N,+12V*%
X61407500Y-82600000D03*
D38*
%TO.P,U4,2,GND*%
%TO.N,GND*%
X59127500Y-88900000D03*
D37*
%TO.P,U4,3,VO*%
%TO.N,+5V*%
X56847500Y-82600000D03*
%TD*%
D39*
%TO.P,U5,1,1*%
%TO.N,/USART1_TX*%
X84100000Y-66100000D03*
%TO.P,U5,2,2*%
%TO.N,GND*%
X82100000Y-66100000D03*
%TO.P,U5,3,3*%
%TO.N,unconnected-(U5-Pad3)*%
X84100000Y-68100000D03*
%TO.P,U5,4,4*%
%TO.N,/USART1_RX*%
X82100000Y-68100000D03*
%TO.P,U5,5,5*%
%TO.N,unconnected-(U5-Pad5)*%
X84100000Y-70100000D03*
%TO.P,U5,6,6*%
%TO.N,/SWCLK*%
X82100000Y-70100000D03*
%TO.P,U5,7,7*%
%TO.N,/SWC*%
X84100000Y-72100000D03*
%TO.P,U5,8,8*%
%TO.N,/SWDIO*%
X82100000Y-72100000D03*
%TO.P,U5,9,9*%
%TO.N,unconnected-(U5-Pad9)*%
X84100000Y-74100000D03*
%TO.P,U5,10,10*%
%TO.N,unconnected-(U5-Pad10)*%
X82100000Y-74100000D03*
%TO.P,U5,11,11*%
%TO.N,/ACC*%
X84100000Y-76100000D03*
%TO.P,U5,12,12*%
%TO.N,/ILL*%
X82100000Y-76100000D03*
%TO.P,U5,13,13*%
%TO.N,/CANL*%
X84100000Y-78100000D03*
%TO.P,U5,14,14*%
%TO.N,/CANH*%
X82100000Y-78100000D03*
%TO.P,U5,15,15*%
%TO.N,VCAR*%
X84100000Y-80100000D03*
%TO.P,U5,16,16*%
%TO.N,GND*%
X82100000Y-80100000D03*
%TD*%
D40*
%TO.P,FB1,1*%
%TO.N,+3.3VA*%
X43300000Y-76050000D03*
%TO.P,FB1,2*%
%TO.N,+3.3V*%
X43300000Y-77625000D03*
%TD*%
D29*
%TO.P,C7,1*%
%TO.N,+3.3VA*%
X42050000Y-76050000D03*
%TO.P,C7,2*%
%TO.N,GND*%
X41090000Y-76050000D03*
%TD*%
D17*
%TO.P,R15,1*%
%TO.N,/ILL*%
X74110000Y-74900000D03*
%TO.P,R15,2*%
%TO.N,GND*%
X73090000Y-74900000D03*
%TD*%
D20*
%TO.P,R3,1*%
%TO.N,+3.3V*%
X56500000Y-73620000D03*
%TO.P,R3,2*%
%TO.N,/USART1_RX*%
X56500000Y-72600000D03*
%TD*%
D12*
%TO.P,R13,1*%
%TO.N,Net-(Q3-C)*%
X73680000Y-80400000D03*
%TO.P,R13,2*%
%TO.N,Net-(Q4-G)*%
X74700000Y-80400000D03*
%TD*%
D41*
%TO.N,+3.3V*%
X52800000Y-68000000D03*
D42*
X43700000Y-65800000D03*
X42400000Y-67100000D03*
D41*
X54200000Y-73600000D03*
X52700000Y-62300000D03*
D42*
%TO.N,GND*%
X42200000Y-70360000D03*
X50400000Y-69800000D03*
X71400000Y-74800000D03*
D41*
X72100000Y-87400000D03*
D42*
X47200000Y-91000000D03*
X49400000Y-77800000D03*
X44300000Y-88000000D03*
X36900000Y-74300000D03*
X40100000Y-77600000D03*
D41*
X66700000Y-87200000D03*
X63600000Y-88900000D03*
D42*
X61600000Y-79800000D03*
X46554000Y-69100000D03*
X38620000Y-62800000D03*
X59463891Y-75913885D03*
X80600000Y-63600000D03*
X80400000Y-57400000D03*
X61300000Y-69400000D03*
X45600000Y-72800000D03*
D41*
X64100000Y-86900000D03*
X69500000Y-87400000D03*
D42*
X72700000Y-79100000D03*
D41*
X78150000Y-81550000D03*
X59600000Y-55400000D03*
%TO.N,/NRST*%
X45800000Y-71000000D03*
X43800000Y-64700000D03*
D42*
%TO.N,/HSE_OUT*%
X41400000Y-71800000D03*
X41300000Y-73400000D03*
D41*
%TO.N,+5V*%
X61400000Y-71200000D03*
X61400000Y-74900000D03*
%TO.N,/SWCLK*%
X71000000Y-65600000D03*
X67400000Y-62000000D03*
D42*
%TO.N,/I2C1_SCL*%
X50800000Y-73200000D03*
X55800000Y-76300000D03*
%TO.N,/GPIO_ACC*%
X47200000Y-70900000D03*
X48400000Y-65000000D03*
D41*
%TO.N,+12V*%
X86500000Y-60000000D03*
X77900000Y-76800000D03*
D42*
X74400000Y-82300000D03*
%TO.N,/CANSTB*%
X66400000Y-66200000D03*
X66500000Y-68800000D03*
%TO.N,/USART1_RX*%
X76500000Y-68800000D03*
X72900000Y-72400000D03*
%TO.N,/I2C1_SCDA*%
X49755025Y-73144975D03*
X55000000Y-77000000D03*
D41*
%TO.N,/SWDIO*%
X73600000Y-68100000D03*
X68750000Y-60850000D03*
D42*
%TO.N,/USART1_TX*%
X50900000Y-65200000D03*
X50800000Y-70900000D03*
%TO.N,/GPIO_ILL*%
X57300000Y-75400000D03*
X48600000Y-79100000D03*
%TO.N,/ACC*%
X86600000Y-73700000D03*
%TO.N,/ILL*%
X76000000Y-74500000D03*
%TO.N,/CANL*%
X79600000Y-76700000D03*
%TO.N,/SWC*%
X61800000Y-77800000D03*
X63500000Y-79600000D03*
X77000000Y-81300000D03*
%TD*%
D43*
%TO.N,+3.3V*%
X51280000Y-80570000D02*
X51280000Y-77800000D01*
D44*
X70000000Y-61000000D02*
X68200000Y-62800000D01*
D43*
X43300000Y-82700000D02*
X44800000Y-84200000D01*
X45025000Y-64200000D02*
X45025000Y-65505000D01*
D44*
X38070000Y-67250000D02*
X39420000Y-68600000D01*
D43*
X47250000Y-81750000D02*
X44800000Y-84200000D01*
D44*
X55200000Y-74500000D02*
X55200000Y-73600000D01*
X45550000Y-67637500D02*
X45537500Y-67637500D01*
X67040000Y-55450000D02*
X70000000Y-58410000D01*
X39420000Y-68600000D02*
X42420000Y-68600000D01*
X45550000Y-67637500D02*
X45550000Y-66750000D01*
X51050000Y-75962500D02*
X51200000Y-76112500D01*
X42030000Y-77550000D02*
X43225000Y-77550000D01*
D45*
X56100000Y-74020000D02*
X56500000Y-73620000D01*
D44*
X52462500Y-69050000D02*
X52850000Y-69050000D01*
X44137500Y-69050000D02*
X43250000Y-69050000D01*
X55200000Y-73600000D02*
X54200000Y-73600000D01*
X46925000Y-62300000D02*
X45025000Y-64200000D01*
X45320000Y-66520000D02*
X45320000Y-65800000D01*
X35950000Y-67250000D02*
X38070000Y-67250000D01*
X53200000Y-62800000D02*
X52700000Y-62300000D01*
D43*
X50100000Y-81750000D02*
X51280000Y-80570000D01*
D44*
X53580000Y-68320000D02*
X54400000Y-68320000D01*
X45537500Y-67637500D02*
X43700000Y-65800000D01*
X70000000Y-58410000D02*
X70000000Y-61000000D01*
D45*
X52200000Y-78100000D02*
X51900000Y-77800000D01*
D44*
X52700000Y-62300000D02*
X46925000Y-62300000D01*
D45*
X53080000Y-78100000D02*
X52200000Y-78100000D01*
D44*
X53120000Y-68320000D02*
X52800000Y-68000000D01*
D43*
X50350000Y-88050000D02*
X50400000Y-88100000D01*
D44*
X51200000Y-76112500D02*
X51200000Y-77720000D01*
X45550000Y-66750000D02*
X45320000Y-66520000D01*
X51280000Y-77800000D02*
X51900000Y-77800000D01*
X51900000Y-77800000D02*
X55200000Y-74500000D01*
X42800000Y-68600000D02*
X42200000Y-68600000D01*
X56500000Y-73620000D02*
X55220000Y-73620000D01*
D43*
X50100000Y-88050000D02*
X50350000Y-88050000D01*
D44*
X43250000Y-69050000D02*
X42800000Y-68600000D01*
D45*
X56100000Y-74500000D02*
X56100000Y-74020000D01*
D44*
X68200000Y-62800000D02*
X53200000Y-62800000D01*
X54400000Y-68320000D02*
X53120000Y-68320000D01*
X51200000Y-77720000D02*
X51280000Y-77800000D01*
D43*
X45025000Y-65505000D02*
X45320000Y-65800000D01*
D44*
X55780000Y-68320000D02*
X55800000Y-68300000D01*
D43*
X50100000Y-81750000D02*
X47250000Y-81750000D01*
D44*
X43600000Y-65700000D02*
X43700000Y-65800000D01*
X42200000Y-68600000D02*
X42200000Y-67300000D01*
X42200000Y-67300000D02*
X42400000Y-67100000D01*
X55200000Y-73600000D02*
X55220000Y-73620000D01*
D43*
X43300000Y-77625000D02*
X43300000Y-82700000D01*
D44*
X52850000Y-69050000D02*
X53580000Y-68320000D01*
D43*
X50100000Y-81750000D02*
X50100000Y-88050000D01*
D44*
X54400000Y-68320000D02*
X55780000Y-68320000D01*
X43225000Y-77550000D02*
X43300000Y-77625000D01*
D43*
%TO.N,GND*%
X40890001Y-57720000D02*
X41200000Y-57720000D01*
D44*
X52462500Y-69550000D02*
X54130000Y-69550000D01*
X44137500Y-72550000D02*
X42350000Y-72550000D01*
D45*
X50320000Y-77800000D02*
X49400000Y-77800000D01*
D43*
X44300000Y-86600000D02*
X44300000Y-88000000D01*
X72100000Y-86000000D02*
X72100000Y-87400000D01*
D44*
X41090000Y-76050000D02*
X41090000Y-77530000D01*
X63190000Y-69934995D02*
X61834995Y-69934995D01*
X71850000Y-79770000D02*
X71220000Y-80400000D01*
D43*
X61960000Y-54248000D02*
X62409000Y-53799000D01*
D44*
X44137500Y-72550000D02*
X45350000Y-72550000D01*
D43*
X38570000Y-62750000D02*
X38620000Y-62800000D01*
X44600000Y-56120000D02*
X42800000Y-56120000D01*
D44*
X40500000Y-72500000D02*
X40300000Y-72300000D01*
X41070000Y-77550000D02*
X40150000Y-77550000D01*
D43*
X62409000Y-53799000D02*
X64051000Y-53799000D01*
D44*
X73090000Y-74900000D02*
X71500000Y-74900000D01*
D43*
X47800000Y-88050000D02*
X47800000Y-89300000D01*
D44*
X79650000Y-62975000D02*
X79975000Y-62975000D01*
D43*
X64100000Y-85600000D02*
X64100000Y-86900000D01*
X79600000Y-80100000D02*
X82100000Y-80100000D01*
D44*
X50650000Y-69550000D02*
X50400000Y-69800000D01*
X61834995Y-69934995D02*
X61300000Y-69400000D01*
D43*
X61960000Y-55450000D02*
X59650000Y-55450000D01*
D44*
X79975000Y-62975000D02*
X80600000Y-63600000D01*
X41090000Y-77530000D02*
X41070000Y-77550000D01*
X46050000Y-68596000D02*
X46554000Y-69100000D01*
D43*
X42800000Y-56120000D02*
X41200000Y-57720000D01*
D44*
X79650000Y-64750000D02*
X79300000Y-65100000D01*
X42200000Y-72500000D02*
X40500000Y-72500000D01*
X40790000Y-69560000D02*
X40300000Y-70050000D01*
D43*
X38620000Y-62800000D02*
X38620000Y-59990001D01*
X61960000Y-55450000D02*
X61960000Y-54248000D01*
X39100000Y-70050000D02*
X40300000Y-70050000D01*
X66700000Y-86000000D02*
X66700000Y-87200000D01*
X59127500Y-88900000D02*
X63600000Y-88900000D01*
D44*
X42200000Y-69560000D02*
X40790000Y-69560000D01*
X71850000Y-78675000D02*
X71850000Y-79770000D01*
X36850000Y-74250000D02*
X36900000Y-74300000D01*
D43*
X46575000Y-64200000D02*
X46575000Y-65505000D01*
D44*
X79650000Y-62975000D02*
X79650000Y-64750000D01*
D43*
X49400000Y-90900000D02*
X47300000Y-90900000D01*
D44*
X46280000Y-66520000D02*
X46280000Y-65800000D01*
X59400000Y-75350000D02*
X59400000Y-75849994D01*
D43*
X64500000Y-55450000D02*
X65770000Y-55450000D01*
X47300000Y-90900000D02*
X47200000Y-91000000D01*
D44*
X54130000Y-69550000D02*
X54400000Y-69280000D01*
D43*
X82100000Y-80100000D02*
X82100000Y-82500000D01*
D44*
X46050000Y-67637500D02*
X46050000Y-66750000D01*
D43*
X83900000Y-84300000D02*
X83900000Y-84400000D01*
X38620000Y-59990001D02*
X40890001Y-57720000D01*
X38550000Y-70600000D02*
X39100000Y-70050000D01*
X78150000Y-81550000D02*
X79600000Y-80100000D01*
D44*
X42350000Y-72550000D02*
X42300000Y-72500000D01*
D43*
X64051000Y-53799000D02*
X64500000Y-54248000D01*
D44*
X59400000Y-75849994D02*
X59463891Y-75913885D01*
X82180000Y-57400000D02*
X80400000Y-57400000D01*
X46050000Y-67637500D02*
X46050000Y-68596000D01*
X36850000Y-72800000D02*
X36850000Y-74250000D01*
D43*
X59650000Y-55450000D02*
X59600000Y-55400000D01*
D44*
X42200000Y-69560000D02*
X42200000Y-70360000D01*
X45350000Y-72550000D02*
X45600000Y-72800000D01*
X72275000Y-78675000D02*
X72700000Y-79100000D01*
X71500000Y-74900000D02*
X71400000Y-74800000D01*
X71850000Y-78675000D02*
X72275000Y-78675000D01*
D45*
X50320000Y-77800000D02*
X50550000Y-77570000D01*
D43*
X64500000Y-54248000D02*
X64500000Y-55450000D01*
X47800000Y-88050000D02*
X46750000Y-88050000D01*
X35950000Y-62750000D02*
X38570000Y-62750000D01*
D45*
X50550000Y-77570000D02*
X50550000Y-75962500D01*
D43*
X46750000Y-88050000D02*
X44800000Y-86100000D01*
X44800000Y-86100000D02*
X44300000Y-86600000D01*
X46575000Y-65505000D02*
X46280000Y-65800000D01*
X69500000Y-86000000D02*
X69500000Y-87400000D01*
X82100000Y-82500000D02*
X83900000Y-84300000D01*
X59800000Y-79800000D02*
X61600000Y-79800000D01*
D44*
X40150000Y-77550000D02*
X40100000Y-77600000D01*
X46050000Y-66750000D02*
X46280000Y-66520000D01*
D43*
X47800000Y-89300000D02*
X49400000Y-90900000D01*
D44*
X52462500Y-69550000D02*
X50650000Y-69550000D01*
%TO.N,+3.3VA*%
X43300000Y-76050000D02*
X42050000Y-76050000D01*
X42300000Y-73460000D02*
X42640000Y-73460000D01*
X42300000Y-73460000D02*
X42300000Y-75800000D01*
X42640000Y-73460000D02*
X43050000Y-73050000D01*
X42300000Y-75800000D02*
X42050000Y-76050000D01*
X43050000Y-73050000D02*
X44137500Y-73050000D01*
%TO.N,/NRST*%
X45800000Y-71300000D02*
X45800000Y-71000000D01*
D43*
X41200000Y-59500000D02*
X42180000Y-60480000D01*
X41200000Y-58680000D02*
X41200000Y-59500000D01*
X42180000Y-60480000D02*
X44600000Y-60480000D01*
D44*
X43800000Y-64700000D02*
X43800000Y-61280000D01*
X44137500Y-72050000D02*
X45050000Y-72050000D01*
X43800000Y-61280000D02*
X44600000Y-60480000D01*
X45050000Y-72050000D02*
X45800000Y-71300000D01*
X61960000Y-59350000D02*
X45730000Y-59350000D01*
X45730000Y-59350000D02*
X44600000Y-60480000D01*
D45*
%TO.N,/HSE_IN*%
X40300000Y-71010000D02*
X39510000Y-71800000D01*
X44097500Y-71010000D02*
X44137500Y-71050000D01*
X40300000Y-71010000D02*
X44097500Y-71010000D01*
X39510000Y-71800000D02*
X38050000Y-71800000D01*
X38050000Y-71800000D02*
X36850000Y-70600000D01*
%TO.N,/HSE_OUT*%
X40300000Y-73260000D02*
X39010000Y-73260000D01*
D44*
X41650000Y-71550000D02*
X41400000Y-71800000D01*
X41300000Y-73400000D02*
X40440000Y-73400000D01*
X44137500Y-71550000D02*
X41650000Y-71550000D01*
D45*
X39010000Y-73260000D02*
X38550000Y-72800000D01*
D44*
X40440000Y-73400000D02*
X40300000Y-73260000D01*
%TO.N,+5V*%
X60580000Y-75880000D02*
X60050000Y-75350000D01*
X61405005Y-71194995D02*
X61400000Y-71200000D01*
D43*
X56847500Y-82600000D02*
X54700000Y-82600000D01*
D44*
X58100000Y-78500000D02*
X57900000Y-78700000D01*
X61800000Y-75880000D02*
X62780000Y-75880000D01*
D43*
X57900000Y-81547500D02*
X56847500Y-82600000D01*
X57900000Y-79800000D02*
X57900000Y-81547500D01*
X52400000Y-84900000D02*
X52400000Y-88050000D01*
D44*
X61400000Y-74900000D02*
X60500000Y-74900000D01*
X63300000Y-78200000D02*
X63000000Y-78500000D01*
D43*
X54700000Y-82600000D02*
X52400000Y-84900000D01*
D44*
X57900000Y-78700000D02*
X57900000Y-79800000D01*
D43*
X56847500Y-82652500D02*
X56800000Y-82700000D01*
D44*
X60500000Y-74900000D02*
X60050000Y-75350000D01*
D43*
X56847500Y-82600000D02*
X56847500Y-82652500D01*
D44*
X63000000Y-78500000D02*
X58100000Y-78500000D01*
X61800000Y-75880000D02*
X60580000Y-75880000D01*
X62780000Y-75880000D02*
X63300000Y-76400000D01*
D43*
X52400000Y-89800000D02*
X51300000Y-90900000D01*
X52400000Y-88050000D02*
X52400000Y-89800000D01*
D44*
X63300000Y-76400000D02*
X63300000Y-78200000D01*
X63190000Y-71194995D02*
X61405005Y-71194995D01*
%TO.N,/BOOT0*%
X45226000Y-68796466D02*
X41029534Y-64600000D01*
X47550000Y-69450000D02*
X47100000Y-69900000D01*
X45900000Y-69900000D02*
X45226000Y-69226000D01*
X47550000Y-67637500D02*
X47550000Y-69450000D01*
X47100000Y-69900000D02*
X45900000Y-69900000D01*
X45226000Y-69226000D02*
X45226000Y-68796466D01*
X41029534Y-64600000D02*
X37820000Y-64600000D01*
%TO.N,/SW_BOOT0*%
X37820000Y-65620000D02*
X36080000Y-65620000D01*
X36080000Y-65620000D02*
X35950000Y-65750000D01*
%TO.N,/SWCLK*%
X73695607Y-67200000D02*
X76595607Y-70100000D01*
X70900000Y-67200000D02*
X73695607Y-67200000D01*
X51487500Y-67200000D02*
X70900000Y-67200000D01*
X71000000Y-65600000D02*
X70900000Y-65700000D01*
X70900000Y-65700000D02*
X70900000Y-67200000D01*
X76595607Y-70100000D02*
X82100000Y-70100000D01*
X65770000Y-60370000D02*
X67400000Y-62000000D01*
X65770000Y-59350000D02*
X65770000Y-60370000D01*
X51050000Y-67637500D02*
X51487500Y-67200000D01*
%TO.N,/I2C1_SCL*%
X48550000Y-70950000D02*
X50800000Y-73200000D01*
X48550000Y-67637500D02*
X48550000Y-70950000D01*
X55800000Y-76300000D02*
X57800000Y-76300000D01*
X55800000Y-76300000D02*
X55800000Y-75820000D01*
X57800000Y-76300000D02*
X58750000Y-75350000D01*
X55800000Y-75820000D02*
X56100000Y-75520000D01*
%TO.N,/GPIO_ACC*%
X47200000Y-71700000D02*
X47200000Y-70900000D01*
X48050000Y-75962500D02*
X48050000Y-72550000D01*
X48050000Y-72550000D02*
X47200000Y-71700000D01*
X48400000Y-64900000D02*
X48400000Y-65000000D01*
X49900000Y-63400000D02*
X48400000Y-64900000D01*
X74580000Y-63400000D02*
X49900000Y-63400000D01*
D43*
%TO.N,+12V*%
X66700000Y-83050000D02*
X64750000Y-83050000D01*
X64750000Y-83050000D02*
X64100000Y-83700000D01*
D44*
X86500000Y-60000000D02*
X85625000Y-60875000D01*
D43*
X77370000Y-83050000D02*
X78720000Y-84400000D01*
X74500000Y-82400000D02*
X74400000Y-82300000D01*
D45*
X76450000Y-77670000D02*
X77580000Y-78800000D01*
D43*
X72100000Y-83050000D02*
X74500000Y-83050000D01*
D44*
X77900000Y-76800000D02*
X77187500Y-76800000D01*
D45*
X84350000Y-60875000D02*
X84350000Y-61050000D01*
D43*
X66700000Y-83050000D02*
X72100000Y-83050000D01*
D45*
X76450000Y-77537500D02*
X76450000Y-77670000D01*
D43*
X61407500Y-82600000D02*
X63000000Y-82600000D01*
D45*
X84350000Y-61050000D02*
X85600000Y-62300000D01*
D44*
X85625000Y-60875000D02*
X84350000Y-60875000D01*
D43*
X74500000Y-83050000D02*
X77370000Y-83050000D01*
X63000000Y-82600000D02*
X64100000Y-83700000D01*
D44*
X77187500Y-76800000D02*
X76450000Y-77537500D01*
D43*
X81900000Y-87580000D02*
X78720000Y-84400000D01*
X74500000Y-83050000D02*
X74500000Y-82400000D01*
X81900000Y-89500000D02*
X81900000Y-87580000D01*
D44*
%TO.N,Net-(Q1-B)*%
X75600000Y-63400000D02*
X77325000Y-63400000D01*
X77750000Y-62975000D02*
X77750000Y-64570000D01*
X77750000Y-64570000D02*
X78280000Y-65100000D01*
X77325000Y-63400000D02*
X77750000Y-62975000D01*
%TO.N,/CANSTB*%
X66200000Y-66000000D02*
X49200000Y-66000000D01*
X49050000Y-66150000D02*
X49050000Y-67637500D01*
X68445005Y-68654995D02*
X68400000Y-68700000D01*
X68400000Y-68700000D02*
X66600000Y-68700000D01*
X66600000Y-68700000D02*
X66500000Y-68800000D01*
X68610000Y-68654995D02*
X68445005Y-68654995D01*
X66400000Y-66200000D02*
X66200000Y-66000000D01*
X49200000Y-66000000D02*
X49050000Y-66150000D01*
%TO.N,/USART1_RX*%
X52462500Y-71550000D02*
X55450000Y-71550000D01*
X59900000Y-73500000D02*
X59000000Y-72600000D01*
X59000000Y-72600000D02*
X56500000Y-72600000D01*
X71800000Y-73500000D02*
X59900000Y-73500000D01*
X82100000Y-68100000D02*
X77200000Y-68100000D01*
X77200000Y-68100000D02*
X76500000Y-68800000D01*
X55450000Y-71550000D02*
X56500000Y-72600000D01*
X72900000Y-72400000D02*
X71800000Y-73500000D01*
D45*
%TO.N,/I2C1_SCDA*%
X54100000Y-78100000D02*
X54800000Y-78100000D01*
D44*
X48200000Y-71400000D02*
X49755025Y-72955025D01*
X48050000Y-71250000D02*
X48200000Y-71400000D01*
D45*
X55000000Y-77900000D02*
X55000000Y-77000000D01*
D44*
X55000000Y-77000000D02*
X58500000Y-77000000D01*
X58500000Y-77000000D02*
X58750000Y-77250000D01*
D45*
X54800000Y-78100000D02*
X55000000Y-77900000D01*
D44*
X49755025Y-72955025D02*
X49755025Y-73144975D01*
X48050000Y-67637500D02*
X48050000Y-71250000D01*
%TO.N,/SWDIO*%
X72500000Y-67900000D02*
X73550000Y-68950000D01*
X57220000Y-67900000D02*
X72500000Y-67900000D01*
X76700000Y-72100000D02*
X82100000Y-72100000D01*
X68540000Y-60850000D02*
X68750000Y-60850000D01*
X55070000Y-70050000D02*
X55800000Y-69320000D01*
X73600000Y-68100000D02*
X73600000Y-68900000D01*
X55800000Y-69320000D02*
X57220000Y-67900000D01*
X67040000Y-59350000D02*
X68540000Y-60850000D01*
X73550000Y-68950000D02*
X76700000Y-72100000D01*
X73600000Y-68900000D02*
X73550000Y-68950000D01*
X52462500Y-70050000D02*
X55070000Y-70050000D01*
%TO.N,/USART1_TX*%
X50800000Y-71229534D02*
X51620466Y-72050000D01*
X52462500Y-72050000D02*
X54670000Y-72050000D01*
X50800000Y-70900000D02*
X50800000Y-71229534D01*
X74000000Y-65100000D02*
X73500000Y-64600000D01*
X51620466Y-72050000D02*
X52462500Y-72050000D01*
X79640050Y-65771000D02*
X74671000Y-65771000D01*
X74671000Y-65771000D02*
X74000000Y-65100000D01*
X52100000Y-64600000D02*
X51500000Y-64600000D01*
X73500000Y-64600000D02*
X52100000Y-64600000D01*
X54670000Y-72050000D02*
X55200000Y-72580000D01*
X80800000Y-64611050D02*
X79640050Y-65771000D01*
X80800000Y-64500000D02*
X80800000Y-64611050D01*
X83900000Y-65900000D02*
X82500000Y-64500000D01*
X51500000Y-64600000D02*
X50900000Y-65200000D01*
X82500000Y-64500000D02*
X80800000Y-64500000D01*
%TO.N,/GPIO_ILL*%
X62380000Y-74200000D02*
X68200000Y-80020000D01*
X57800000Y-74200000D02*
X62380000Y-74200000D01*
X57300000Y-74700000D02*
X57800000Y-74200000D01*
X48550000Y-75962500D02*
X48550000Y-79050000D01*
X57300000Y-75400000D02*
X57300000Y-74700000D01*
X48550000Y-79050000D02*
X48600000Y-79100000D01*
%TO.N,Net-(Q1-C)*%
X79680000Y-61100000D02*
X81680000Y-63100000D01*
X78700000Y-61100000D02*
X79680000Y-61100000D01*
%TO.N,Net-(Q2-G)*%
X85820000Y-63100000D02*
X86620000Y-62300000D01*
X82700000Y-63100000D02*
X85820000Y-63100000D01*
D45*
X82450000Y-60875000D02*
X82450000Y-62850000D01*
X82450000Y-62850000D02*
X82700000Y-63100000D01*
D44*
%TO.N,/ACC*%
X87700000Y-72600000D02*
X86600000Y-73700000D01*
D45*
X83400000Y-59000000D02*
X83400000Y-57600000D01*
D44*
X85700000Y-57400000D02*
X87700000Y-59400000D01*
X87700000Y-59400000D02*
X87700000Y-72600000D01*
D45*
X83400000Y-57600000D02*
X83200000Y-57400000D01*
D44*
X83200000Y-57400000D02*
X85700000Y-57400000D01*
%TO.N,Net-(Q3-B)*%
X69625000Y-79000000D02*
X69950000Y-78675000D01*
X69925000Y-78675000D02*
X69900000Y-78700000D01*
X69950000Y-78675000D02*
X69925000Y-78675000D01*
X69900000Y-80100000D02*
X70200000Y-80400000D01*
X69900000Y-78700000D02*
X69900000Y-80100000D01*
X68200000Y-79000000D02*
X69625000Y-79000000D01*
%TO.N,Net-(Q3-C)*%
X70900000Y-76800000D02*
X72400000Y-76800000D01*
X72400000Y-76800000D02*
X73680000Y-78080000D01*
X73680000Y-78080000D02*
X73680000Y-80400000D01*
%TO.N,Net-(Q4-G)*%
X77400000Y-80400000D02*
X78600000Y-79200000D01*
X78600000Y-79200000D02*
X78600000Y-78800000D01*
X74700000Y-80400000D02*
X77400000Y-80400000D01*
D45*
X74550000Y-77537500D02*
X74550000Y-80250000D01*
X74550000Y-80250000D02*
X74700000Y-80400000D01*
%TO.N,/ILL*%
X75500000Y-75662500D02*
X75500000Y-75000000D01*
D44*
X74510000Y-74500000D02*
X74110000Y-74900000D01*
D45*
X75500000Y-75000000D02*
X76000000Y-74500000D01*
D44*
X76000000Y-74500000D02*
X74510000Y-74500000D01*
%TO.N,/CANRX*%
X59664190Y-71050000D02*
X61079185Y-72464995D01*
X61079185Y-72464995D02*
X63190000Y-72464995D01*
X52462500Y-71050000D02*
X59664190Y-71050000D01*
%TO.N,/CANTX*%
X58045005Y-68654995D02*
X63190000Y-68654995D01*
X56150000Y-70550000D02*
X58045005Y-68654995D01*
X52462500Y-70550000D02*
X56150000Y-70550000D01*
%TO.N,/CANH*%
X68610000Y-69934995D02*
X73934995Y-69934995D01*
X73934995Y-69934995D02*
X82100000Y-78100000D01*
%TO.N,/CANL*%
X74094995Y-71194995D02*
X75000000Y-72100000D01*
X68610000Y-71194995D02*
X74094995Y-71194995D01*
X75000000Y-72100000D02*
X79600000Y-76700000D01*
%TO.N,/SWC*%
X59400000Y-77250000D02*
X59400000Y-77565582D01*
X63500000Y-79600000D02*
X65200000Y-81300000D01*
X59760418Y-77926000D02*
X61674000Y-77926000D01*
X61674000Y-77926000D02*
X61800000Y-77800000D01*
X65200000Y-81300000D02*
X77000000Y-81300000D01*
X59400000Y-77565582D02*
X59760418Y-77926000D01*
D43*
%TO.N,VCAR*%
X86175000Y-82175000D02*
X84100000Y-80100000D01*
X86175000Y-89500000D02*
X86175000Y-82175000D01*
D45*
%TO.N,Net-(U6-A)*%
X60400000Y-76900000D02*
X60050000Y-77250000D01*
X61800000Y-76900000D02*
X60400000Y-76900000D01*
%TD*%
%TA.AperFunction,Conductor*%
%TO.N,GND*%
G36*
X46427027Y-85314157D02*
G01*
X48461757Y-86379968D01*
X48512009Y-86428512D01*
X48517533Y-86439450D01*
X48853147Y-87194582D01*
X48862386Y-87263838D01*
X48860169Y-87274867D01*
X48852401Y-87306103D01*
X48852401Y-87306105D01*
X48852400Y-87306111D01*
X48849500Y-87348877D01*
X48849500Y-87348879D01*
X48849500Y-88751122D01*
X48849501Y-88751125D01*
X48852399Y-88793886D01*
X48852399Y-88793887D01*
X48898359Y-88978692D01*
X48972570Y-89128327D01*
X48985353Y-89177790D01*
X48999999Y-89499999D01*
X49000000Y-89500000D01*
X50214216Y-89873605D01*
X50272501Y-89912134D01*
X50300703Y-89976059D01*
X50301725Y-89989737D01*
X50307463Y-90288111D01*
X50306844Y-90303096D01*
X50299500Y-90374979D01*
X50299500Y-91425001D01*
X50299501Y-91425019D01*
X50310000Y-91527796D01*
X50310001Y-91527799D01*
X50326706Y-91578210D01*
X50332977Y-91614830D01*
X50347501Y-92370104D01*
X50329109Y-92437509D01*
X50277195Y-92484271D01*
X50220128Y-92496441D01*
X46755999Y-92401534D01*
X46689524Y-92380021D01*
X46664138Y-92356966D01*
X43228741Y-88234489D01*
X43200945Y-88170386D01*
X43200000Y-88155106D01*
X43200000Y-85424000D01*
X43219685Y-85356961D01*
X43272489Y-85311206D01*
X43324000Y-85300000D01*
X46369490Y-85300000D01*
X46427027Y-85314157D01*
G37*
%TD.AperFunction*%
%TD*%
%TA.AperFunction,Conductor*%
%TO.N,GND*%
G36*
X73243039Y-85019685D02*
G01*
X73288794Y-85072489D01*
X73300000Y-85124000D01*
X73300000Y-89076000D01*
X73280315Y-89143039D01*
X73227511Y-89188794D01*
X73176000Y-89200000D01*
X66299999Y-89200000D01*
X63737223Y-92551324D01*
X63680864Y-92592620D01*
X63638723Y-92600000D01*
X55124000Y-92600000D01*
X55056961Y-92580315D01*
X55011206Y-92527511D01*
X55000000Y-92476000D01*
X55000000Y-85124000D01*
X55019685Y-85056961D01*
X55072489Y-85011206D01*
X55124000Y-85000000D01*
X73176000Y-85000000D01*
X73243039Y-85019685D01*
G37*
%TD.AperFunction*%
%TD*%
%TA.AperFunction,Conductor*%
%TO.N,+12V*%
G36*
X63628956Y-81116891D02*
G01*
X64738276Y-81763994D01*
X64763471Y-81783417D01*
X64785331Y-81805277D01*
X64785332Y-81805278D01*
X64864427Y-81858127D01*
X64864428Y-81858127D01*
X64891873Y-81876465D01*
X65010256Y-81925501D01*
X65010260Y-81925501D01*
X65010261Y-81925502D01*
X65135928Y-81950500D01*
X65135931Y-81950500D01*
X76405068Y-81950500D01*
X76472107Y-81970185D01*
X76473959Y-81971398D01*
X76597137Y-82053703D01*
X76751918Y-82117816D01*
X76916228Y-82150499D01*
X76916232Y-82150500D01*
X76916233Y-82150500D01*
X77083768Y-82150500D01*
X77083769Y-82150499D01*
X77248082Y-82117816D01*
X77402863Y-82053703D01*
X77402862Y-82053703D01*
X77408491Y-82051372D01*
X77409397Y-82053561D01*
X77467512Y-82041442D01*
X77532765Y-82066420D01*
X77545285Y-82077364D01*
X77639707Y-82171786D01*
X77639711Y-82171789D01*
X77770814Y-82259390D01*
X77770827Y-82259397D01*
X77916498Y-82319735D01*
X77916503Y-82319737D01*
X78071153Y-82350499D01*
X78071156Y-82350500D01*
X78071158Y-82350500D01*
X78228843Y-82350500D01*
X78256249Y-82345048D01*
X78371751Y-82322073D01*
X78441340Y-82328300D01*
X78461659Y-82338537D01*
X78480800Y-82350500D01*
X80772864Y-83783040D01*
X80815539Y-83827972D01*
X82299996Y-86499994D01*
X83582755Y-88670816D01*
X83600000Y-88733898D01*
X83600000Y-92079814D01*
X83580315Y-92146853D01*
X83527511Y-92192608D01*
X83479873Y-92203753D01*
X80493547Y-92297076D01*
X80425926Y-92279496D01*
X80378544Y-92228146D01*
X80371544Y-92210838D01*
X79261882Y-88733898D01*
X78681610Y-86915712D01*
X76788492Y-85101474D01*
X74307396Y-84400000D01*
X74307394Y-84400000D01*
X60324000Y-84400000D01*
X60256961Y-84380315D01*
X60211206Y-84327511D01*
X60200000Y-84276000D01*
X60200000Y-81224000D01*
X60219685Y-81156961D01*
X60272489Y-81111206D01*
X60324000Y-81100000D01*
X63566476Y-81100000D01*
X63628956Y-81116891D01*
G37*
%TD.AperFunction*%
%TD*%
M02*
