%TF.GenerationSoftware,KiCad,Pcbnew,9.0.2*%
%TF.CreationDate,2025-06-28T10:42:52+02:00*%
%TF.ProjectId,canbox2,63616e62-6f78-4322-9e6b-696361645f70,rev?*%
%TF.SameCoordinates,Original*%
%TF.FileFunction,Soldermask,Top*%
%TF.FilePolarity,Negative*%
%FSLAX46Y46*%
G04 Gerber Fmt 4.6, Leading zero omitted, Abs format (unit mm)*
G04 Created by KiCad (PCBNEW 9.0.2) date 2025-06-28 10:42:52*
%MOMM*%
%LPD*%
G01*
G04 APERTURE LIST*
G04 Aperture macros list*
%AMRoundRect*
0 Rectangle with rounded corners*
0 $1 Rounding radius*
0 $2 $3 $4 $5 $6 $7 $8 $9 X,Y pos of 4 corners*
0 Add a 4 corners polygon primitive as box body*
4,1,4,$2,$3,$4,$5,$6,$7,$8,$9,$2,$3,0*
0 Add four circle primitives for the rounded corners*
1,1,$1+$1,$2,$3*
1,1,$1+$1,$4,$5*
1,1,$1+$1,$6,$7*
1,1,$1+$1,$8,$9*
0 Add four rect primitives between the rounded corners*
20,1,$1+$1,$2,$3,$4,$5,0*
20,1,$1+$1,$4,$5,$6,$7,0*
20,1,$1+$1,$6,$7,$8,$9,0*
20,1,$1+$1,$8,$9,$2,$3,0*%
G04 Aperture macros list end*
%ADD10RoundRect,0.250000X-0.650000X0.325000X-0.650000X-0.325000X0.650000X-0.325000X0.650000X0.325000X0*%
%ADD11RoundRect,0.250000X0.250000X0.475000X-0.250000X0.475000X-0.250000X-0.475000X0.250000X-0.475000X0*%
%ADD12RoundRect,0.135000X-0.135000X-0.185000X0.135000X-0.185000X0.135000X0.185000X-0.135000X0.185000X0*%
%ADD13RoundRect,0.075000X-0.662500X-0.075000X0.662500X-0.075000X0.662500X0.075000X-0.662500X0.075000X0*%
%ADD14RoundRect,0.075000X-0.075000X-0.662500X0.075000X-0.662500X0.075000X0.662500X-0.075000X0.662500X0*%
%ADD15RoundRect,0.140000X0.170000X-0.140000X0.170000X0.140000X-0.170000X0.140000X-0.170000X-0.140000X0*%
%ADD16RoundRect,0.150000X0.150000X-0.587500X0.150000X0.587500X-0.150000X0.587500X-0.150000X-0.587500X0*%
%ADD17RoundRect,0.135000X0.135000X0.185000X-0.135000X0.185000X-0.135000X-0.185000X0.135000X-0.185000X0*%
%ADD18RoundRect,0.100000X-0.100000X0.225000X-0.100000X-0.225000X0.100000X-0.225000X0.100000X0.225000X0*%
%ADD19RoundRect,0.250000X-0.475000X0.250000X-0.475000X-0.250000X0.475000X-0.250000X0.475000X0.250000X0*%
%ADD20RoundRect,0.135000X0.185000X-0.135000X0.185000X0.135000X-0.185000X0.135000X-0.185000X-0.135000X0*%
%ADD21RoundRect,0.140000X-0.140000X-0.170000X0.140000X-0.170000X0.140000X0.170000X-0.140000X0.170000X0*%
%ADD22RoundRect,0.250000X-0.312500X-1.450000X0.312500X-1.450000X0.312500X1.450000X-0.312500X1.450000X0*%
%ADD23R,0.800000X1.000000*%
%ADD24R,1.500000X0.700000*%
%ADD25RoundRect,0.140000X-0.170000X0.140000X-0.170000X-0.140000X0.170000X-0.140000X0.170000X0.140000X0*%
%ADD26RoundRect,0.135000X-0.185000X0.135000X-0.185000X-0.135000X0.185000X-0.135000X0.185000X0.135000X0*%
%ADD27RoundRect,0.250000X-0.250000X-0.475000X0.250000X-0.475000X0.250000X0.475000X-0.250000X0.475000X0*%
%ADD28O,1.950000X0.570000*%
%ADD29RoundRect,0.140000X0.140000X0.170000X-0.140000X0.170000X-0.140000X-0.170000X0.140000X-0.170000X0*%
%ADD30R,0.740000X2.400000*%
%ADD31RoundRect,0.225000X-0.225000X-0.250000X0.225000X-0.250000X0.225000X0.250000X-0.225000X0.250000X0*%
%ADD32R,2.050000X2.240000*%
%ADD33RoundRect,0.375000X0.375000X-0.625000X0.375000X0.625000X-0.375000X0.625000X-0.375000X-0.625000X0*%
%ADD34RoundRect,0.500000X1.400000X-0.500000X1.400000X0.500000X-1.400000X0.500000X-1.400000X-0.500000X0*%
%ADD35R,1.360000X1.230000*%
%ADD36RoundRect,0.250000X-0.350000X0.450000X-0.350000X-0.450000X0.350000X-0.450000X0.350000X0.450000X0*%
%ADD37RoundRect,0.250000X-0.350000X0.850000X-0.350000X-0.850000X0.350000X-0.850000X0.350000X0.850000X0*%
%ADD38RoundRect,0.249997X-2.650003X2.950003X-2.650003X-2.950003X2.650003X-2.950003X2.650003X2.950003X0*%
%ADD39C,1.520000*%
%ADD40RoundRect,0.218750X-0.256250X0.218750X-0.256250X-0.218750X0.256250X-0.218750X0.256250X0.218750X0*%
G04 APERTURE END LIST*
D10*
%TO.C,C18*%
X72100000Y-83050000D03*
X72100000Y-86000000D03*
%TD*%
D11*
%TO.C,C12*%
X51300000Y-90900000D03*
X49400000Y-90900000D03*
%TD*%
D12*
%TO.C,R6*%
X74580000Y-63400000D03*
X75600000Y-63400000D03*
%TD*%
D13*
%TO.C,U1*%
X44137500Y-69050000D03*
X44137500Y-69550000D03*
X44137500Y-70050000D03*
X44137500Y-70550000D03*
X44137500Y-71050000D03*
X44137500Y-71550000D03*
X44137500Y-72050000D03*
X44137500Y-72550000D03*
X44137500Y-73050000D03*
X44137500Y-73550000D03*
X44137500Y-74050000D03*
X44137500Y-74550000D03*
D14*
X45550000Y-75962500D03*
X46050000Y-75962500D03*
X46550000Y-75962500D03*
X47050000Y-75962500D03*
X47550000Y-75962500D03*
X48050000Y-75962500D03*
X48550000Y-75962500D03*
X49050000Y-75962500D03*
X49550000Y-75962500D03*
X50050000Y-75962500D03*
X50550000Y-75962500D03*
X51050000Y-75962500D03*
D13*
X52462500Y-74550000D03*
X52462500Y-74050000D03*
X52462500Y-73550000D03*
X52462500Y-73050000D03*
X52462500Y-72550000D03*
X52462500Y-72050000D03*
X52462500Y-71550000D03*
X52462500Y-71050000D03*
X52462500Y-70550000D03*
X52462500Y-70050000D03*
X52462500Y-69550000D03*
X52462500Y-69050000D03*
D14*
X51050000Y-67637500D03*
X50550000Y-67637500D03*
X50050000Y-67637500D03*
X49550000Y-67637500D03*
X49050000Y-67637500D03*
X48550000Y-67637500D03*
X48050000Y-67637500D03*
X47550000Y-67637500D03*
X47050000Y-67637500D03*
X46550000Y-67637500D03*
X46050000Y-67637500D03*
X45550000Y-67637500D03*
%TD*%
D15*
%TO.C,C11*%
X40300000Y-73260000D03*
X40300000Y-72300000D03*
%TD*%
D16*
%TO.C,Q2*%
X82450000Y-60875000D03*
X84350000Y-60875000D03*
X83400000Y-59000000D03*
%TD*%
%TO.C,Q1*%
X77750000Y-62975000D03*
X79650000Y-62975000D03*
X78700000Y-61100000D03*
%TD*%
D15*
%TO.C,C9*%
X41200000Y-58680000D03*
X41200000Y-57720000D03*
%TD*%
D17*
%TO.C,R14*%
X78600000Y-78800000D03*
X77580000Y-78800000D03*
%TD*%
D18*
%TO.C,U6*%
X60050000Y-75350000D03*
X59400000Y-75350000D03*
X58750000Y-75350000D03*
X58750000Y-77250000D03*
X59400000Y-77250000D03*
X60050000Y-77250000D03*
%TD*%
D15*
%TO.C,C6*%
X42300000Y-73460000D03*
X42300000Y-72500000D03*
%TD*%
D17*
%TO.C,R10*%
X86620000Y-62300000D03*
X85600000Y-62300000D03*
%TD*%
D19*
%TO.C,C13*%
X44800000Y-84200000D03*
X44800000Y-86100000D03*
%TD*%
D20*
%TO.C,R1*%
X37820000Y-65620000D03*
X37820000Y-64600000D03*
%TD*%
D10*
%TO.C,C16*%
X69500000Y-83050000D03*
X69500000Y-86000000D03*
%TD*%
D21*
%TO.C,C2*%
X45320000Y-65800000D03*
X46280000Y-65800000D03*
%TD*%
D20*
%TO.C,R4*%
X55200000Y-73600000D03*
X55200000Y-72580000D03*
%TD*%
D10*
%TO.C,C17*%
X66700000Y-83050000D03*
X66700000Y-86000000D03*
%TD*%
D22*
%TO.C,F1*%
X81900000Y-89500000D03*
X86175000Y-89500000D03*
%TD*%
D23*
%TO.C,SW1*%
X35300000Y-61350000D03*
X33090000Y-61350000D03*
X35300000Y-68650000D03*
X33090000Y-68650000D03*
D24*
X35950000Y-62750000D03*
X35950000Y-65750000D03*
X35950000Y-67250000D03*
%TD*%
D25*
%TO.C,C3*%
X54400000Y-68320000D03*
X54400000Y-69280000D03*
%TD*%
D26*
%TO.C,R16*%
X56100000Y-74500000D03*
X56100000Y-75520000D03*
%TD*%
D27*
%TO.C,C15*%
X57900000Y-79800000D03*
X59800000Y-79800000D03*
%TD*%
D12*
%TO.C,R7*%
X78280000Y-65100000D03*
X79300000Y-65100000D03*
%TD*%
D28*
%TO.C,U3*%
X63190000Y-68654995D03*
X63190000Y-69934995D03*
X63190000Y-71194995D03*
X63190000Y-72464995D03*
X68610000Y-72464995D03*
X68610000Y-71194995D03*
X68610000Y-69934995D03*
X68610000Y-68654995D03*
%TD*%
D29*
%TO.C,C4*%
X51280000Y-77800000D03*
X50320000Y-77800000D03*
%TD*%
D26*
%TO.C,R5*%
X61800000Y-75880000D03*
X61800000Y-76900000D03*
%TD*%
D29*
%TO.C,C8*%
X42030000Y-77550000D03*
X41070000Y-77550000D03*
%TD*%
D26*
%TO.C,R2*%
X55800000Y-68300000D03*
X55800000Y-69320000D03*
%TD*%
D12*
%TO.C,R17*%
X53080000Y-78100000D03*
X54100000Y-78100000D03*
%TD*%
D25*
%TO.C,C1*%
X42200000Y-68600000D03*
X42200000Y-69560000D03*
%TD*%
D12*
%TO.C,R8*%
X81680000Y-63100000D03*
X82700000Y-63100000D03*
%TD*%
D30*
%TO.C,J1*%
X67040000Y-55450000D03*
X67040000Y-59350000D03*
X65770000Y-55450000D03*
X65770000Y-59350000D03*
X64500000Y-55450000D03*
X64500000Y-59350000D03*
X63230000Y-55450000D03*
X63230000Y-59350000D03*
X61960000Y-55450000D03*
X61960000Y-59350000D03*
%TD*%
D31*
%TO.C,C5*%
X45025000Y-64200000D03*
X46575000Y-64200000D03*
%TD*%
D20*
%TO.C,R11*%
X68200000Y-80020000D03*
X68200000Y-79000000D03*
%TD*%
D15*
%TO.C,C10*%
X40300000Y-71010000D03*
X40300000Y-70050000D03*
%TD*%
D32*
%TO.C,D1*%
X83900000Y-84400000D03*
X78720000Y-84400000D03*
%TD*%
D33*
%TO.C,U2*%
X47800000Y-88050000D03*
X50100000Y-88050000D03*
D34*
X50100000Y-81750000D03*
D33*
X52400000Y-88050000D03*
%TD*%
D12*
%TO.C,R12*%
X70200000Y-80400000D03*
X71220000Y-80400000D03*
%TD*%
D16*
%TO.C,Q4*%
X74550000Y-77537500D03*
X76450000Y-77537500D03*
X75500000Y-75662500D03*
%TD*%
D35*
%TO.C,SW2*%
X44600000Y-56120000D03*
X44600000Y-60480000D03*
%TD*%
D36*
%TO.C,Y1*%
X36850000Y-70600000D03*
X36850000Y-72800000D03*
X38550000Y-72800000D03*
X38550000Y-70600000D03*
%TD*%
D16*
%TO.C,Q3*%
X69950000Y-78675000D03*
X71850000Y-78675000D03*
X70900000Y-76800000D03*
%TD*%
D19*
%TO.C,C14*%
X64100000Y-83700000D03*
X64100000Y-85600000D03*
%TD*%
D17*
%TO.C,R9*%
X83200000Y-57400000D03*
X82180000Y-57400000D03*
%TD*%
D37*
%TO.C,U4*%
X61407500Y-82600000D03*
D38*
X59127500Y-88900000D03*
D37*
X56847500Y-82600000D03*
%TD*%
D39*
%TO.C,U5*%
X84100000Y-66100000D03*
X82100000Y-66100000D03*
X84100000Y-68100000D03*
X82100000Y-68100000D03*
X84100000Y-70100000D03*
X82100000Y-70100000D03*
X84100000Y-72100000D03*
X82100000Y-72100000D03*
X84100000Y-74100000D03*
X82100000Y-74100000D03*
X84100000Y-76100000D03*
X82100000Y-76100000D03*
X84100000Y-78100000D03*
X82100000Y-78100000D03*
X84100000Y-80100000D03*
X82100000Y-80100000D03*
%TD*%
D40*
%TO.C,FB1*%
X43300000Y-76050000D03*
X43300000Y-77625000D03*
%TD*%
D29*
%TO.C,C7*%
X42050000Y-76050000D03*
X41090000Y-76050000D03*
%TD*%
D17*
%TO.C,R15*%
X74110000Y-74900000D03*
X73090000Y-74900000D03*
%TD*%
D20*
%TO.C,R3*%
X56500000Y-73620000D03*
X56500000Y-72600000D03*
%TD*%
D12*
%TO.C,R13*%
X73680000Y-80400000D03*
X74700000Y-80400000D03*
%TD*%
M02*
