%TF.GenerationSoftware,KiCad,Pcbnew,9.0.2*%
%TF.CreationDate,2025-06-28T19:26:11+02:00*%
%TF.ProjectId,cantoto,63616e74-6f74-46f2-9e6b-696361645f70,rev?*%
%TF.SameCoordinates,Original*%
%TF.FileFunction,Legend,Top*%
%TF.FilePolarity,Positive*%
%FSLAX46Y46*%
G04 Gerber Fmt 4.6, Leading zero omitted, Abs format (unit mm)*
G04 Created by KiCad (PCBNEW 9.0.2) date 2025-06-28 19:26:11*
%MOMM*%
%LPD*%
G01*
G04 APERTURE LIST*
G04 Aperture macros list*
%AMRoundRect*
0 Rectangle with rounded corners*
0 $1 Rounding radius*
0 $2 $3 $4 $5 $6 $7 $8 $9 X,Y pos of 4 corners*
0 Add a 4 corners polygon primitive as box body*
4,1,4,$2,$3,$4,$5,$6,$7,$8,$9,$2,$3,0*
0 Add four circle primitives for the rounded corners*
1,1,$1+$1,$2,$3*
1,1,$1+$1,$4,$5*
1,1,$1+$1,$6,$7*
1,1,$1+$1,$8,$9*
0 Add four rect primitives between the rounded corners*
20,1,$1+$1,$2,$3,$4,$5,0*
20,1,$1+$1,$4,$5,$6,$7,0*
20,1,$1+$1,$6,$7,$8,$9,0*
20,1,$1+$1,$8,$9,$2,$3,0*%
G04 Aperture macros list end*
%ADD10C,0.300000*%
%ADD11C,0.150000*%
%ADD12C,0.120000*%
%ADD13C,0.250000*%
%ADD14RoundRect,0.250000X-0.650000X0.325000X-0.650000X-0.325000X0.650000X-0.325000X0.650000X0.325000X0*%
%ADD15RoundRect,0.250000X0.250000X0.475000X-0.250000X0.475000X-0.250000X-0.475000X0.250000X-0.475000X0*%
%ADD16RoundRect,0.135000X-0.135000X-0.185000X0.135000X-0.185000X0.135000X0.185000X-0.135000X0.185000X0*%
%ADD17RoundRect,0.075000X-0.662500X-0.075000X0.662500X-0.075000X0.662500X0.075000X-0.662500X0.075000X0*%
%ADD18RoundRect,0.075000X-0.075000X-0.662500X0.075000X-0.662500X0.075000X0.662500X-0.075000X0.662500X0*%
%ADD19RoundRect,0.140000X0.170000X-0.140000X0.170000X0.140000X-0.170000X0.140000X-0.170000X-0.140000X0*%
%ADD20RoundRect,0.150000X0.150000X-0.587500X0.150000X0.587500X-0.150000X0.587500X-0.150000X-0.587500X0*%
%ADD21RoundRect,0.135000X0.135000X0.185000X-0.135000X0.185000X-0.135000X-0.185000X0.135000X-0.185000X0*%
%ADD22RoundRect,0.100000X-0.100000X0.225000X-0.100000X-0.225000X0.100000X-0.225000X0.100000X0.225000X0*%
%ADD23C,3.000000*%
%ADD24RoundRect,0.250000X-0.475000X0.250000X-0.475000X-0.250000X0.475000X-0.250000X0.475000X0.250000X0*%
%ADD25RoundRect,0.135000X0.185000X-0.135000X0.185000X0.135000X-0.185000X0.135000X-0.185000X-0.135000X0*%
%ADD26RoundRect,0.140000X-0.140000X-0.170000X0.140000X-0.170000X0.140000X0.170000X-0.140000X0.170000X0*%
%ADD27RoundRect,0.250000X-0.312500X-1.450000X0.312500X-1.450000X0.312500X1.450000X-0.312500X1.450000X0*%
%ADD28R,0.800000X1.000000*%
%ADD29C,0.900000*%
%ADD30R,1.500000X0.700000*%
%ADD31RoundRect,0.140000X-0.170000X0.140000X-0.170000X-0.140000X0.170000X-0.140000X0.170000X0.140000X0*%
%ADD32RoundRect,0.135000X-0.185000X0.135000X-0.185000X-0.135000X0.185000X-0.135000X0.185000X0.135000X0*%
%ADD33RoundRect,0.250000X-0.250000X-0.475000X0.250000X-0.475000X0.250000X0.475000X-0.250000X0.475000X0*%
%ADD34O,1.950000X0.570000*%
%ADD35RoundRect,0.140000X0.140000X0.170000X-0.140000X0.170000X-0.140000X-0.170000X0.140000X-0.170000X0*%
%ADD36R,0.740000X2.400000*%
%ADD37RoundRect,0.225000X-0.225000X-0.250000X0.225000X-0.250000X0.225000X0.250000X-0.225000X0.250000X0*%
%ADD38R,2.050000X2.240000*%
%ADD39RoundRect,0.375000X0.375000X-0.625000X0.375000X0.625000X-0.375000X0.625000X-0.375000X-0.625000X0*%
%ADD40RoundRect,0.500000X1.400000X-0.500000X1.400000X0.500000X-1.400000X0.500000X-1.400000X-0.500000X0*%
%ADD41R,1.360000X1.230000*%
%ADD42RoundRect,0.250000X-0.350000X0.450000X-0.350000X-0.450000X0.350000X-0.450000X0.350000X0.450000X0*%
%ADD43RoundRect,0.250000X-0.350000X0.850000X-0.350000X-0.850000X0.350000X-0.850000X0.350000X0.850000X0*%
%ADD44RoundRect,0.249997X-2.650003X2.950003X-2.650003X-2.950003X2.650003X-2.950003X2.650003X2.950003X0*%
%ADD45C,1.520000*%
%ADD46RoundRect,0.218750X-0.256250X0.218750X-0.256250X-0.218750X0.256250X-0.218750X0.256250X0.218750X0*%
G04 APERTURE END LIST*
D10*
X42011653Y-54857971D02*
X41940225Y-54929400D01*
X41940225Y-54929400D02*
X41725939Y-55000828D01*
X41725939Y-55000828D02*
X41583082Y-55000828D01*
X41583082Y-55000828D02*
X41368796Y-54929400D01*
X41368796Y-54929400D02*
X41225939Y-54786542D01*
X41225939Y-54786542D02*
X41154510Y-54643685D01*
X41154510Y-54643685D02*
X41083082Y-54357971D01*
X41083082Y-54357971D02*
X41083082Y-54143685D01*
X41083082Y-54143685D02*
X41154510Y-53857971D01*
X41154510Y-53857971D02*
X41225939Y-53715114D01*
X41225939Y-53715114D02*
X41368796Y-53572257D01*
X41368796Y-53572257D02*
X41583082Y-53500828D01*
X41583082Y-53500828D02*
X41725939Y-53500828D01*
X41725939Y-53500828D02*
X41940225Y-53572257D01*
X41940225Y-53572257D02*
X42011653Y-53643685D01*
X42583082Y-54572257D02*
X43297368Y-54572257D01*
X42440225Y-55000828D02*
X42940225Y-53500828D01*
X42940225Y-53500828D02*
X43440225Y-55000828D01*
X43940224Y-55000828D02*
X43940224Y-53500828D01*
X43940224Y-53500828D02*
X44797367Y-55000828D01*
X44797367Y-55000828D02*
X44797367Y-53500828D01*
X45297368Y-53500828D02*
X46154511Y-53500828D01*
X45725939Y-55000828D02*
X45725939Y-53500828D01*
X46940225Y-53500828D02*
X47225939Y-53500828D01*
X47225939Y-53500828D02*
X47368796Y-53572257D01*
X47368796Y-53572257D02*
X47511653Y-53715114D01*
X47511653Y-53715114D02*
X47583082Y-54000828D01*
X47583082Y-54000828D02*
X47583082Y-54500828D01*
X47583082Y-54500828D02*
X47511653Y-54786542D01*
X47511653Y-54786542D02*
X47368796Y-54929400D01*
X47368796Y-54929400D02*
X47225939Y-55000828D01*
X47225939Y-55000828D02*
X46940225Y-55000828D01*
X46940225Y-55000828D02*
X46797368Y-54929400D01*
X46797368Y-54929400D02*
X46654510Y-54786542D01*
X46654510Y-54786542D02*
X46583082Y-54500828D01*
X46583082Y-54500828D02*
X46583082Y-54000828D01*
X46583082Y-54000828D02*
X46654510Y-53715114D01*
X46654510Y-53715114D02*
X46797368Y-53572257D01*
X46797368Y-53572257D02*
X46940225Y-53500828D01*
X48011654Y-53500828D02*
X48868797Y-53500828D01*
X48440225Y-55000828D02*
X48440225Y-53500828D01*
X49654511Y-53500828D02*
X49940225Y-53500828D01*
X49940225Y-53500828D02*
X50083082Y-53572257D01*
X50083082Y-53572257D02*
X50225939Y-53715114D01*
X50225939Y-53715114D02*
X50297368Y-54000828D01*
X50297368Y-54000828D02*
X50297368Y-54500828D01*
X50297368Y-54500828D02*
X50225939Y-54786542D01*
X50225939Y-54786542D02*
X50083082Y-54929400D01*
X50083082Y-54929400D02*
X49940225Y-55000828D01*
X49940225Y-55000828D02*
X49654511Y-55000828D01*
X49654511Y-55000828D02*
X49511654Y-54929400D01*
X49511654Y-54929400D02*
X49368796Y-54786542D01*
X49368796Y-54786542D02*
X49297368Y-54500828D01*
X49297368Y-54500828D02*
X49297368Y-54000828D01*
X49297368Y-54000828D02*
X49368796Y-53715114D01*
X49368796Y-53715114D02*
X49511654Y-53572257D01*
X49511654Y-53572257D02*
X49654511Y-53500828D01*
X52083082Y-55000828D02*
X52083082Y-54000828D01*
X52083082Y-54286542D02*
X52154511Y-54143685D01*
X52154511Y-54143685D02*
X52225940Y-54072257D01*
X52225940Y-54072257D02*
X52368797Y-54000828D01*
X52368797Y-54000828D02*
X52511654Y-54000828D01*
X53583082Y-54929400D02*
X53440225Y-55000828D01*
X53440225Y-55000828D02*
X53154511Y-55000828D01*
X53154511Y-55000828D02*
X53011653Y-54929400D01*
X53011653Y-54929400D02*
X52940225Y-54786542D01*
X52940225Y-54786542D02*
X52940225Y-54215114D01*
X52940225Y-54215114D02*
X53011653Y-54072257D01*
X53011653Y-54072257D02*
X53154511Y-54000828D01*
X53154511Y-54000828D02*
X53440225Y-54000828D01*
X53440225Y-54000828D02*
X53583082Y-54072257D01*
X53583082Y-54072257D02*
X53654511Y-54215114D01*
X53654511Y-54215114D02*
X53654511Y-54357971D01*
X53654511Y-54357971D02*
X52940225Y-54500828D01*
X54154510Y-54000828D02*
X54511653Y-55000828D01*
X54511653Y-55000828D02*
X54868796Y-54000828D01*
X55725939Y-53500828D02*
X55868796Y-53500828D01*
X55868796Y-53500828D02*
X56011653Y-53572257D01*
X56011653Y-53572257D02*
X56083082Y-53643685D01*
X56083082Y-53643685D02*
X56154510Y-53786542D01*
X56154510Y-53786542D02*
X56225939Y-54072257D01*
X56225939Y-54072257D02*
X56225939Y-54429400D01*
X56225939Y-54429400D02*
X56154510Y-54715114D01*
X56154510Y-54715114D02*
X56083082Y-54857971D01*
X56083082Y-54857971D02*
X56011653Y-54929400D01*
X56011653Y-54929400D02*
X55868796Y-55000828D01*
X55868796Y-55000828D02*
X55725939Y-55000828D01*
X55725939Y-55000828D02*
X55583082Y-54929400D01*
X55583082Y-54929400D02*
X55511653Y-54857971D01*
X55511653Y-54857971D02*
X55440224Y-54715114D01*
X55440224Y-54715114D02*
X55368796Y-54429400D01*
X55368796Y-54429400D02*
X55368796Y-54072257D01*
X55368796Y-54072257D02*
X55440224Y-53786542D01*
X55440224Y-53786542D02*
X55511653Y-53643685D01*
X55511653Y-53643685D02*
X55583082Y-53572257D01*
X55583082Y-53572257D02*
X55725939Y-53500828D01*
X56868795Y-54857971D02*
X56940224Y-54929400D01*
X56940224Y-54929400D02*
X56868795Y-55000828D01*
X56868795Y-55000828D02*
X56797367Y-54929400D01*
X56797367Y-54929400D02*
X56868795Y-54857971D01*
X56868795Y-54857971D02*
X56868795Y-55000828D01*
X57511653Y-53643685D02*
X57583081Y-53572257D01*
X57583081Y-53572257D02*
X57725939Y-53500828D01*
X57725939Y-53500828D02*
X58083081Y-53500828D01*
X58083081Y-53500828D02*
X58225939Y-53572257D01*
X58225939Y-53572257D02*
X58297367Y-53643685D01*
X58297367Y-53643685D02*
X58368796Y-53786542D01*
X58368796Y-53786542D02*
X58368796Y-53929400D01*
X58368796Y-53929400D02*
X58297367Y-54143685D01*
X58297367Y-54143685D02*
X57440224Y-55000828D01*
X57440224Y-55000828D02*
X58368796Y-55000828D01*
D11*
X70557142Y-88759580D02*
X70509523Y-88807200D01*
X70509523Y-88807200D02*
X70366666Y-88854819D01*
X70366666Y-88854819D02*
X70271428Y-88854819D01*
X70271428Y-88854819D02*
X70128571Y-88807200D01*
X70128571Y-88807200D02*
X70033333Y-88711961D01*
X70033333Y-88711961D02*
X69985714Y-88616723D01*
X69985714Y-88616723D02*
X69938095Y-88426247D01*
X69938095Y-88426247D02*
X69938095Y-88283390D01*
X69938095Y-88283390D02*
X69985714Y-88092914D01*
X69985714Y-88092914D02*
X70033333Y-87997676D01*
X70033333Y-87997676D02*
X70128571Y-87902438D01*
X70128571Y-87902438D02*
X70271428Y-87854819D01*
X70271428Y-87854819D02*
X70366666Y-87854819D01*
X70366666Y-87854819D02*
X70509523Y-87902438D01*
X70509523Y-87902438D02*
X70557142Y-87950057D01*
X71509523Y-88854819D02*
X70938095Y-88854819D01*
X71223809Y-88854819D02*
X71223809Y-87854819D01*
X71223809Y-87854819D02*
X71128571Y-87997676D01*
X71128571Y-87997676D02*
X71033333Y-88092914D01*
X71033333Y-88092914D02*
X70938095Y-88140533D01*
X72080952Y-88283390D02*
X71985714Y-88235771D01*
X71985714Y-88235771D02*
X71938095Y-88188152D01*
X71938095Y-88188152D02*
X71890476Y-88092914D01*
X71890476Y-88092914D02*
X71890476Y-88045295D01*
X71890476Y-88045295D02*
X71938095Y-87950057D01*
X71938095Y-87950057D02*
X71985714Y-87902438D01*
X71985714Y-87902438D02*
X72080952Y-87854819D01*
X72080952Y-87854819D02*
X72271428Y-87854819D01*
X72271428Y-87854819D02*
X72366666Y-87902438D01*
X72366666Y-87902438D02*
X72414285Y-87950057D01*
X72414285Y-87950057D02*
X72461904Y-88045295D01*
X72461904Y-88045295D02*
X72461904Y-88092914D01*
X72461904Y-88092914D02*
X72414285Y-88188152D01*
X72414285Y-88188152D02*
X72366666Y-88235771D01*
X72366666Y-88235771D02*
X72271428Y-88283390D01*
X72271428Y-88283390D02*
X72080952Y-88283390D01*
X72080952Y-88283390D02*
X71985714Y-88331009D01*
X71985714Y-88331009D02*
X71938095Y-88378628D01*
X71938095Y-88378628D02*
X71890476Y-88473866D01*
X71890476Y-88473866D02*
X71890476Y-88664342D01*
X71890476Y-88664342D02*
X71938095Y-88759580D01*
X71938095Y-88759580D02*
X71985714Y-88807200D01*
X71985714Y-88807200D02*
X72080952Y-88854819D01*
X72080952Y-88854819D02*
X72271428Y-88854819D01*
X72271428Y-88854819D02*
X72366666Y-88807200D01*
X72366666Y-88807200D02*
X72414285Y-88759580D01*
X72414285Y-88759580D02*
X72461904Y-88664342D01*
X72461904Y-88664342D02*
X72461904Y-88473866D01*
X72461904Y-88473866D02*
X72414285Y-88378628D01*
X72414285Y-88378628D02*
X72366666Y-88331009D01*
X72366666Y-88331009D02*
X72271428Y-88283390D01*
X49707142Y-92939580D02*
X49659523Y-92987200D01*
X49659523Y-92987200D02*
X49516666Y-93034819D01*
X49516666Y-93034819D02*
X49421428Y-93034819D01*
X49421428Y-93034819D02*
X49278571Y-92987200D01*
X49278571Y-92987200D02*
X49183333Y-92891961D01*
X49183333Y-92891961D02*
X49135714Y-92796723D01*
X49135714Y-92796723D02*
X49088095Y-92606247D01*
X49088095Y-92606247D02*
X49088095Y-92463390D01*
X49088095Y-92463390D02*
X49135714Y-92272914D01*
X49135714Y-92272914D02*
X49183333Y-92177676D01*
X49183333Y-92177676D02*
X49278571Y-92082438D01*
X49278571Y-92082438D02*
X49421428Y-92034819D01*
X49421428Y-92034819D02*
X49516666Y-92034819D01*
X49516666Y-92034819D02*
X49659523Y-92082438D01*
X49659523Y-92082438D02*
X49707142Y-92130057D01*
X50659523Y-93034819D02*
X50088095Y-93034819D01*
X50373809Y-93034819D02*
X50373809Y-92034819D01*
X50373809Y-92034819D02*
X50278571Y-92177676D01*
X50278571Y-92177676D02*
X50183333Y-92272914D01*
X50183333Y-92272914D02*
X50088095Y-92320533D01*
X51040476Y-92130057D02*
X51088095Y-92082438D01*
X51088095Y-92082438D02*
X51183333Y-92034819D01*
X51183333Y-92034819D02*
X51421428Y-92034819D01*
X51421428Y-92034819D02*
X51516666Y-92082438D01*
X51516666Y-92082438D02*
X51564285Y-92130057D01*
X51564285Y-92130057D02*
X51611904Y-92225295D01*
X51611904Y-92225295D02*
X51611904Y-92320533D01*
X51611904Y-92320533D02*
X51564285Y-92463390D01*
X51564285Y-92463390D02*
X50992857Y-93034819D01*
X50992857Y-93034819D02*
X51611904Y-93034819D01*
X74923333Y-62684819D02*
X74590000Y-62208628D01*
X74351905Y-62684819D02*
X74351905Y-61684819D01*
X74351905Y-61684819D02*
X74732857Y-61684819D01*
X74732857Y-61684819D02*
X74828095Y-61732438D01*
X74828095Y-61732438D02*
X74875714Y-61780057D01*
X74875714Y-61780057D02*
X74923333Y-61875295D01*
X74923333Y-61875295D02*
X74923333Y-62018152D01*
X74923333Y-62018152D02*
X74875714Y-62113390D01*
X74875714Y-62113390D02*
X74828095Y-62161009D01*
X74828095Y-62161009D02*
X74732857Y-62208628D01*
X74732857Y-62208628D02*
X74351905Y-62208628D01*
X75780476Y-61684819D02*
X75590000Y-61684819D01*
X75590000Y-61684819D02*
X75494762Y-61732438D01*
X75494762Y-61732438D02*
X75447143Y-61780057D01*
X75447143Y-61780057D02*
X75351905Y-61922914D01*
X75351905Y-61922914D02*
X75304286Y-62113390D01*
X75304286Y-62113390D02*
X75304286Y-62494342D01*
X75304286Y-62494342D02*
X75351905Y-62589580D01*
X75351905Y-62589580D02*
X75399524Y-62637200D01*
X75399524Y-62637200D02*
X75494762Y-62684819D01*
X75494762Y-62684819D02*
X75685238Y-62684819D01*
X75685238Y-62684819D02*
X75780476Y-62637200D01*
X75780476Y-62637200D02*
X75828095Y-62589580D01*
X75828095Y-62589580D02*
X75875714Y-62494342D01*
X75875714Y-62494342D02*
X75875714Y-62256247D01*
X75875714Y-62256247D02*
X75828095Y-62161009D01*
X75828095Y-62161009D02*
X75780476Y-62113390D01*
X75780476Y-62113390D02*
X75685238Y-62065771D01*
X75685238Y-62065771D02*
X75494762Y-62065771D01*
X75494762Y-62065771D02*
X75399524Y-62113390D01*
X75399524Y-62113390D02*
X75351905Y-62161009D01*
X75351905Y-62161009D02*
X75304286Y-62256247D01*
X51338095Y-65554819D02*
X51338095Y-66364342D01*
X51338095Y-66364342D02*
X51385714Y-66459580D01*
X51385714Y-66459580D02*
X51433333Y-66507200D01*
X51433333Y-66507200D02*
X51528571Y-66554819D01*
X51528571Y-66554819D02*
X51719047Y-66554819D01*
X51719047Y-66554819D02*
X51814285Y-66507200D01*
X51814285Y-66507200D02*
X51861904Y-66459580D01*
X51861904Y-66459580D02*
X51909523Y-66364342D01*
X51909523Y-66364342D02*
X51909523Y-65554819D01*
X52909523Y-66554819D02*
X52338095Y-66554819D01*
X52623809Y-66554819D02*
X52623809Y-65554819D01*
X52623809Y-65554819D02*
X52528571Y-65697676D01*
X52528571Y-65697676D02*
X52433333Y-65792914D01*
X52433333Y-65792914D02*
X52338095Y-65840533D01*
X39157142Y-74909580D02*
X39109523Y-74957200D01*
X39109523Y-74957200D02*
X38966666Y-75004819D01*
X38966666Y-75004819D02*
X38871428Y-75004819D01*
X38871428Y-75004819D02*
X38728571Y-74957200D01*
X38728571Y-74957200D02*
X38633333Y-74861961D01*
X38633333Y-74861961D02*
X38585714Y-74766723D01*
X38585714Y-74766723D02*
X38538095Y-74576247D01*
X38538095Y-74576247D02*
X38538095Y-74433390D01*
X38538095Y-74433390D02*
X38585714Y-74242914D01*
X38585714Y-74242914D02*
X38633333Y-74147676D01*
X38633333Y-74147676D02*
X38728571Y-74052438D01*
X38728571Y-74052438D02*
X38871428Y-74004819D01*
X38871428Y-74004819D02*
X38966666Y-74004819D01*
X38966666Y-74004819D02*
X39109523Y-74052438D01*
X39109523Y-74052438D02*
X39157142Y-74100057D01*
X40109523Y-75004819D02*
X39538095Y-75004819D01*
X39823809Y-75004819D02*
X39823809Y-74004819D01*
X39823809Y-74004819D02*
X39728571Y-74147676D01*
X39728571Y-74147676D02*
X39633333Y-74242914D01*
X39633333Y-74242914D02*
X39538095Y-74290533D01*
X41061904Y-75004819D02*
X40490476Y-75004819D01*
X40776190Y-75004819D02*
X40776190Y-74004819D01*
X40776190Y-74004819D02*
X40680952Y-74147676D01*
X40680952Y-74147676D02*
X40585714Y-74242914D01*
X40585714Y-74242914D02*
X40490476Y-74290533D01*
X86004761Y-58850057D02*
X85909523Y-58802438D01*
X85909523Y-58802438D02*
X85814285Y-58707200D01*
X85814285Y-58707200D02*
X85671428Y-58564342D01*
X85671428Y-58564342D02*
X85576190Y-58516723D01*
X85576190Y-58516723D02*
X85480952Y-58516723D01*
X85528571Y-58754819D02*
X85433333Y-58707200D01*
X85433333Y-58707200D02*
X85338095Y-58611961D01*
X85338095Y-58611961D02*
X85290476Y-58421485D01*
X85290476Y-58421485D02*
X85290476Y-58088152D01*
X85290476Y-58088152D02*
X85338095Y-57897676D01*
X85338095Y-57897676D02*
X85433333Y-57802438D01*
X85433333Y-57802438D02*
X85528571Y-57754819D01*
X85528571Y-57754819D02*
X85719047Y-57754819D01*
X85719047Y-57754819D02*
X85814285Y-57802438D01*
X85814285Y-57802438D02*
X85909523Y-57897676D01*
X85909523Y-57897676D02*
X85957142Y-58088152D01*
X85957142Y-58088152D02*
X85957142Y-58421485D01*
X85957142Y-58421485D02*
X85909523Y-58611961D01*
X85909523Y-58611961D02*
X85814285Y-58707200D01*
X85814285Y-58707200D02*
X85719047Y-58754819D01*
X85719047Y-58754819D02*
X85528571Y-58754819D01*
X86338095Y-57850057D02*
X86385714Y-57802438D01*
X86385714Y-57802438D02*
X86480952Y-57754819D01*
X86480952Y-57754819D02*
X86719047Y-57754819D01*
X86719047Y-57754819D02*
X86814285Y-57802438D01*
X86814285Y-57802438D02*
X86861904Y-57850057D01*
X86861904Y-57850057D02*
X86909523Y-57945295D01*
X86909523Y-57945295D02*
X86909523Y-58040533D01*
X86909523Y-58040533D02*
X86861904Y-58183390D01*
X86861904Y-58183390D02*
X86290476Y-58754819D01*
X86290476Y-58754819D02*
X86909523Y-58754819D01*
X79104761Y-59850057D02*
X79009523Y-59802438D01*
X79009523Y-59802438D02*
X78914285Y-59707200D01*
X78914285Y-59707200D02*
X78771428Y-59564342D01*
X78771428Y-59564342D02*
X78676190Y-59516723D01*
X78676190Y-59516723D02*
X78580952Y-59516723D01*
X78628571Y-59754819D02*
X78533333Y-59707200D01*
X78533333Y-59707200D02*
X78438095Y-59611961D01*
X78438095Y-59611961D02*
X78390476Y-59421485D01*
X78390476Y-59421485D02*
X78390476Y-59088152D01*
X78390476Y-59088152D02*
X78438095Y-58897676D01*
X78438095Y-58897676D02*
X78533333Y-58802438D01*
X78533333Y-58802438D02*
X78628571Y-58754819D01*
X78628571Y-58754819D02*
X78819047Y-58754819D01*
X78819047Y-58754819D02*
X78914285Y-58802438D01*
X78914285Y-58802438D02*
X79009523Y-58897676D01*
X79009523Y-58897676D02*
X79057142Y-59088152D01*
X79057142Y-59088152D02*
X79057142Y-59421485D01*
X79057142Y-59421485D02*
X79009523Y-59611961D01*
X79009523Y-59611961D02*
X78914285Y-59707200D01*
X78914285Y-59707200D02*
X78819047Y-59754819D01*
X78819047Y-59754819D02*
X78628571Y-59754819D01*
X80009523Y-59754819D02*
X79438095Y-59754819D01*
X79723809Y-59754819D02*
X79723809Y-58754819D01*
X79723809Y-58754819D02*
X79628571Y-58897676D01*
X79628571Y-58897676D02*
X79533333Y-58992914D01*
X79533333Y-58992914D02*
X79438095Y-59040533D01*
X41659580Y-56566666D02*
X41707200Y-56614285D01*
X41707200Y-56614285D02*
X41754819Y-56757142D01*
X41754819Y-56757142D02*
X41754819Y-56852380D01*
X41754819Y-56852380D02*
X41707200Y-56995237D01*
X41707200Y-56995237D02*
X41611961Y-57090475D01*
X41611961Y-57090475D02*
X41516723Y-57138094D01*
X41516723Y-57138094D02*
X41326247Y-57185713D01*
X41326247Y-57185713D02*
X41183390Y-57185713D01*
X41183390Y-57185713D02*
X40992914Y-57138094D01*
X40992914Y-57138094D02*
X40897676Y-57090475D01*
X40897676Y-57090475D02*
X40802438Y-56995237D01*
X40802438Y-56995237D02*
X40754819Y-56852380D01*
X40754819Y-56852380D02*
X40754819Y-56757142D01*
X40754819Y-56757142D02*
X40802438Y-56614285D01*
X40802438Y-56614285D02*
X40850057Y-56566666D01*
X41754819Y-56090475D02*
X41754819Y-55899999D01*
X41754819Y-55899999D02*
X41707200Y-55804761D01*
X41707200Y-55804761D02*
X41659580Y-55757142D01*
X41659580Y-55757142D02*
X41516723Y-55661904D01*
X41516723Y-55661904D02*
X41326247Y-55614285D01*
X41326247Y-55614285D02*
X40945295Y-55614285D01*
X40945295Y-55614285D02*
X40850057Y-55661904D01*
X40850057Y-55661904D02*
X40802438Y-55709523D01*
X40802438Y-55709523D02*
X40754819Y-55804761D01*
X40754819Y-55804761D02*
X40754819Y-55995237D01*
X40754819Y-55995237D02*
X40802438Y-56090475D01*
X40802438Y-56090475D02*
X40850057Y-56138094D01*
X40850057Y-56138094D02*
X40945295Y-56185713D01*
X40945295Y-56185713D02*
X41183390Y-56185713D01*
X41183390Y-56185713D02*
X41278628Y-56138094D01*
X41278628Y-56138094D02*
X41326247Y-56090475D01*
X41326247Y-56090475D02*
X41373866Y-55995237D01*
X41373866Y-55995237D02*
X41373866Y-55804761D01*
X41373866Y-55804761D02*
X41326247Y-55709523D01*
X41326247Y-55709523D02*
X41278628Y-55661904D01*
X41278628Y-55661904D02*
X41183390Y-55614285D01*
X77447142Y-80424819D02*
X77113809Y-79948628D01*
X76875714Y-80424819D02*
X76875714Y-79424819D01*
X76875714Y-79424819D02*
X77256666Y-79424819D01*
X77256666Y-79424819D02*
X77351904Y-79472438D01*
X77351904Y-79472438D02*
X77399523Y-79520057D01*
X77399523Y-79520057D02*
X77447142Y-79615295D01*
X77447142Y-79615295D02*
X77447142Y-79758152D01*
X77447142Y-79758152D02*
X77399523Y-79853390D01*
X77399523Y-79853390D02*
X77351904Y-79901009D01*
X77351904Y-79901009D02*
X77256666Y-79948628D01*
X77256666Y-79948628D02*
X76875714Y-79948628D01*
X78399523Y-80424819D02*
X77828095Y-80424819D01*
X78113809Y-80424819D02*
X78113809Y-79424819D01*
X78113809Y-79424819D02*
X78018571Y-79567676D01*
X78018571Y-79567676D02*
X77923333Y-79662914D01*
X77923333Y-79662914D02*
X77828095Y-79710533D01*
X79256666Y-79758152D02*
X79256666Y-80424819D01*
X79018571Y-79377200D02*
X78780476Y-80091485D01*
X78780476Y-80091485D02*
X79399523Y-80091485D01*
X56338095Y-77054819D02*
X56338095Y-77864342D01*
X56338095Y-77864342D02*
X56385714Y-77959580D01*
X56385714Y-77959580D02*
X56433333Y-78007200D01*
X56433333Y-78007200D02*
X56528571Y-78054819D01*
X56528571Y-78054819D02*
X56719047Y-78054819D01*
X56719047Y-78054819D02*
X56814285Y-78007200D01*
X56814285Y-78007200D02*
X56861904Y-77959580D01*
X56861904Y-77959580D02*
X56909523Y-77864342D01*
X56909523Y-77864342D02*
X56909523Y-77054819D01*
X57814285Y-77054819D02*
X57623809Y-77054819D01*
X57623809Y-77054819D02*
X57528571Y-77102438D01*
X57528571Y-77102438D02*
X57480952Y-77150057D01*
X57480952Y-77150057D02*
X57385714Y-77292914D01*
X57385714Y-77292914D02*
X57338095Y-77483390D01*
X57338095Y-77483390D02*
X57338095Y-77864342D01*
X57338095Y-77864342D02*
X57385714Y-77959580D01*
X57385714Y-77959580D02*
X57433333Y-78007200D01*
X57433333Y-78007200D02*
X57528571Y-78054819D01*
X57528571Y-78054819D02*
X57719047Y-78054819D01*
X57719047Y-78054819D02*
X57814285Y-78007200D01*
X57814285Y-78007200D02*
X57861904Y-77959580D01*
X57861904Y-77959580D02*
X57909523Y-77864342D01*
X57909523Y-77864342D02*
X57909523Y-77626247D01*
X57909523Y-77626247D02*
X57861904Y-77531009D01*
X57861904Y-77531009D02*
X57814285Y-77483390D01*
X57814285Y-77483390D02*
X57719047Y-77435771D01*
X57719047Y-77435771D02*
X57528571Y-77435771D01*
X57528571Y-77435771D02*
X57433333Y-77483390D01*
X57433333Y-77483390D02*
X57385714Y-77531009D01*
X57385714Y-77531009D02*
X57338095Y-77626247D01*
X42133333Y-75109580D02*
X42085714Y-75157200D01*
X42085714Y-75157200D02*
X41942857Y-75204819D01*
X41942857Y-75204819D02*
X41847619Y-75204819D01*
X41847619Y-75204819D02*
X41704762Y-75157200D01*
X41704762Y-75157200D02*
X41609524Y-75061961D01*
X41609524Y-75061961D02*
X41561905Y-74966723D01*
X41561905Y-74966723D02*
X41514286Y-74776247D01*
X41514286Y-74776247D02*
X41514286Y-74633390D01*
X41514286Y-74633390D02*
X41561905Y-74442914D01*
X41561905Y-74442914D02*
X41609524Y-74347676D01*
X41609524Y-74347676D02*
X41704762Y-74252438D01*
X41704762Y-74252438D02*
X41847619Y-74204819D01*
X41847619Y-74204819D02*
X41942857Y-74204819D01*
X41942857Y-74204819D02*
X42085714Y-74252438D01*
X42085714Y-74252438D02*
X42133333Y-74300057D01*
X42990476Y-74204819D02*
X42800000Y-74204819D01*
X42800000Y-74204819D02*
X42704762Y-74252438D01*
X42704762Y-74252438D02*
X42657143Y-74300057D01*
X42657143Y-74300057D02*
X42561905Y-74442914D01*
X42561905Y-74442914D02*
X42514286Y-74633390D01*
X42514286Y-74633390D02*
X42514286Y-75014342D01*
X42514286Y-75014342D02*
X42561905Y-75109580D01*
X42561905Y-75109580D02*
X42609524Y-75157200D01*
X42609524Y-75157200D02*
X42704762Y-75204819D01*
X42704762Y-75204819D02*
X42895238Y-75204819D01*
X42895238Y-75204819D02*
X42990476Y-75157200D01*
X42990476Y-75157200D02*
X43038095Y-75109580D01*
X43038095Y-75109580D02*
X43085714Y-75014342D01*
X43085714Y-75014342D02*
X43085714Y-74776247D01*
X43085714Y-74776247D02*
X43038095Y-74681009D01*
X43038095Y-74681009D02*
X42990476Y-74633390D01*
X42990476Y-74633390D02*
X42895238Y-74585771D01*
X42895238Y-74585771D02*
X42704762Y-74585771D01*
X42704762Y-74585771D02*
X42609524Y-74633390D01*
X42609524Y-74633390D02*
X42561905Y-74681009D01*
X42561905Y-74681009D02*
X42514286Y-74776247D01*
X86157142Y-63854819D02*
X85823809Y-63378628D01*
X85585714Y-63854819D02*
X85585714Y-62854819D01*
X85585714Y-62854819D02*
X85966666Y-62854819D01*
X85966666Y-62854819D02*
X86061904Y-62902438D01*
X86061904Y-62902438D02*
X86109523Y-62950057D01*
X86109523Y-62950057D02*
X86157142Y-63045295D01*
X86157142Y-63045295D02*
X86157142Y-63188152D01*
X86157142Y-63188152D02*
X86109523Y-63283390D01*
X86109523Y-63283390D02*
X86061904Y-63331009D01*
X86061904Y-63331009D02*
X85966666Y-63378628D01*
X85966666Y-63378628D02*
X85585714Y-63378628D01*
X87109523Y-63854819D02*
X86538095Y-63854819D01*
X86823809Y-63854819D02*
X86823809Y-62854819D01*
X86823809Y-62854819D02*
X86728571Y-62997676D01*
X86728571Y-62997676D02*
X86633333Y-63092914D01*
X86633333Y-63092914D02*
X86538095Y-63140533D01*
X87728571Y-62854819D02*
X87823809Y-62854819D01*
X87823809Y-62854819D02*
X87919047Y-62902438D01*
X87919047Y-62902438D02*
X87966666Y-62950057D01*
X87966666Y-62950057D02*
X88014285Y-63045295D01*
X88014285Y-63045295D02*
X88061904Y-63235771D01*
X88061904Y-63235771D02*
X88061904Y-63473866D01*
X88061904Y-63473866D02*
X88014285Y-63664342D01*
X88014285Y-63664342D02*
X87966666Y-63759580D01*
X87966666Y-63759580D02*
X87919047Y-63807200D01*
X87919047Y-63807200D02*
X87823809Y-63854819D01*
X87823809Y-63854819D02*
X87728571Y-63854819D01*
X87728571Y-63854819D02*
X87633333Y-63807200D01*
X87633333Y-63807200D02*
X87585714Y-63759580D01*
X87585714Y-63759580D02*
X87538095Y-63664342D01*
X87538095Y-63664342D02*
X87490476Y-63473866D01*
X87490476Y-63473866D02*
X87490476Y-63235771D01*
X87490476Y-63235771D02*
X87538095Y-63045295D01*
X87538095Y-63045295D02*
X87585714Y-62950057D01*
X87585714Y-62950057D02*
X87633333Y-62902438D01*
X87633333Y-62902438D02*
X87728571Y-62854819D01*
X41557142Y-85559580D02*
X41509523Y-85607200D01*
X41509523Y-85607200D02*
X41366666Y-85654819D01*
X41366666Y-85654819D02*
X41271428Y-85654819D01*
X41271428Y-85654819D02*
X41128571Y-85607200D01*
X41128571Y-85607200D02*
X41033333Y-85511961D01*
X41033333Y-85511961D02*
X40985714Y-85416723D01*
X40985714Y-85416723D02*
X40938095Y-85226247D01*
X40938095Y-85226247D02*
X40938095Y-85083390D01*
X40938095Y-85083390D02*
X40985714Y-84892914D01*
X40985714Y-84892914D02*
X41033333Y-84797676D01*
X41033333Y-84797676D02*
X41128571Y-84702438D01*
X41128571Y-84702438D02*
X41271428Y-84654819D01*
X41271428Y-84654819D02*
X41366666Y-84654819D01*
X41366666Y-84654819D02*
X41509523Y-84702438D01*
X41509523Y-84702438D02*
X41557142Y-84750057D01*
X42509523Y-85654819D02*
X41938095Y-85654819D01*
X42223809Y-85654819D02*
X42223809Y-84654819D01*
X42223809Y-84654819D02*
X42128571Y-84797676D01*
X42128571Y-84797676D02*
X42033333Y-84892914D01*
X42033333Y-84892914D02*
X41938095Y-84940533D01*
X42842857Y-84654819D02*
X43461904Y-84654819D01*
X43461904Y-84654819D02*
X43128571Y-85035771D01*
X43128571Y-85035771D02*
X43271428Y-85035771D01*
X43271428Y-85035771D02*
X43366666Y-85083390D01*
X43366666Y-85083390D02*
X43414285Y-85131009D01*
X43414285Y-85131009D02*
X43461904Y-85226247D01*
X43461904Y-85226247D02*
X43461904Y-85464342D01*
X43461904Y-85464342D02*
X43414285Y-85559580D01*
X43414285Y-85559580D02*
X43366666Y-85607200D01*
X43366666Y-85607200D02*
X43271428Y-85654819D01*
X43271428Y-85654819D02*
X42985714Y-85654819D01*
X42985714Y-85654819D02*
X42890476Y-85607200D01*
X42890476Y-85607200D02*
X42842857Y-85559580D01*
X39133333Y-66054819D02*
X38800000Y-65578628D01*
X38561905Y-66054819D02*
X38561905Y-65054819D01*
X38561905Y-65054819D02*
X38942857Y-65054819D01*
X38942857Y-65054819D02*
X39038095Y-65102438D01*
X39038095Y-65102438D02*
X39085714Y-65150057D01*
X39085714Y-65150057D02*
X39133333Y-65245295D01*
X39133333Y-65245295D02*
X39133333Y-65388152D01*
X39133333Y-65388152D02*
X39085714Y-65483390D01*
X39085714Y-65483390D02*
X39038095Y-65531009D01*
X39038095Y-65531009D02*
X38942857Y-65578628D01*
X38942857Y-65578628D02*
X38561905Y-65578628D01*
X40085714Y-66054819D02*
X39514286Y-66054819D01*
X39800000Y-66054819D02*
X39800000Y-65054819D01*
X39800000Y-65054819D02*
X39704762Y-65197676D01*
X39704762Y-65197676D02*
X39609524Y-65292914D01*
X39609524Y-65292914D02*
X39514286Y-65340533D01*
X68657142Y-90159580D02*
X68609523Y-90207200D01*
X68609523Y-90207200D02*
X68466666Y-90254819D01*
X68466666Y-90254819D02*
X68371428Y-90254819D01*
X68371428Y-90254819D02*
X68228571Y-90207200D01*
X68228571Y-90207200D02*
X68133333Y-90111961D01*
X68133333Y-90111961D02*
X68085714Y-90016723D01*
X68085714Y-90016723D02*
X68038095Y-89826247D01*
X68038095Y-89826247D02*
X68038095Y-89683390D01*
X68038095Y-89683390D02*
X68085714Y-89492914D01*
X68085714Y-89492914D02*
X68133333Y-89397676D01*
X68133333Y-89397676D02*
X68228571Y-89302438D01*
X68228571Y-89302438D02*
X68371428Y-89254819D01*
X68371428Y-89254819D02*
X68466666Y-89254819D01*
X68466666Y-89254819D02*
X68609523Y-89302438D01*
X68609523Y-89302438D02*
X68657142Y-89350057D01*
X69609523Y-90254819D02*
X69038095Y-90254819D01*
X69323809Y-90254819D02*
X69323809Y-89254819D01*
X69323809Y-89254819D02*
X69228571Y-89397676D01*
X69228571Y-89397676D02*
X69133333Y-89492914D01*
X69133333Y-89492914D02*
X69038095Y-89540533D01*
X70466666Y-89254819D02*
X70276190Y-89254819D01*
X70276190Y-89254819D02*
X70180952Y-89302438D01*
X70180952Y-89302438D02*
X70133333Y-89350057D01*
X70133333Y-89350057D02*
X70038095Y-89492914D01*
X70038095Y-89492914D02*
X69990476Y-89683390D01*
X69990476Y-89683390D02*
X69990476Y-90064342D01*
X69990476Y-90064342D02*
X70038095Y-90159580D01*
X70038095Y-90159580D02*
X70085714Y-90207200D01*
X70085714Y-90207200D02*
X70180952Y-90254819D01*
X70180952Y-90254819D02*
X70371428Y-90254819D01*
X70371428Y-90254819D02*
X70466666Y-90207200D01*
X70466666Y-90207200D02*
X70514285Y-90159580D01*
X70514285Y-90159580D02*
X70561904Y-90064342D01*
X70561904Y-90064342D02*
X70561904Y-89826247D01*
X70561904Y-89826247D02*
X70514285Y-89731009D01*
X70514285Y-89731009D02*
X70466666Y-89683390D01*
X70466666Y-89683390D02*
X70371428Y-89635771D01*
X70371428Y-89635771D02*
X70180952Y-89635771D01*
X70180952Y-89635771D02*
X70085714Y-89683390D01*
X70085714Y-89683390D02*
X70038095Y-89731009D01*
X70038095Y-89731009D02*
X69990476Y-89826247D01*
X47633333Y-66519580D02*
X47585714Y-66567200D01*
X47585714Y-66567200D02*
X47442857Y-66614819D01*
X47442857Y-66614819D02*
X47347619Y-66614819D01*
X47347619Y-66614819D02*
X47204762Y-66567200D01*
X47204762Y-66567200D02*
X47109524Y-66471961D01*
X47109524Y-66471961D02*
X47061905Y-66376723D01*
X47061905Y-66376723D02*
X47014286Y-66186247D01*
X47014286Y-66186247D02*
X47014286Y-66043390D01*
X47014286Y-66043390D02*
X47061905Y-65852914D01*
X47061905Y-65852914D02*
X47109524Y-65757676D01*
X47109524Y-65757676D02*
X47204762Y-65662438D01*
X47204762Y-65662438D02*
X47347619Y-65614819D01*
X47347619Y-65614819D02*
X47442857Y-65614819D01*
X47442857Y-65614819D02*
X47585714Y-65662438D01*
X47585714Y-65662438D02*
X47633333Y-65710057D01*
X48014286Y-65710057D02*
X48061905Y-65662438D01*
X48061905Y-65662438D02*
X48157143Y-65614819D01*
X48157143Y-65614819D02*
X48395238Y-65614819D01*
X48395238Y-65614819D02*
X48490476Y-65662438D01*
X48490476Y-65662438D02*
X48538095Y-65710057D01*
X48538095Y-65710057D02*
X48585714Y-65805295D01*
X48585714Y-65805295D02*
X48585714Y-65900533D01*
X48585714Y-65900533D02*
X48538095Y-66043390D01*
X48538095Y-66043390D02*
X47966667Y-66614819D01*
X47966667Y-66614819D02*
X48585714Y-66614819D01*
X54933333Y-71954819D02*
X54600000Y-71478628D01*
X54361905Y-71954819D02*
X54361905Y-70954819D01*
X54361905Y-70954819D02*
X54742857Y-70954819D01*
X54742857Y-70954819D02*
X54838095Y-71002438D01*
X54838095Y-71002438D02*
X54885714Y-71050057D01*
X54885714Y-71050057D02*
X54933333Y-71145295D01*
X54933333Y-71145295D02*
X54933333Y-71288152D01*
X54933333Y-71288152D02*
X54885714Y-71383390D01*
X54885714Y-71383390D02*
X54838095Y-71431009D01*
X54838095Y-71431009D02*
X54742857Y-71478628D01*
X54742857Y-71478628D02*
X54361905Y-71478628D01*
X55790476Y-71288152D02*
X55790476Y-71954819D01*
X55552381Y-70907200D02*
X55314286Y-71621485D01*
X55314286Y-71621485D02*
X55933333Y-71621485D01*
X66357142Y-88659580D02*
X66309523Y-88707200D01*
X66309523Y-88707200D02*
X66166666Y-88754819D01*
X66166666Y-88754819D02*
X66071428Y-88754819D01*
X66071428Y-88754819D02*
X65928571Y-88707200D01*
X65928571Y-88707200D02*
X65833333Y-88611961D01*
X65833333Y-88611961D02*
X65785714Y-88516723D01*
X65785714Y-88516723D02*
X65738095Y-88326247D01*
X65738095Y-88326247D02*
X65738095Y-88183390D01*
X65738095Y-88183390D02*
X65785714Y-87992914D01*
X65785714Y-87992914D02*
X65833333Y-87897676D01*
X65833333Y-87897676D02*
X65928571Y-87802438D01*
X65928571Y-87802438D02*
X66071428Y-87754819D01*
X66071428Y-87754819D02*
X66166666Y-87754819D01*
X66166666Y-87754819D02*
X66309523Y-87802438D01*
X66309523Y-87802438D02*
X66357142Y-87850057D01*
X67309523Y-88754819D02*
X66738095Y-88754819D01*
X67023809Y-88754819D02*
X67023809Y-87754819D01*
X67023809Y-87754819D02*
X66928571Y-87897676D01*
X66928571Y-87897676D02*
X66833333Y-87992914D01*
X66833333Y-87992914D02*
X66738095Y-88040533D01*
X67642857Y-87754819D02*
X68309523Y-87754819D01*
X68309523Y-87754819D02*
X67880952Y-88754819D01*
X83666666Y-92131009D02*
X83333333Y-92131009D01*
X83333333Y-92654819D02*
X83333333Y-91654819D01*
X83333333Y-91654819D02*
X83809523Y-91654819D01*
X84714285Y-92654819D02*
X84142857Y-92654819D01*
X84428571Y-92654819D02*
X84428571Y-91654819D01*
X84428571Y-91654819D02*
X84333333Y-91797676D01*
X84333333Y-91797676D02*
X84238095Y-91892914D01*
X84238095Y-91892914D02*
X84142857Y-91940533D01*
X37166667Y-61707200D02*
X37309524Y-61754819D01*
X37309524Y-61754819D02*
X37547619Y-61754819D01*
X37547619Y-61754819D02*
X37642857Y-61707200D01*
X37642857Y-61707200D02*
X37690476Y-61659580D01*
X37690476Y-61659580D02*
X37738095Y-61564342D01*
X37738095Y-61564342D02*
X37738095Y-61469104D01*
X37738095Y-61469104D02*
X37690476Y-61373866D01*
X37690476Y-61373866D02*
X37642857Y-61326247D01*
X37642857Y-61326247D02*
X37547619Y-61278628D01*
X37547619Y-61278628D02*
X37357143Y-61231009D01*
X37357143Y-61231009D02*
X37261905Y-61183390D01*
X37261905Y-61183390D02*
X37214286Y-61135771D01*
X37214286Y-61135771D02*
X37166667Y-61040533D01*
X37166667Y-61040533D02*
X37166667Y-60945295D01*
X37166667Y-60945295D02*
X37214286Y-60850057D01*
X37214286Y-60850057D02*
X37261905Y-60802438D01*
X37261905Y-60802438D02*
X37357143Y-60754819D01*
X37357143Y-60754819D02*
X37595238Y-60754819D01*
X37595238Y-60754819D02*
X37738095Y-60802438D01*
X38071429Y-60754819D02*
X38309524Y-61754819D01*
X38309524Y-61754819D02*
X38500000Y-61040533D01*
X38500000Y-61040533D02*
X38690476Y-61754819D01*
X38690476Y-61754819D02*
X38928572Y-60754819D01*
X39833333Y-61754819D02*
X39261905Y-61754819D01*
X39547619Y-61754819D02*
X39547619Y-60754819D01*
X39547619Y-60754819D02*
X39452381Y-60897676D01*
X39452381Y-60897676D02*
X39357143Y-60992914D01*
X39357143Y-60992914D02*
X39261905Y-61040533D01*
X53933333Y-67559580D02*
X53885714Y-67607200D01*
X53885714Y-67607200D02*
X53742857Y-67654819D01*
X53742857Y-67654819D02*
X53647619Y-67654819D01*
X53647619Y-67654819D02*
X53504762Y-67607200D01*
X53504762Y-67607200D02*
X53409524Y-67511961D01*
X53409524Y-67511961D02*
X53361905Y-67416723D01*
X53361905Y-67416723D02*
X53314286Y-67226247D01*
X53314286Y-67226247D02*
X53314286Y-67083390D01*
X53314286Y-67083390D02*
X53361905Y-66892914D01*
X53361905Y-66892914D02*
X53409524Y-66797676D01*
X53409524Y-66797676D02*
X53504762Y-66702438D01*
X53504762Y-66702438D02*
X53647619Y-66654819D01*
X53647619Y-66654819D02*
X53742857Y-66654819D01*
X53742857Y-66654819D02*
X53885714Y-66702438D01*
X53885714Y-66702438D02*
X53933333Y-66750057D01*
X54266667Y-66654819D02*
X54885714Y-66654819D01*
X54885714Y-66654819D02*
X54552381Y-67035771D01*
X54552381Y-67035771D02*
X54695238Y-67035771D01*
X54695238Y-67035771D02*
X54790476Y-67083390D01*
X54790476Y-67083390D02*
X54838095Y-67131009D01*
X54838095Y-67131009D02*
X54885714Y-67226247D01*
X54885714Y-67226247D02*
X54885714Y-67464342D01*
X54885714Y-67464342D02*
X54838095Y-67559580D01*
X54838095Y-67559580D02*
X54790476Y-67607200D01*
X54790476Y-67607200D02*
X54695238Y-67654819D01*
X54695238Y-67654819D02*
X54409524Y-67654819D01*
X54409524Y-67654819D02*
X54314286Y-67607200D01*
X54314286Y-67607200D02*
X54266667Y-67559580D01*
X53557142Y-76054819D02*
X53223809Y-75578628D01*
X52985714Y-76054819D02*
X52985714Y-75054819D01*
X52985714Y-75054819D02*
X53366666Y-75054819D01*
X53366666Y-75054819D02*
X53461904Y-75102438D01*
X53461904Y-75102438D02*
X53509523Y-75150057D01*
X53509523Y-75150057D02*
X53557142Y-75245295D01*
X53557142Y-75245295D02*
X53557142Y-75388152D01*
X53557142Y-75388152D02*
X53509523Y-75483390D01*
X53509523Y-75483390D02*
X53461904Y-75531009D01*
X53461904Y-75531009D02*
X53366666Y-75578628D01*
X53366666Y-75578628D02*
X52985714Y-75578628D01*
X54509523Y-76054819D02*
X53938095Y-76054819D01*
X54223809Y-76054819D02*
X54223809Y-75054819D01*
X54223809Y-75054819D02*
X54128571Y-75197676D01*
X54128571Y-75197676D02*
X54033333Y-75292914D01*
X54033333Y-75292914D02*
X53938095Y-75340533D01*
X55366666Y-75054819D02*
X55176190Y-75054819D01*
X55176190Y-75054819D02*
X55080952Y-75102438D01*
X55080952Y-75102438D02*
X55033333Y-75150057D01*
X55033333Y-75150057D02*
X54938095Y-75292914D01*
X54938095Y-75292914D02*
X54890476Y-75483390D01*
X54890476Y-75483390D02*
X54890476Y-75864342D01*
X54890476Y-75864342D02*
X54938095Y-75959580D01*
X54938095Y-75959580D02*
X54985714Y-76007200D01*
X54985714Y-76007200D02*
X55080952Y-76054819D01*
X55080952Y-76054819D02*
X55271428Y-76054819D01*
X55271428Y-76054819D02*
X55366666Y-76007200D01*
X55366666Y-76007200D02*
X55414285Y-75959580D01*
X55414285Y-75959580D02*
X55461904Y-75864342D01*
X55461904Y-75864342D02*
X55461904Y-75626247D01*
X55461904Y-75626247D02*
X55414285Y-75531009D01*
X55414285Y-75531009D02*
X55366666Y-75483390D01*
X55366666Y-75483390D02*
X55271428Y-75435771D01*
X55271428Y-75435771D02*
X55080952Y-75435771D01*
X55080952Y-75435771D02*
X54985714Y-75483390D01*
X54985714Y-75483390D02*
X54938095Y-75531009D01*
X54938095Y-75531009D02*
X54890476Y-75626247D01*
X54807142Y-80159580D02*
X54759523Y-80207200D01*
X54759523Y-80207200D02*
X54616666Y-80254819D01*
X54616666Y-80254819D02*
X54521428Y-80254819D01*
X54521428Y-80254819D02*
X54378571Y-80207200D01*
X54378571Y-80207200D02*
X54283333Y-80111961D01*
X54283333Y-80111961D02*
X54235714Y-80016723D01*
X54235714Y-80016723D02*
X54188095Y-79826247D01*
X54188095Y-79826247D02*
X54188095Y-79683390D01*
X54188095Y-79683390D02*
X54235714Y-79492914D01*
X54235714Y-79492914D02*
X54283333Y-79397676D01*
X54283333Y-79397676D02*
X54378571Y-79302438D01*
X54378571Y-79302438D02*
X54521428Y-79254819D01*
X54521428Y-79254819D02*
X54616666Y-79254819D01*
X54616666Y-79254819D02*
X54759523Y-79302438D01*
X54759523Y-79302438D02*
X54807142Y-79350057D01*
X55759523Y-80254819D02*
X55188095Y-80254819D01*
X55473809Y-80254819D02*
X55473809Y-79254819D01*
X55473809Y-79254819D02*
X55378571Y-79397676D01*
X55378571Y-79397676D02*
X55283333Y-79492914D01*
X55283333Y-79492914D02*
X55188095Y-79540533D01*
X56664285Y-79254819D02*
X56188095Y-79254819D01*
X56188095Y-79254819D02*
X56140476Y-79731009D01*
X56140476Y-79731009D02*
X56188095Y-79683390D01*
X56188095Y-79683390D02*
X56283333Y-79635771D01*
X56283333Y-79635771D02*
X56521428Y-79635771D01*
X56521428Y-79635771D02*
X56616666Y-79683390D01*
X56616666Y-79683390D02*
X56664285Y-79731009D01*
X56664285Y-79731009D02*
X56711904Y-79826247D01*
X56711904Y-79826247D02*
X56711904Y-80064342D01*
X56711904Y-80064342D02*
X56664285Y-80159580D01*
X56664285Y-80159580D02*
X56616666Y-80207200D01*
X56616666Y-80207200D02*
X56521428Y-80254819D01*
X56521428Y-80254819D02*
X56283333Y-80254819D01*
X56283333Y-80254819D02*
X56188095Y-80207200D01*
X56188095Y-80207200D02*
X56140476Y-80159580D01*
X76333333Y-65354819D02*
X76000000Y-64878628D01*
X75761905Y-65354819D02*
X75761905Y-64354819D01*
X75761905Y-64354819D02*
X76142857Y-64354819D01*
X76142857Y-64354819D02*
X76238095Y-64402438D01*
X76238095Y-64402438D02*
X76285714Y-64450057D01*
X76285714Y-64450057D02*
X76333333Y-64545295D01*
X76333333Y-64545295D02*
X76333333Y-64688152D01*
X76333333Y-64688152D02*
X76285714Y-64783390D01*
X76285714Y-64783390D02*
X76238095Y-64831009D01*
X76238095Y-64831009D02*
X76142857Y-64878628D01*
X76142857Y-64878628D02*
X75761905Y-64878628D01*
X76666667Y-64354819D02*
X77333333Y-64354819D01*
X77333333Y-64354819D02*
X76904762Y-65354819D01*
X65338095Y-73654819D02*
X65338095Y-74464342D01*
X65338095Y-74464342D02*
X65385714Y-74559580D01*
X65385714Y-74559580D02*
X65433333Y-74607200D01*
X65433333Y-74607200D02*
X65528571Y-74654819D01*
X65528571Y-74654819D02*
X65719047Y-74654819D01*
X65719047Y-74654819D02*
X65814285Y-74607200D01*
X65814285Y-74607200D02*
X65861904Y-74559580D01*
X65861904Y-74559580D02*
X65909523Y-74464342D01*
X65909523Y-74464342D02*
X65909523Y-73654819D01*
X66290476Y-73654819D02*
X66909523Y-73654819D01*
X66909523Y-73654819D02*
X66576190Y-74035771D01*
X66576190Y-74035771D02*
X66719047Y-74035771D01*
X66719047Y-74035771D02*
X66814285Y-74083390D01*
X66814285Y-74083390D02*
X66861904Y-74131009D01*
X66861904Y-74131009D02*
X66909523Y-74226247D01*
X66909523Y-74226247D02*
X66909523Y-74464342D01*
X66909523Y-74464342D02*
X66861904Y-74559580D01*
X66861904Y-74559580D02*
X66814285Y-74607200D01*
X66814285Y-74607200D02*
X66719047Y-74654819D01*
X66719047Y-74654819D02*
X66433333Y-74654819D01*
X66433333Y-74654819D02*
X66338095Y-74607200D01*
X66338095Y-74607200D02*
X66290476Y-74559580D01*
X50533333Y-79359580D02*
X50485714Y-79407200D01*
X50485714Y-79407200D02*
X50342857Y-79454819D01*
X50342857Y-79454819D02*
X50247619Y-79454819D01*
X50247619Y-79454819D02*
X50104762Y-79407200D01*
X50104762Y-79407200D02*
X50009524Y-79311961D01*
X50009524Y-79311961D02*
X49961905Y-79216723D01*
X49961905Y-79216723D02*
X49914286Y-79026247D01*
X49914286Y-79026247D02*
X49914286Y-78883390D01*
X49914286Y-78883390D02*
X49961905Y-78692914D01*
X49961905Y-78692914D02*
X50009524Y-78597676D01*
X50009524Y-78597676D02*
X50104762Y-78502438D01*
X50104762Y-78502438D02*
X50247619Y-78454819D01*
X50247619Y-78454819D02*
X50342857Y-78454819D01*
X50342857Y-78454819D02*
X50485714Y-78502438D01*
X50485714Y-78502438D02*
X50533333Y-78550057D01*
X51390476Y-78788152D02*
X51390476Y-79454819D01*
X51152381Y-78407200D02*
X50914286Y-79121485D01*
X50914286Y-79121485D02*
X51533333Y-79121485D01*
X62533333Y-75254819D02*
X62200000Y-74778628D01*
X61961905Y-75254819D02*
X61961905Y-74254819D01*
X61961905Y-74254819D02*
X62342857Y-74254819D01*
X62342857Y-74254819D02*
X62438095Y-74302438D01*
X62438095Y-74302438D02*
X62485714Y-74350057D01*
X62485714Y-74350057D02*
X62533333Y-74445295D01*
X62533333Y-74445295D02*
X62533333Y-74588152D01*
X62533333Y-74588152D02*
X62485714Y-74683390D01*
X62485714Y-74683390D02*
X62438095Y-74731009D01*
X62438095Y-74731009D02*
X62342857Y-74778628D01*
X62342857Y-74778628D02*
X61961905Y-74778628D01*
X63438095Y-74254819D02*
X62961905Y-74254819D01*
X62961905Y-74254819D02*
X62914286Y-74731009D01*
X62914286Y-74731009D02*
X62961905Y-74683390D01*
X62961905Y-74683390D02*
X63057143Y-74635771D01*
X63057143Y-74635771D02*
X63295238Y-74635771D01*
X63295238Y-74635771D02*
X63390476Y-74683390D01*
X63390476Y-74683390D02*
X63438095Y-74731009D01*
X63438095Y-74731009D02*
X63485714Y-74826247D01*
X63485714Y-74826247D02*
X63485714Y-75064342D01*
X63485714Y-75064342D02*
X63438095Y-75159580D01*
X63438095Y-75159580D02*
X63390476Y-75207200D01*
X63390476Y-75207200D02*
X63295238Y-75254819D01*
X63295238Y-75254819D02*
X63057143Y-75254819D01*
X63057143Y-75254819D02*
X62961905Y-75207200D01*
X62961905Y-75207200D02*
X62914286Y-75159580D01*
X39383333Y-77909580D02*
X39335714Y-77957200D01*
X39335714Y-77957200D02*
X39192857Y-78004819D01*
X39192857Y-78004819D02*
X39097619Y-78004819D01*
X39097619Y-78004819D02*
X38954762Y-77957200D01*
X38954762Y-77957200D02*
X38859524Y-77861961D01*
X38859524Y-77861961D02*
X38811905Y-77766723D01*
X38811905Y-77766723D02*
X38764286Y-77576247D01*
X38764286Y-77576247D02*
X38764286Y-77433390D01*
X38764286Y-77433390D02*
X38811905Y-77242914D01*
X38811905Y-77242914D02*
X38859524Y-77147676D01*
X38859524Y-77147676D02*
X38954762Y-77052438D01*
X38954762Y-77052438D02*
X39097619Y-77004819D01*
X39097619Y-77004819D02*
X39192857Y-77004819D01*
X39192857Y-77004819D02*
X39335714Y-77052438D01*
X39335714Y-77052438D02*
X39383333Y-77100057D01*
X39954762Y-77433390D02*
X39859524Y-77385771D01*
X39859524Y-77385771D02*
X39811905Y-77338152D01*
X39811905Y-77338152D02*
X39764286Y-77242914D01*
X39764286Y-77242914D02*
X39764286Y-77195295D01*
X39764286Y-77195295D02*
X39811905Y-77100057D01*
X39811905Y-77100057D02*
X39859524Y-77052438D01*
X39859524Y-77052438D02*
X39954762Y-77004819D01*
X39954762Y-77004819D02*
X40145238Y-77004819D01*
X40145238Y-77004819D02*
X40240476Y-77052438D01*
X40240476Y-77052438D02*
X40288095Y-77100057D01*
X40288095Y-77100057D02*
X40335714Y-77195295D01*
X40335714Y-77195295D02*
X40335714Y-77242914D01*
X40335714Y-77242914D02*
X40288095Y-77338152D01*
X40288095Y-77338152D02*
X40240476Y-77385771D01*
X40240476Y-77385771D02*
X40145238Y-77433390D01*
X40145238Y-77433390D02*
X39954762Y-77433390D01*
X39954762Y-77433390D02*
X39859524Y-77481009D01*
X39859524Y-77481009D02*
X39811905Y-77528628D01*
X39811905Y-77528628D02*
X39764286Y-77623866D01*
X39764286Y-77623866D02*
X39764286Y-77814342D01*
X39764286Y-77814342D02*
X39811905Y-77909580D01*
X39811905Y-77909580D02*
X39859524Y-77957200D01*
X39859524Y-77957200D02*
X39954762Y-78004819D01*
X39954762Y-78004819D02*
X40145238Y-78004819D01*
X40145238Y-78004819D02*
X40240476Y-77957200D01*
X40240476Y-77957200D02*
X40288095Y-77909580D01*
X40288095Y-77909580D02*
X40335714Y-77814342D01*
X40335714Y-77814342D02*
X40335714Y-77623866D01*
X40335714Y-77623866D02*
X40288095Y-77528628D01*
X40288095Y-77528628D02*
X40240476Y-77481009D01*
X40240476Y-77481009D02*
X40145238Y-77433390D01*
X56333333Y-67754819D02*
X56000000Y-67278628D01*
X55761905Y-67754819D02*
X55761905Y-66754819D01*
X55761905Y-66754819D02*
X56142857Y-66754819D01*
X56142857Y-66754819D02*
X56238095Y-66802438D01*
X56238095Y-66802438D02*
X56285714Y-66850057D01*
X56285714Y-66850057D02*
X56333333Y-66945295D01*
X56333333Y-66945295D02*
X56333333Y-67088152D01*
X56333333Y-67088152D02*
X56285714Y-67183390D01*
X56285714Y-67183390D02*
X56238095Y-67231009D01*
X56238095Y-67231009D02*
X56142857Y-67278628D01*
X56142857Y-67278628D02*
X55761905Y-67278628D01*
X56714286Y-66850057D02*
X56761905Y-66802438D01*
X56761905Y-66802438D02*
X56857143Y-66754819D01*
X56857143Y-66754819D02*
X57095238Y-66754819D01*
X57095238Y-66754819D02*
X57190476Y-66802438D01*
X57190476Y-66802438D02*
X57238095Y-66850057D01*
X57238095Y-66850057D02*
X57285714Y-66945295D01*
X57285714Y-66945295D02*
X57285714Y-67040533D01*
X57285714Y-67040533D02*
X57238095Y-67183390D01*
X57238095Y-67183390D02*
X56666667Y-67754819D01*
X56666667Y-67754819D02*
X57285714Y-67754819D01*
X52957142Y-77154819D02*
X52623809Y-76678628D01*
X52385714Y-77154819D02*
X52385714Y-76154819D01*
X52385714Y-76154819D02*
X52766666Y-76154819D01*
X52766666Y-76154819D02*
X52861904Y-76202438D01*
X52861904Y-76202438D02*
X52909523Y-76250057D01*
X52909523Y-76250057D02*
X52957142Y-76345295D01*
X52957142Y-76345295D02*
X52957142Y-76488152D01*
X52957142Y-76488152D02*
X52909523Y-76583390D01*
X52909523Y-76583390D02*
X52861904Y-76631009D01*
X52861904Y-76631009D02*
X52766666Y-76678628D01*
X52766666Y-76678628D02*
X52385714Y-76678628D01*
X53909523Y-77154819D02*
X53338095Y-77154819D01*
X53623809Y-77154819D02*
X53623809Y-76154819D01*
X53623809Y-76154819D02*
X53528571Y-76297676D01*
X53528571Y-76297676D02*
X53433333Y-76392914D01*
X53433333Y-76392914D02*
X53338095Y-76440533D01*
X54242857Y-76154819D02*
X54909523Y-76154819D01*
X54909523Y-76154819D02*
X54480952Y-77154819D01*
X42033333Y-67919580D02*
X41985714Y-67967200D01*
X41985714Y-67967200D02*
X41842857Y-68014819D01*
X41842857Y-68014819D02*
X41747619Y-68014819D01*
X41747619Y-68014819D02*
X41604762Y-67967200D01*
X41604762Y-67967200D02*
X41509524Y-67871961D01*
X41509524Y-67871961D02*
X41461905Y-67776723D01*
X41461905Y-67776723D02*
X41414286Y-67586247D01*
X41414286Y-67586247D02*
X41414286Y-67443390D01*
X41414286Y-67443390D02*
X41461905Y-67252914D01*
X41461905Y-67252914D02*
X41509524Y-67157676D01*
X41509524Y-67157676D02*
X41604762Y-67062438D01*
X41604762Y-67062438D02*
X41747619Y-67014819D01*
X41747619Y-67014819D02*
X41842857Y-67014819D01*
X41842857Y-67014819D02*
X41985714Y-67062438D01*
X41985714Y-67062438D02*
X42033333Y-67110057D01*
X42985714Y-68014819D02*
X42414286Y-68014819D01*
X42700000Y-68014819D02*
X42700000Y-67014819D01*
X42700000Y-67014819D02*
X42604762Y-67157676D01*
X42604762Y-67157676D02*
X42509524Y-67252914D01*
X42509524Y-67252914D02*
X42414286Y-67300533D01*
X83933333Y-63854819D02*
X83600000Y-63378628D01*
X83361905Y-63854819D02*
X83361905Y-62854819D01*
X83361905Y-62854819D02*
X83742857Y-62854819D01*
X83742857Y-62854819D02*
X83838095Y-62902438D01*
X83838095Y-62902438D02*
X83885714Y-62950057D01*
X83885714Y-62950057D02*
X83933333Y-63045295D01*
X83933333Y-63045295D02*
X83933333Y-63188152D01*
X83933333Y-63188152D02*
X83885714Y-63283390D01*
X83885714Y-63283390D02*
X83838095Y-63331009D01*
X83838095Y-63331009D02*
X83742857Y-63378628D01*
X83742857Y-63378628D02*
X83361905Y-63378628D01*
X84504762Y-63283390D02*
X84409524Y-63235771D01*
X84409524Y-63235771D02*
X84361905Y-63188152D01*
X84361905Y-63188152D02*
X84314286Y-63092914D01*
X84314286Y-63092914D02*
X84314286Y-63045295D01*
X84314286Y-63045295D02*
X84361905Y-62950057D01*
X84361905Y-62950057D02*
X84409524Y-62902438D01*
X84409524Y-62902438D02*
X84504762Y-62854819D01*
X84504762Y-62854819D02*
X84695238Y-62854819D01*
X84695238Y-62854819D02*
X84790476Y-62902438D01*
X84790476Y-62902438D02*
X84838095Y-62950057D01*
X84838095Y-62950057D02*
X84885714Y-63045295D01*
X84885714Y-63045295D02*
X84885714Y-63092914D01*
X84885714Y-63092914D02*
X84838095Y-63188152D01*
X84838095Y-63188152D02*
X84790476Y-63235771D01*
X84790476Y-63235771D02*
X84695238Y-63283390D01*
X84695238Y-63283390D02*
X84504762Y-63283390D01*
X84504762Y-63283390D02*
X84409524Y-63331009D01*
X84409524Y-63331009D02*
X84361905Y-63378628D01*
X84361905Y-63378628D02*
X84314286Y-63473866D01*
X84314286Y-63473866D02*
X84314286Y-63664342D01*
X84314286Y-63664342D02*
X84361905Y-63759580D01*
X84361905Y-63759580D02*
X84409524Y-63807200D01*
X84409524Y-63807200D02*
X84504762Y-63854819D01*
X84504762Y-63854819D02*
X84695238Y-63854819D01*
X84695238Y-63854819D02*
X84790476Y-63807200D01*
X84790476Y-63807200D02*
X84838095Y-63759580D01*
X84838095Y-63759580D02*
X84885714Y-63664342D01*
X84885714Y-63664342D02*
X84885714Y-63473866D01*
X84885714Y-63473866D02*
X84838095Y-63378628D01*
X84838095Y-63378628D02*
X84790476Y-63331009D01*
X84790476Y-63331009D02*
X84695238Y-63283390D01*
X68239819Y-57733333D02*
X68954104Y-57733333D01*
X68954104Y-57733333D02*
X69096961Y-57780952D01*
X69096961Y-57780952D02*
X69192200Y-57876190D01*
X69192200Y-57876190D02*
X69239819Y-58019047D01*
X69239819Y-58019047D02*
X69239819Y-58114285D01*
X69239819Y-56733333D02*
X69239819Y-57304761D01*
X69239819Y-57019047D02*
X68239819Y-57019047D01*
X68239819Y-57019047D02*
X68382676Y-57114285D01*
X68382676Y-57114285D02*
X68477914Y-57209523D01*
X68477914Y-57209523D02*
X68525533Y-57304761D01*
X48333333Y-63859580D02*
X48285714Y-63907200D01*
X48285714Y-63907200D02*
X48142857Y-63954819D01*
X48142857Y-63954819D02*
X48047619Y-63954819D01*
X48047619Y-63954819D02*
X47904762Y-63907200D01*
X47904762Y-63907200D02*
X47809524Y-63811961D01*
X47809524Y-63811961D02*
X47761905Y-63716723D01*
X47761905Y-63716723D02*
X47714286Y-63526247D01*
X47714286Y-63526247D02*
X47714286Y-63383390D01*
X47714286Y-63383390D02*
X47761905Y-63192914D01*
X47761905Y-63192914D02*
X47809524Y-63097676D01*
X47809524Y-63097676D02*
X47904762Y-63002438D01*
X47904762Y-63002438D02*
X48047619Y-62954819D01*
X48047619Y-62954819D02*
X48142857Y-62954819D01*
X48142857Y-62954819D02*
X48285714Y-63002438D01*
X48285714Y-63002438D02*
X48333333Y-63050057D01*
X49238095Y-62954819D02*
X48761905Y-62954819D01*
X48761905Y-62954819D02*
X48714286Y-63431009D01*
X48714286Y-63431009D02*
X48761905Y-63383390D01*
X48761905Y-63383390D02*
X48857143Y-63335771D01*
X48857143Y-63335771D02*
X49095238Y-63335771D01*
X49095238Y-63335771D02*
X49190476Y-63383390D01*
X49190476Y-63383390D02*
X49238095Y-63431009D01*
X49238095Y-63431009D02*
X49285714Y-63526247D01*
X49285714Y-63526247D02*
X49285714Y-63764342D01*
X49285714Y-63764342D02*
X49238095Y-63859580D01*
X49238095Y-63859580D02*
X49190476Y-63907200D01*
X49190476Y-63907200D02*
X49095238Y-63954819D01*
X49095238Y-63954819D02*
X48857143Y-63954819D01*
X48857143Y-63954819D02*
X48761905Y-63907200D01*
X48761905Y-63907200D02*
X48714286Y-63859580D01*
X66757142Y-78354819D02*
X66423809Y-77878628D01*
X66185714Y-78354819D02*
X66185714Y-77354819D01*
X66185714Y-77354819D02*
X66566666Y-77354819D01*
X66566666Y-77354819D02*
X66661904Y-77402438D01*
X66661904Y-77402438D02*
X66709523Y-77450057D01*
X66709523Y-77450057D02*
X66757142Y-77545295D01*
X66757142Y-77545295D02*
X66757142Y-77688152D01*
X66757142Y-77688152D02*
X66709523Y-77783390D01*
X66709523Y-77783390D02*
X66661904Y-77831009D01*
X66661904Y-77831009D02*
X66566666Y-77878628D01*
X66566666Y-77878628D02*
X66185714Y-77878628D01*
X67709523Y-78354819D02*
X67138095Y-78354819D01*
X67423809Y-78354819D02*
X67423809Y-77354819D01*
X67423809Y-77354819D02*
X67328571Y-77497676D01*
X67328571Y-77497676D02*
X67233333Y-77592914D01*
X67233333Y-77592914D02*
X67138095Y-77640533D01*
X68661904Y-78354819D02*
X68090476Y-78354819D01*
X68376190Y-78354819D02*
X68376190Y-77354819D01*
X68376190Y-77354819D02*
X68280952Y-77497676D01*
X68280952Y-77497676D02*
X68185714Y-77592914D01*
X68185714Y-77592914D02*
X68090476Y-77640533D01*
X39257142Y-69159580D02*
X39209523Y-69207200D01*
X39209523Y-69207200D02*
X39066666Y-69254819D01*
X39066666Y-69254819D02*
X38971428Y-69254819D01*
X38971428Y-69254819D02*
X38828571Y-69207200D01*
X38828571Y-69207200D02*
X38733333Y-69111961D01*
X38733333Y-69111961D02*
X38685714Y-69016723D01*
X38685714Y-69016723D02*
X38638095Y-68826247D01*
X38638095Y-68826247D02*
X38638095Y-68683390D01*
X38638095Y-68683390D02*
X38685714Y-68492914D01*
X38685714Y-68492914D02*
X38733333Y-68397676D01*
X38733333Y-68397676D02*
X38828571Y-68302438D01*
X38828571Y-68302438D02*
X38971428Y-68254819D01*
X38971428Y-68254819D02*
X39066666Y-68254819D01*
X39066666Y-68254819D02*
X39209523Y-68302438D01*
X39209523Y-68302438D02*
X39257142Y-68350057D01*
X40209523Y-69254819D02*
X39638095Y-69254819D01*
X39923809Y-69254819D02*
X39923809Y-68254819D01*
X39923809Y-68254819D02*
X39828571Y-68397676D01*
X39828571Y-68397676D02*
X39733333Y-68492914D01*
X39733333Y-68492914D02*
X39638095Y-68540533D01*
X40828571Y-68254819D02*
X40923809Y-68254819D01*
X40923809Y-68254819D02*
X41019047Y-68302438D01*
X41019047Y-68302438D02*
X41066666Y-68350057D01*
X41066666Y-68350057D02*
X41114285Y-68445295D01*
X41114285Y-68445295D02*
X41161904Y-68635771D01*
X41161904Y-68635771D02*
X41161904Y-68873866D01*
X41161904Y-68873866D02*
X41114285Y-69064342D01*
X41114285Y-69064342D02*
X41066666Y-69159580D01*
X41066666Y-69159580D02*
X41019047Y-69207200D01*
X41019047Y-69207200D02*
X40923809Y-69254819D01*
X40923809Y-69254819D02*
X40828571Y-69254819D01*
X40828571Y-69254819D02*
X40733333Y-69207200D01*
X40733333Y-69207200D02*
X40685714Y-69159580D01*
X40685714Y-69159580D02*
X40638095Y-69064342D01*
X40638095Y-69064342D02*
X40590476Y-68873866D01*
X40590476Y-68873866D02*
X40590476Y-68635771D01*
X40590476Y-68635771D02*
X40638095Y-68445295D01*
X40638095Y-68445295D02*
X40685714Y-68350057D01*
X40685714Y-68350057D02*
X40733333Y-68302438D01*
X40733333Y-68302438D02*
X40828571Y-68254819D01*
X79261905Y-87754819D02*
X79261905Y-86754819D01*
X79261905Y-86754819D02*
X79500000Y-86754819D01*
X79500000Y-86754819D02*
X79642857Y-86802438D01*
X79642857Y-86802438D02*
X79738095Y-86897676D01*
X79738095Y-86897676D02*
X79785714Y-86992914D01*
X79785714Y-86992914D02*
X79833333Y-87183390D01*
X79833333Y-87183390D02*
X79833333Y-87326247D01*
X79833333Y-87326247D02*
X79785714Y-87516723D01*
X79785714Y-87516723D02*
X79738095Y-87611961D01*
X79738095Y-87611961D02*
X79642857Y-87707200D01*
X79642857Y-87707200D02*
X79500000Y-87754819D01*
X79500000Y-87754819D02*
X79261905Y-87754819D01*
X80785714Y-87754819D02*
X80214286Y-87754819D01*
X80500000Y-87754819D02*
X80500000Y-86754819D01*
X80500000Y-86754819D02*
X80404762Y-86897676D01*
X80404762Y-86897676D02*
X80309524Y-86992914D01*
X80309524Y-86992914D02*
X80214286Y-87040533D01*
X44338095Y-80654819D02*
X44338095Y-81464342D01*
X44338095Y-81464342D02*
X44385714Y-81559580D01*
X44385714Y-81559580D02*
X44433333Y-81607200D01*
X44433333Y-81607200D02*
X44528571Y-81654819D01*
X44528571Y-81654819D02*
X44719047Y-81654819D01*
X44719047Y-81654819D02*
X44814285Y-81607200D01*
X44814285Y-81607200D02*
X44861904Y-81559580D01*
X44861904Y-81559580D02*
X44909523Y-81464342D01*
X44909523Y-81464342D02*
X44909523Y-80654819D01*
X45338095Y-80750057D02*
X45385714Y-80702438D01*
X45385714Y-80702438D02*
X45480952Y-80654819D01*
X45480952Y-80654819D02*
X45719047Y-80654819D01*
X45719047Y-80654819D02*
X45814285Y-80702438D01*
X45814285Y-80702438D02*
X45861904Y-80750057D01*
X45861904Y-80750057D02*
X45909523Y-80845295D01*
X45909523Y-80845295D02*
X45909523Y-80940533D01*
X45909523Y-80940533D02*
X45861904Y-81083390D01*
X45861904Y-81083390D02*
X45290476Y-81654819D01*
X45290476Y-81654819D02*
X45909523Y-81654819D01*
X69857142Y-82054819D02*
X69523809Y-81578628D01*
X69285714Y-82054819D02*
X69285714Y-81054819D01*
X69285714Y-81054819D02*
X69666666Y-81054819D01*
X69666666Y-81054819D02*
X69761904Y-81102438D01*
X69761904Y-81102438D02*
X69809523Y-81150057D01*
X69809523Y-81150057D02*
X69857142Y-81245295D01*
X69857142Y-81245295D02*
X69857142Y-81388152D01*
X69857142Y-81388152D02*
X69809523Y-81483390D01*
X69809523Y-81483390D02*
X69761904Y-81531009D01*
X69761904Y-81531009D02*
X69666666Y-81578628D01*
X69666666Y-81578628D02*
X69285714Y-81578628D01*
X70809523Y-82054819D02*
X70238095Y-82054819D01*
X70523809Y-82054819D02*
X70523809Y-81054819D01*
X70523809Y-81054819D02*
X70428571Y-81197676D01*
X70428571Y-81197676D02*
X70333333Y-81292914D01*
X70333333Y-81292914D02*
X70238095Y-81340533D01*
X71190476Y-81150057D02*
X71238095Y-81102438D01*
X71238095Y-81102438D02*
X71333333Y-81054819D01*
X71333333Y-81054819D02*
X71571428Y-81054819D01*
X71571428Y-81054819D02*
X71666666Y-81102438D01*
X71666666Y-81102438D02*
X71714285Y-81150057D01*
X71714285Y-81150057D02*
X71761904Y-81245295D01*
X71761904Y-81245295D02*
X71761904Y-81340533D01*
X71761904Y-81340533D02*
X71714285Y-81483390D01*
X71714285Y-81483390D02*
X71142857Y-82054819D01*
X71142857Y-82054819D02*
X71761904Y-82054819D01*
X77454761Y-75012557D02*
X77359523Y-74964938D01*
X77359523Y-74964938D02*
X77264285Y-74869700D01*
X77264285Y-74869700D02*
X77121428Y-74726842D01*
X77121428Y-74726842D02*
X77026190Y-74679223D01*
X77026190Y-74679223D02*
X76930952Y-74679223D01*
X76978571Y-74917319D02*
X76883333Y-74869700D01*
X76883333Y-74869700D02*
X76788095Y-74774461D01*
X76788095Y-74774461D02*
X76740476Y-74583985D01*
X76740476Y-74583985D02*
X76740476Y-74250652D01*
X76740476Y-74250652D02*
X76788095Y-74060176D01*
X76788095Y-74060176D02*
X76883333Y-73964938D01*
X76883333Y-73964938D02*
X76978571Y-73917319D01*
X76978571Y-73917319D02*
X77169047Y-73917319D01*
X77169047Y-73917319D02*
X77264285Y-73964938D01*
X77264285Y-73964938D02*
X77359523Y-74060176D01*
X77359523Y-74060176D02*
X77407142Y-74250652D01*
X77407142Y-74250652D02*
X77407142Y-74583985D01*
X77407142Y-74583985D02*
X77359523Y-74774461D01*
X77359523Y-74774461D02*
X77264285Y-74869700D01*
X77264285Y-74869700D02*
X77169047Y-74917319D01*
X77169047Y-74917319D02*
X76978571Y-74917319D01*
X78264285Y-74250652D02*
X78264285Y-74917319D01*
X78026190Y-73869700D02*
X77788095Y-74583985D01*
X77788095Y-74583985D02*
X78407142Y-74583985D01*
X49007200Y-59633332D02*
X49054819Y-59490475D01*
X49054819Y-59490475D02*
X49054819Y-59252380D01*
X49054819Y-59252380D02*
X49007200Y-59157142D01*
X49007200Y-59157142D02*
X48959580Y-59109523D01*
X48959580Y-59109523D02*
X48864342Y-59061904D01*
X48864342Y-59061904D02*
X48769104Y-59061904D01*
X48769104Y-59061904D02*
X48673866Y-59109523D01*
X48673866Y-59109523D02*
X48626247Y-59157142D01*
X48626247Y-59157142D02*
X48578628Y-59252380D01*
X48578628Y-59252380D02*
X48531009Y-59442856D01*
X48531009Y-59442856D02*
X48483390Y-59538094D01*
X48483390Y-59538094D02*
X48435771Y-59585713D01*
X48435771Y-59585713D02*
X48340533Y-59633332D01*
X48340533Y-59633332D02*
X48245295Y-59633332D01*
X48245295Y-59633332D02*
X48150057Y-59585713D01*
X48150057Y-59585713D02*
X48102438Y-59538094D01*
X48102438Y-59538094D02*
X48054819Y-59442856D01*
X48054819Y-59442856D02*
X48054819Y-59204761D01*
X48054819Y-59204761D02*
X48102438Y-59061904D01*
X48054819Y-58728570D02*
X49054819Y-58490475D01*
X49054819Y-58490475D02*
X48340533Y-58299999D01*
X48340533Y-58299999D02*
X49054819Y-58109523D01*
X49054819Y-58109523D02*
X48054819Y-57871428D01*
X48150057Y-57538094D02*
X48102438Y-57490475D01*
X48102438Y-57490475D02*
X48054819Y-57395237D01*
X48054819Y-57395237D02*
X48054819Y-57157142D01*
X48054819Y-57157142D02*
X48102438Y-57061904D01*
X48102438Y-57061904D02*
X48150057Y-57014285D01*
X48150057Y-57014285D02*
X48245295Y-56966666D01*
X48245295Y-56966666D02*
X48340533Y-56966666D01*
X48340533Y-56966666D02*
X48483390Y-57014285D01*
X48483390Y-57014285D02*
X49054819Y-57585713D01*
X49054819Y-57585713D02*
X49054819Y-56966666D01*
X35223809Y-74678628D02*
X35223809Y-75154819D01*
X34890476Y-74154819D02*
X35223809Y-74678628D01*
X35223809Y-74678628D02*
X35557142Y-74154819D01*
X36414285Y-75154819D02*
X35842857Y-75154819D01*
X36128571Y-75154819D02*
X36128571Y-74154819D01*
X36128571Y-74154819D02*
X36033333Y-74297676D01*
X36033333Y-74297676D02*
X35938095Y-74392914D01*
X35938095Y-74392914D02*
X35842857Y-74440533D01*
X69004761Y-76450057D02*
X68909523Y-76402438D01*
X68909523Y-76402438D02*
X68814285Y-76307200D01*
X68814285Y-76307200D02*
X68671428Y-76164342D01*
X68671428Y-76164342D02*
X68576190Y-76116723D01*
X68576190Y-76116723D02*
X68480952Y-76116723D01*
X68528571Y-76354819D02*
X68433333Y-76307200D01*
X68433333Y-76307200D02*
X68338095Y-76211961D01*
X68338095Y-76211961D02*
X68290476Y-76021485D01*
X68290476Y-76021485D02*
X68290476Y-75688152D01*
X68290476Y-75688152D02*
X68338095Y-75497676D01*
X68338095Y-75497676D02*
X68433333Y-75402438D01*
X68433333Y-75402438D02*
X68528571Y-75354819D01*
X68528571Y-75354819D02*
X68719047Y-75354819D01*
X68719047Y-75354819D02*
X68814285Y-75402438D01*
X68814285Y-75402438D02*
X68909523Y-75497676D01*
X68909523Y-75497676D02*
X68957142Y-75688152D01*
X68957142Y-75688152D02*
X68957142Y-76021485D01*
X68957142Y-76021485D02*
X68909523Y-76211961D01*
X68909523Y-76211961D02*
X68814285Y-76307200D01*
X68814285Y-76307200D02*
X68719047Y-76354819D01*
X68719047Y-76354819D02*
X68528571Y-76354819D01*
X69290476Y-75354819D02*
X69909523Y-75354819D01*
X69909523Y-75354819D02*
X69576190Y-75735771D01*
X69576190Y-75735771D02*
X69719047Y-75735771D01*
X69719047Y-75735771D02*
X69814285Y-75783390D01*
X69814285Y-75783390D02*
X69861904Y-75831009D01*
X69861904Y-75831009D02*
X69909523Y-75926247D01*
X69909523Y-75926247D02*
X69909523Y-76164342D01*
X69909523Y-76164342D02*
X69861904Y-76259580D01*
X69861904Y-76259580D02*
X69814285Y-76307200D01*
X69814285Y-76307200D02*
X69719047Y-76354819D01*
X69719047Y-76354819D02*
X69433333Y-76354819D01*
X69433333Y-76354819D02*
X69338095Y-76307200D01*
X69338095Y-76307200D02*
X69290476Y-76259580D01*
X63557142Y-88159580D02*
X63509523Y-88207200D01*
X63509523Y-88207200D02*
X63366666Y-88254819D01*
X63366666Y-88254819D02*
X63271428Y-88254819D01*
X63271428Y-88254819D02*
X63128571Y-88207200D01*
X63128571Y-88207200D02*
X63033333Y-88111961D01*
X63033333Y-88111961D02*
X62985714Y-88016723D01*
X62985714Y-88016723D02*
X62938095Y-87826247D01*
X62938095Y-87826247D02*
X62938095Y-87683390D01*
X62938095Y-87683390D02*
X62985714Y-87492914D01*
X62985714Y-87492914D02*
X63033333Y-87397676D01*
X63033333Y-87397676D02*
X63128571Y-87302438D01*
X63128571Y-87302438D02*
X63271428Y-87254819D01*
X63271428Y-87254819D02*
X63366666Y-87254819D01*
X63366666Y-87254819D02*
X63509523Y-87302438D01*
X63509523Y-87302438D02*
X63557142Y-87350057D01*
X64509523Y-88254819D02*
X63938095Y-88254819D01*
X64223809Y-88254819D02*
X64223809Y-87254819D01*
X64223809Y-87254819D02*
X64128571Y-87397676D01*
X64128571Y-87397676D02*
X64033333Y-87492914D01*
X64033333Y-87492914D02*
X63938095Y-87540533D01*
X65366666Y-87588152D02*
X65366666Y-88254819D01*
X65128571Y-87207200D02*
X64890476Y-87921485D01*
X64890476Y-87921485D02*
X65509523Y-87921485D01*
X84333333Y-57054819D02*
X84000000Y-56578628D01*
X83761905Y-57054819D02*
X83761905Y-56054819D01*
X83761905Y-56054819D02*
X84142857Y-56054819D01*
X84142857Y-56054819D02*
X84238095Y-56102438D01*
X84238095Y-56102438D02*
X84285714Y-56150057D01*
X84285714Y-56150057D02*
X84333333Y-56245295D01*
X84333333Y-56245295D02*
X84333333Y-56388152D01*
X84333333Y-56388152D02*
X84285714Y-56483390D01*
X84285714Y-56483390D02*
X84238095Y-56531009D01*
X84238095Y-56531009D02*
X84142857Y-56578628D01*
X84142857Y-56578628D02*
X83761905Y-56578628D01*
X84809524Y-57054819D02*
X85000000Y-57054819D01*
X85000000Y-57054819D02*
X85095238Y-57007200D01*
X85095238Y-57007200D02*
X85142857Y-56959580D01*
X85142857Y-56959580D02*
X85238095Y-56816723D01*
X85238095Y-56816723D02*
X85285714Y-56626247D01*
X85285714Y-56626247D02*
X85285714Y-56245295D01*
X85285714Y-56245295D02*
X85238095Y-56150057D01*
X85238095Y-56150057D02*
X85190476Y-56102438D01*
X85190476Y-56102438D02*
X85095238Y-56054819D01*
X85095238Y-56054819D02*
X84904762Y-56054819D01*
X84904762Y-56054819D02*
X84809524Y-56102438D01*
X84809524Y-56102438D02*
X84761905Y-56150057D01*
X84761905Y-56150057D02*
X84714286Y-56245295D01*
X84714286Y-56245295D02*
X84714286Y-56483390D01*
X84714286Y-56483390D02*
X84761905Y-56578628D01*
X84761905Y-56578628D02*
X84809524Y-56626247D01*
X84809524Y-56626247D02*
X84904762Y-56673866D01*
X84904762Y-56673866D02*
X85095238Y-56673866D01*
X85095238Y-56673866D02*
X85190476Y-56626247D01*
X85190476Y-56626247D02*
X85238095Y-56578628D01*
X85238095Y-56578628D02*
X85285714Y-56483390D01*
X63038095Y-91254819D02*
X63038095Y-92064342D01*
X63038095Y-92064342D02*
X63085714Y-92159580D01*
X63085714Y-92159580D02*
X63133333Y-92207200D01*
X63133333Y-92207200D02*
X63228571Y-92254819D01*
X63228571Y-92254819D02*
X63419047Y-92254819D01*
X63419047Y-92254819D02*
X63514285Y-92207200D01*
X63514285Y-92207200D02*
X63561904Y-92159580D01*
X63561904Y-92159580D02*
X63609523Y-92064342D01*
X63609523Y-92064342D02*
X63609523Y-91254819D01*
X64514285Y-91588152D02*
X64514285Y-92254819D01*
X64276190Y-91207200D02*
X64038095Y-91921485D01*
X64038095Y-91921485D02*
X64657142Y-91921485D01*
X42166666Y-79131009D02*
X41833333Y-79131009D01*
X41833333Y-79654819D02*
X41833333Y-78654819D01*
X41833333Y-78654819D02*
X42309523Y-78654819D01*
X43023809Y-79131009D02*
X43166666Y-79178628D01*
X43166666Y-79178628D02*
X43214285Y-79226247D01*
X43214285Y-79226247D02*
X43261904Y-79321485D01*
X43261904Y-79321485D02*
X43261904Y-79464342D01*
X43261904Y-79464342D02*
X43214285Y-79559580D01*
X43214285Y-79559580D02*
X43166666Y-79607200D01*
X43166666Y-79607200D02*
X43071428Y-79654819D01*
X43071428Y-79654819D02*
X42690476Y-79654819D01*
X42690476Y-79654819D02*
X42690476Y-78654819D01*
X42690476Y-78654819D02*
X43023809Y-78654819D01*
X43023809Y-78654819D02*
X43119047Y-78702438D01*
X43119047Y-78702438D02*
X43166666Y-78750057D01*
X43166666Y-78750057D02*
X43214285Y-78845295D01*
X43214285Y-78845295D02*
X43214285Y-78940533D01*
X43214285Y-78940533D02*
X43166666Y-79035771D01*
X43166666Y-79035771D02*
X43119047Y-79083390D01*
X43119047Y-79083390D02*
X43023809Y-79131009D01*
X43023809Y-79131009D02*
X42690476Y-79131009D01*
X44214285Y-79654819D02*
X43642857Y-79654819D01*
X43928571Y-79654819D02*
X43928571Y-78654819D01*
X43928571Y-78654819D02*
X43833333Y-78797676D01*
X43833333Y-78797676D02*
X43738095Y-78892914D01*
X43738095Y-78892914D02*
X43642857Y-78940533D01*
X39383333Y-76409580D02*
X39335714Y-76457200D01*
X39335714Y-76457200D02*
X39192857Y-76504819D01*
X39192857Y-76504819D02*
X39097619Y-76504819D01*
X39097619Y-76504819D02*
X38954762Y-76457200D01*
X38954762Y-76457200D02*
X38859524Y-76361961D01*
X38859524Y-76361961D02*
X38811905Y-76266723D01*
X38811905Y-76266723D02*
X38764286Y-76076247D01*
X38764286Y-76076247D02*
X38764286Y-75933390D01*
X38764286Y-75933390D02*
X38811905Y-75742914D01*
X38811905Y-75742914D02*
X38859524Y-75647676D01*
X38859524Y-75647676D02*
X38954762Y-75552438D01*
X38954762Y-75552438D02*
X39097619Y-75504819D01*
X39097619Y-75504819D02*
X39192857Y-75504819D01*
X39192857Y-75504819D02*
X39335714Y-75552438D01*
X39335714Y-75552438D02*
X39383333Y-75600057D01*
X39716667Y-75504819D02*
X40383333Y-75504819D01*
X40383333Y-75504819D02*
X39954762Y-76504819D01*
X72247142Y-74254819D02*
X71913809Y-73778628D01*
X71675714Y-74254819D02*
X71675714Y-73254819D01*
X71675714Y-73254819D02*
X72056666Y-73254819D01*
X72056666Y-73254819D02*
X72151904Y-73302438D01*
X72151904Y-73302438D02*
X72199523Y-73350057D01*
X72199523Y-73350057D02*
X72247142Y-73445295D01*
X72247142Y-73445295D02*
X72247142Y-73588152D01*
X72247142Y-73588152D02*
X72199523Y-73683390D01*
X72199523Y-73683390D02*
X72151904Y-73731009D01*
X72151904Y-73731009D02*
X72056666Y-73778628D01*
X72056666Y-73778628D02*
X71675714Y-73778628D01*
X73199523Y-74254819D02*
X72628095Y-74254819D01*
X72913809Y-74254819D02*
X72913809Y-73254819D01*
X72913809Y-73254819D02*
X72818571Y-73397676D01*
X72818571Y-73397676D02*
X72723333Y-73492914D01*
X72723333Y-73492914D02*
X72628095Y-73540533D01*
X74104285Y-73254819D02*
X73628095Y-73254819D01*
X73628095Y-73254819D02*
X73580476Y-73731009D01*
X73580476Y-73731009D02*
X73628095Y-73683390D01*
X73628095Y-73683390D02*
X73723333Y-73635771D01*
X73723333Y-73635771D02*
X73961428Y-73635771D01*
X73961428Y-73635771D02*
X74056666Y-73683390D01*
X74056666Y-73683390D02*
X74104285Y-73731009D01*
X74104285Y-73731009D02*
X74151904Y-73826247D01*
X74151904Y-73826247D02*
X74151904Y-74064342D01*
X74151904Y-74064342D02*
X74104285Y-74159580D01*
X74104285Y-74159580D02*
X74056666Y-74207200D01*
X74056666Y-74207200D02*
X73961428Y-74254819D01*
X73961428Y-74254819D02*
X73723333Y-74254819D01*
X73723333Y-74254819D02*
X73628095Y-74207200D01*
X73628095Y-74207200D02*
X73580476Y-74159580D01*
X57033333Y-71954819D02*
X56700000Y-71478628D01*
X56461905Y-71954819D02*
X56461905Y-70954819D01*
X56461905Y-70954819D02*
X56842857Y-70954819D01*
X56842857Y-70954819D02*
X56938095Y-71002438D01*
X56938095Y-71002438D02*
X56985714Y-71050057D01*
X56985714Y-71050057D02*
X57033333Y-71145295D01*
X57033333Y-71145295D02*
X57033333Y-71288152D01*
X57033333Y-71288152D02*
X56985714Y-71383390D01*
X56985714Y-71383390D02*
X56938095Y-71431009D01*
X56938095Y-71431009D02*
X56842857Y-71478628D01*
X56842857Y-71478628D02*
X56461905Y-71478628D01*
X57366667Y-70954819D02*
X57985714Y-70954819D01*
X57985714Y-70954819D02*
X57652381Y-71335771D01*
X57652381Y-71335771D02*
X57795238Y-71335771D01*
X57795238Y-71335771D02*
X57890476Y-71383390D01*
X57890476Y-71383390D02*
X57938095Y-71431009D01*
X57938095Y-71431009D02*
X57985714Y-71526247D01*
X57985714Y-71526247D02*
X57985714Y-71764342D01*
X57985714Y-71764342D02*
X57938095Y-71859580D01*
X57938095Y-71859580D02*
X57890476Y-71907200D01*
X57890476Y-71907200D02*
X57795238Y-71954819D01*
X57795238Y-71954819D02*
X57509524Y-71954819D01*
X57509524Y-71954819D02*
X57414286Y-71907200D01*
X57414286Y-71907200D02*
X57366667Y-71859580D01*
X73457142Y-82054819D02*
X73123809Y-81578628D01*
X72885714Y-82054819D02*
X72885714Y-81054819D01*
X72885714Y-81054819D02*
X73266666Y-81054819D01*
X73266666Y-81054819D02*
X73361904Y-81102438D01*
X73361904Y-81102438D02*
X73409523Y-81150057D01*
X73409523Y-81150057D02*
X73457142Y-81245295D01*
X73457142Y-81245295D02*
X73457142Y-81388152D01*
X73457142Y-81388152D02*
X73409523Y-81483390D01*
X73409523Y-81483390D02*
X73361904Y-81531009D01*
X73361904Y-81531009D02*
X73266666Y-81578628D01*
X73266666Y-81578628D02*
X72885714Y-81578628D01*
X74409523Y-82054819D02*
X73838095Y-82054819D01*
X74123809Y-82054819D02*
X74123809Y-81054819D01*
X74123809Y-81054819D02*
X74028571Y-81197676D01*
X74028571Y-81197676D02*
X73933333Y-81292914D01*
X73933333Y-81292914D02*
X73838095Y-81340533D01*
X74742857Y-81054819D02*
X75361904Y-81054819D01*
X75361904Y-81054819D02*
X75028571Y-81435771D01*
X75028571Y-81435771D02*
X75171428Y-81435771D01*
X75171428Y-81435771D02*
X75266666Y-81483390D01*
X75266666Y-81483390D02*
X75314285Y-81531009D01*
X75314285Y-81531009D02*
X75361904Y-81626247D01*
X75361904Y-81626247D02*
X75361904Y-81864342D01*
X75361904Y-81864342D02*
X75314285Y-81959580D01*
X75314285Y-81959580D02*
X75266666Y-82007200D01*
X75266666Y-82007200D02*
X75171428Y-82054819D01*
X75171428Y-82054819D02*
X74885714Y-82054819D01*
X74885714Y-82054819D02*
X74790476Y-82007200D01*
X74790476Y-82007200D02*
X74742857Y-81959580D01*
D12*
%TO.C,C18*%
X71190000Y-83813748D02*
X71190000Y-85236252D01*
X73010000Y-83813748D02*
X73010000Y-85236252D01*
%TO.C,C12*%
X50611252Y-90165000D02*
X50088748Y-90165000D01*
X50611252Y-91635000D02*
X50088748Y-91635000D01*
%TO.C,R6*%
X74936359Y-63020000D02*
X75243641Y-63020000D01*
X74936359Y-63780000D02*
X75243641Y-63780000D01*
%TO.C,U1*%
X44690000Y-68190000D02*
X44690000Y-68640000D01*
X44690000Y-75410000D02*
X44690000Y-74960000D01*
X45140000Y-68190000D02*
X44690000Y-68190000D01*
X45140000Y-75410000D02*
X44690000Y-75410000D01*
X51460000Y-68190000D02*
X51910000Y-68190000D01*
X51460000Y-75410000D02*
X51910000Y-75410000D01*
X51910000Y-68190000D02*
X51910000Y-68640000D01*
X51910000Y-75410000D02*
X51910000Y-74960000D01*
X44100000Y-68640000D02*
X43760000Y-68170000D01*
X44440000Y-68170000D01*
X44100000Y-68640000D01*
G36*
X44100000Y-68640000D02*
G01*
X43760000Y-68170000D01*
X44440000Y-68170000D01*
X44100000Y-68640000D01*
G37*
%TO.C,C11*%
X39940000Y-72887836D02*
X39940000Y-72672164D01*
X40660000Y-72887836D02*
X40660000Y-72672164D01*
%TO.C,Q2*%
X81840000Y-59937500D02*
X81840000Y-59287500D01*
X81840000Y-59937500D02*
X81840000Y-60587500D01*
X84960000Y-59937500D02*
X84960000Y-59287500D01*
X84960000Y-59937500D02*
X84960000Y-60587500D01*
X81890000Y-61100000D02*
X81560000Y-61340000D01*
X81560000Y-60860000D01*
X81890000Y-61100000D01*
G36*
X81890000Y-61100000D02*
G01*
X81560000Y-61340000D01*
X81560000Y-60860000D01*
X81890000Y-61100000D01*
G37*
%TO.C,Q1*%
X77140000Y-62037500D02*
X77140000Y-61387500D01*
X77140000Y-62037500D02*
X77140000Y-62687500D01*
X80260000Y-62037500D02*
X80260000Y-61387500D01*
X80260000Y-62037500D02*
X80260000Y-62687500D01*
X77190000Y-63200000D02*
X76860000Y-63440000D01*
X76860000Y-62960000D01*
X77190000Y-63200000D01*
G36*
X77190000Y-63200000D02*
G01*
X76860000Y-63440000D01*
X76860000Y-62960000D01*
X77190000Y-63200000D01*
G37*
%TO.C,C9*%
X40840000Y-58307836D02*
X40840000Y-58092164D01*
X41560000Y-58307836D02*
X41560000Y-58092164D01*
%TO.C,R14*%
X78243641Y-78420000D02*
X77936359Y-78420000D01*
X78243641Y-79180000D02*
X77936359Y-79180000D01*
%TO.C,U6*%
X58240000Y-75600000D02*
X58240000Y-77000000D01*
X60560000Y-75590000D02*
X60560000Y-77000000D01*
X60840000Y-75460000D02*
X60510000Y-75220000D01*
X60840000Y-74980000D01*
X60840000Y-75460000D01*
G36*
X60840000Y-75460000D02*
G01*
X60510000Y-75220000D01*
X60840000Y-74980000D01*
X60840000Y-75460000D01*
G37*
%TO.C,C6*%
X41940000Y-73087836D02*
X41940000Y-72872164D01*
X42660000Y-73087836D02*
X42660000Y-72872164D01*
%TO.C,R10*%
X86263641Y-61920000D02*
X85956359Y-61920000D01*
X86263641Y-62680000D02*
X85956359Y-62680000D01*
%TO.C,C13*%
X44065000Y-84888748D02*
X44065000Y-85411252D01*
X45535000Y-84888748D02*
X45535000Y-85411252D01*
%TO.C,R1*%
X37440000Y-65263641D02*
X37440000Y-64956359D01*
X38200000Y-65263641D02*
X38200000Y-64956359D01*
%TO.C,C16*%
X68590000Y-83813748D02*
X68590000Y-85236252D01*
X70410000Y-83813748D02*
X70410000Y-85236252D01*
%TO.C,C2*%
X45692164Y-65440000D02*
X45907836Y-65440000D01*
X45692164Y-66160000D02*
X45907836Y-66160000D01*
%TO.C,R4*%
X54820000Y-73243641D02*
X54820000Y-72936359D01*
X55580000Y-73243641D02*
X55580000Y-72936359D01*
%TO.C,C17*%
X65790000Y-83813748D02*
X65790000Y-85236252D01*
X67610000Y-83813748D02*
X67610000Y-85236252D01*
%TO.C,F1*%
X82651248Y-87790000D02*
X85423752Y-87790000D01*
X82651248Y-91210000D02*
X85423752Y-91210000D01*
%TO.C,SW1*%
X32790000Y-62150000D02*
X32790000Y-67850000D01*
X33800000Y-68450000D02*
X34590000Y-68450000D01*
X34590000Y-61550000D02*
X33800000Y-61550000D01*
X35640000Y-63400000D02*
X35640000Y-65100000D01*
X35640000Y-66400000D02*
X35640000Y-66600000D01*
%TO.C,C3*%
X54040000Y-68692164D02*
X54040000Y-68907836D01*
X54760000Y-68692164D02*
X54760000Y-68907836D01*
%TO.C,R16*%
X55720000Y-74856359D02*
X55720000Y-75163641D01*
X56480000Y-74856359D02*
X56480000Y-75163641D01*
%TO.C,C15*%
X58588748Y-79065000D02*
X59111252Y-79065000D01*
X58588748Y-80535000D02*
X59111252Y-80535000D01*
%TO.C,R7*%
X78636359Y-64720000D02*
X78943641Y-64720000D01*
X78636359Y-65480000D02*
X78943641Y-65480000D01*
D13*
%TO.C,U3*%
X64400000Y-68064995D02*
X64400000Y-73064995D01*
X64400000Y-68064995D02*
X65170000Y-68064995D01*
X67400000Y-68064995D02*
X66630000Y-68064995D01*
X67400000Y-68064995D02*
X67400000Y-73064995D01*
X67400000Y-73064995D02*
X64400000Y-73064995D01*
X66629889Y-68077735D02*
G75*
G02*
X66630000Y-68064995I-729889J12730D01*
G01*
D10*
X65030000Y-68784995D02*
G75*
G02*
X64730000Y-68784995I-150000J0D01*
G01*
X64730000Y-68784995D02*
G75*
G02*
X65030000Y-68784995I150000J0D01*
G01*
D12*
%TO.C,C4*%
X50907836Y-77440000D02*
X50692164Y-77440000D01*
X50907836Y-78160000D02*
X50692164Y-78160000D01*
%TO.C,R5*%
X61420000Y-76236359D02*
X61420000Y-76543641D01*
X62180000Y-76236359D02*
X62180000Y-76543641D01*
%TO.C,C8*%
X41657836Y-77190000D02*
X41442164Y-77190000D01*
X41657836Y-77910000D02*
X41442164Y-77910000D01*
%TO.C,R2*%
X55420000Y-68656359D02*
X55420000Y-68963641D01*
X56180000Y-68656359D02*
X56180000Y-68963641D01*
%TO.C,R17*%
X53436359Y-77720000D02*
X53743641Y-77720000D01*
X53436359Y-78480000D02*
X53743641Y-78480000D01*
%TO.C,C1*%
X41840000Y-68972164D02*
X41840000Y-69187836D01*
X42560000Y-68972164D02*
X42560000Y-69187836D01*
%TO.C,R8*%
X82036359Y-62720000D02*
X82343641Y-62720000D01*
X82036359Y-63480000D02*
X82343641Y-63480000D01*
%TO.C,J1*%
X61215000Y-55585000D02*
X61215000Y-59215000D01*
X61280000Y-55585000D02*
X61215000Y-55585000D01*
X61280000Y-59215000D02*
X61215000Y-59215000D01*
X67720000Y-54310000D02*
X67720000Y-55585000D01*
X67785000Y-55585000D02*
X67720000Y-55585000D01*
X67785000Y-55585000D02*
X67785000Y-59215000D01*
X67785000Y-59215000D02*
X67720000Y-59215000D01*
%TO.C,C5*%
X45659420Y-63690000D02*
X45940580Y-63690000D01*
X45659420Y-64710000D02*
X45940580Y-64710000D01*
%TO.C,R11*%
X67820000Y-79663641D02*
X67820000Y-79356359D01*
X68580000Y-79663641D02*
X68580000Y-79356359D01*
%TO.C,C10*%
X39940000Y-70637836D02*
X39940000Y-70422164D01*
X40660000Y-70637836D02*
X40660000Y-70422164D01*
D11*
%TO.C,D1*%
X78640000Y-82500000D02*
X83910000Y-82510000D01*
X78650000Y-86310000D02*
X83900000Y-86290000D01*
D12*
%TO.C,U2*%
X46690000Y-82990000D02*
X47950000Y-82990000D01*
X46690000Y-86750000D02*
X46690000Y-82990000D01*
X53510000Y-82990000D02*
X52250000Y-82990000D01*
X53510000Y-86750000D02*
X53510000Y-82990000D01*
X46790000Y-88030000D02*
X46460000Y-88270000D01*
X46460000Y-87790000D01*
X46790000Y-88030000D01*
G36*
X46790000Y-88030000D02*
G01*
X46460000Y-88270000D01*
X46460000Y-87790000D01*
X46790000Y-88030000D01*
G37*
%TO.C,R12*%
X70556359Y-80020000D02*
X70863641Y-80020000D01*
X70556359Y-80780000D02*
X70863641Y-80780000D01*
%TO.C,Q4*%
X73940000Y-76600000D02*
X73940000Y-75950000D01*
X73940000Y-76600000D02*
X73940000Y-77250000D01*
X77060000Y-76600000D02*
X77060000Y-75950000D01*
X77060000Y-76600000D02*
X77060000Y-77250000D01*
X73990000Y-77762500D02*
X73660000Y-78002500D01*
X73660000Y-77522500D01*
X73990000Y-77762500D01*
G36*
X73990000Y-77762500D02*
G01*
X73660000Y-78002500D01*
X73660000Y-77522500D01*
X73990000Y-77762500D01*
G37*
D11*
%TO.C,SW2*%
X43060000Y-56270000D02*
X43720000Y-56270000D01*
X43060000Y-60330000D02*
X43060000Y-56270000D01*
X46140000Y-56270000D02*
X45480000Y-56270000D01*
X46140000Y-60330000D02*
X46140000Y-56270000D01*
D13*
X45500000Y-58300000D02*
G75*
G02*
X43700000Y-58300000I-900000J0D01*
G01*
X43700000Y-58300000D02*
G75*
G02*
X45500000Y-58300000I900000J0D01*
G01*
D12*
%TO.C,Y1*%
X35990000Y-69640000D02*
X35990000Y-73760000D01*
X39410000Y-69640000D02*
X35990000Y-69640000D01*
%TO.C,Q3*%
X69340000Y-77737500D02*
X69340000Y-77087500D01*
X69340000Y-77737500D02*
X69340000Y-78387500D01*
X72460000Y-77737500D02*
X72460000Y-77087500D01*
X72460000Y-77737500D02*
X72460000Y-78387500D01*
X69390000Y-78900000D02*
X69060000Y-79140000D01*
X69060000Y-78660000D01*
X69390000Y-78900000D01*
G36*
X69390000Y-78900000D02*
G01*
X69060000Y-79140000D01*
X69060000Y-78660000D01*
X69390000Y-78900000D01*
G37*
%TO.C,C14*%
X63365000Y-84388748D02*
X63365000Y-84911252D01*
X64835000Y-84388748D02*
X64835000Y-84911252D01*
%TO.C,R9*%
X82843641Y-57020000D02*
X82536359Y-57020000D01*
X82843641Y-57780000D02*
X82536359Y-57780000D01*
%TO.C,U4*%
X55677500Y-84330000D02*
X55947500Y-84330000D01*
X55677500Y-90750000D02*
X55677500Y-84330000D01*
X62577500Y-84330000D02*
X62307500Y-84330000D01*
X62577500Y-90750000D02*
X62577500Y-84330000D01*
X62737500Y-82940000D02*
X62267500Y-82600000D01*
X62737500Y-82260000D01*
X62737500Y-82940000D01*
G36*
X62737500Y-82940000D02*
G01*
X62267500Y-82600000D01*
X62737500Y-82260000D01*
X62737500Y-82940000D01*
G37*
D13*
%TO.C,U5*%
X81600000Y-64100000D02*
X94800000Y-64100000D01*
X81600000Y-65100000D02*
X81600000Y-64100000D01*
X81600000Y-81100000D02*
X84600000Y-81100000D01*
X81600000Y-82100000D02*
X81600000Y-81100000D01*
X84600000Y-65100000D02*
X81600000Y-65100000D01*
X84600000Y-65240000D02*
X84600000Y-65100000D01*
X84600000Y-67240000D02*
X84600000Y-66960000D01*
X84600000Y-69240000D02*
X84600000Y-68960000D01*
X84600000Y-71240000D02*
X84600000Y-70960000D01*
X84600000Y-73240000D02*
X84600000Y-72960000D01*
X84600000Y-75240000D02*
X84600000Y-74960000D01*
X84600000Y-77240000D02*
X84600000Y-76960000D01*
X84600000Y-79240000D02*
X84600000Y-78960000D01*
X84600000Y-81100000D02*
X84600000Y-80960000D01*
X94800000Y-64100000D02*
X94800000Y-82100000D01*
X94800000Y-82100000D02*
X81600000Y-82100000D01*
D12*
%TO.C,FB1*%
X42790000Y-76674721D02*
X42790000Y-77000279D01*
X43810000Y-76674721D02*
X43810000Y-77000279D01*
%TO.C,C7*%
X41677836Y-75690000D02*
X41462164Y-75690000D01*
X41677836Y-76410000D02*
X41462164Y-76410000D01*
%TO.C,R15*%
X73753641Y-74520000D02*
X73446359Y-74520000D01*
X73753641Y-75280000D02*
X73446359Y-75280000D01*
%TO.C,R3*%
X56120000Y-73263641D02*
X56120000Y-72956359D01*
X56880000Y-73263641D02*
X56880000Y-72956359D01*
%TO.C,R13*%
X74036359Y-80020000D02*
X74343641Y-80020000D01*
X74036359Y-80780000D02*
X74343641Y-80780000D01*
%TD*%
%LPC*%
D14*
%TO.C,C18*%
X72100000Y-83050000D03*
X72100000Y-86000000D03*
%TD*%
D15*
%TO.C,C12*%
X51300000Y-90900000D03*
X49400000Y-90900000D03*
%TD*%
D16*
%TO.C,R6*%
X74580000Y-63400000D03*
X75600000Y-63400000D03*
%TD*%
D17*
%TO.C,U1*%
X44137500Y-69050000D03*
X44137500Y-69550000D03*
X44137500Y-70050000D03*
X44137500Y-70550000D03*
X44137500Y-71050000D03*
X44137500Y-71550000D03*
X44137500Y-72050000D03*
X44137500Y-72550000D03*
X44137500Y-73050000D03*
X44137500Y-73550000D03*
X44137500Y-74050000D03*
X44137500Y-74550000D03*
D18*
X45550000Y-75962500D03*
X46050000Y-75962500D03*
X46550000Y-75962500D03*
X47050000Y-75962500D03*
X47550000Y-75962500D03*
X48050000Y-75962500D03*
X48550000Y-75962500D03*
X49050000Y-75962500D03*
X49550000Y-75962500D03*
X50050000Y-75962500D03*
X50550000Y-75962500D03*
X51050000Y-75962500D03*
D17*
X52462500Y-74550000D03*
X52462500Y-74050000D03*
X52462500Y-73550000D03*
X52462500Y-73050000D03*
X52462500Y-72550000D03*
X52462500Y-72050000D03*
X52462500Y-71550000D03*
X52462500Y-71050000D03*
X52462500Y-70550000D03*
X52462500Y-70050000D03*
X52462500Y-69550000D03*
X52462500Y-69050000D03*
D18*
X51050000Y-67637500D03*
X50550000Y-67637500D03*
X50050000Y-67637500D03*
X49550000Y-67637500D03*
X49050000Y-67637500D03*
X48550000Y-67637500D03*
X48050000Y-67637500D03*
X47550000Y-67637500D03*
X47050000Y-67637500D03*
X46550000Y-67637500D03*
X46050000Y-67637500D03*
X45550000Y-67637500D03*
%TD*%
D19*
%TO.C,C11*%
X40300000Y-73260000D03*
X40300000Y-72300000D03*
%TD*%
D20*
%TO.C,Q2*%
X82450000Y-60875000D03*
X84350000Y-60875000D03*
X83400000Y-59000000D03*
%TD*%
%TO.C,Q1*%
X77750000Y-62975000D03*
X79650000Y-62975000D03*
X78700000Y-61100000D03*
%TD*%
D19*
%TO.C,C9*%
X41200000Y-58680000D03*
X41200000Y-57720000D03*
%TD*%
D21*
%TO.C,R14*%
X78600000Y-78800000D03*
X77580000Y-78800000D03*
%TD*%
D22*
%TO.C,U6*%
X60050000Y-75350000D03*
X59400000Y-75350000D03*
X58750000Y-75350000D03*
X58750000Y-77250000D03*
X59400000Y-77250000D03*
X60050000Y-77250000D03*
%TD*%
D19*
%TO.C,C6*%
X42300000Y-73460000D03*
X42300000Y-72500000D03*
%TD*%
D23*
%TO.C,H4*%
X35600000Y-89100000D03*
%TD*%
D21*
%TO.C,R10*%
X86620000Y-62300000D03*
X85600000Y-62300000D03*
%TD*%
D24*
%TO.C,C13*%
X44800000Y-84200000D03*
X44800000Y-86100000D03*
%TD*%
D25*
%TO.C,R1*%
X37820000Y-65620000D03*
X37820000Y-64600000D03*
%TD*%
D14*
%TO.C,C16*%
X69500000Y-83050000D03*
X69500000Y-86000000D03*
%TD*%
D26*
%TO.C,C2*%
X45320000Y-65800000D03*
X46280000Y-65800000D03*
%TD*%
D25*
%TO.C,R4*%
X55200000Y-73600000D03*
X55200000Y-72580000D03*
%TD*%
D14*
%TO.C,C17*%
X66700000Y-83050000D03*
X66700000Y-86000000D03*
%TD*%
D27*
%TO.C,F1*%
X81900000Y-89500000D03*
X86175000Y-89500000D03*
%TD*%
D28*
%TO.C,SW1*%
X35300000Y-61350000D03*
X33090000Y-61350000D03*
D29*
X34190000Y-63500000D03*
X34190000Y-66500000D03*
D28*
X35300000Y-68650000D03*
X33090000Y-68650000D03*
D30*
X35950000Y-62750000D03*
X35950000Y-65750000D03*
X35950000Y-67250000D03*
%TD*%
D31*
%TO.C,C3*%
X54400000Y-68320000D03*
X54400000Y-69280000D03*
%TD*%
D32*
%TO.C,R16*%
X56100000Y-74500000D03*
X56100000Y-75520000D03*
%TD*%
D33*
%TO.C,C15*%
X57900000Y-79800000D03*
X59800000Y-79800000D03*
%TD*%
D16*
%TO.C,R7*%
X78280000Y-65100000D03*
X79300000Y-65100000D03*
%TD*%
D34*
%TO.C,U3*%
X63190000Y-68654995D03*
X63190000Y-69934995D03*
X63190000Y-71194995D03*
X63190000Y-72464995D03*
X68610000Y-72464995D03*
X68610000Y-71194995D03*
X68610000Y-69934995D03*
X68610000Y-68654995D03*
%TD*%
D35*
%TO.C,C4*%
X51280000Y-77800000D03*
X50320000Y-77800000D03*
%TD*%
D32*
%TO.C,R5*%
X61800000Y-75880000D03*
X61800000Y-76900000D03*
%TD*%
D23*
%TO.C,H3*%
X75600000Y-89100000D03*
%TD*%
D35*
%TO.C,C8*%
X42030000Y-77550000D03*
X41070000Y-77550000D03*
%TD*%
D32*
%TO.C,R2*%
X55800000Y-68300000D03*
X55800000Y-69320000D03*
%TD*%
D16*
%TO.C,R17*%
X53080000Y-78100000D03*
X54100000Y-78100000D03*
%TD*%
D31*
%TO.C,C1*%
X42200000Y-68600000D03*
X42200000Y-69560000D03*
%TD*%
D16*
%TO.C,R8*%
X81680000Y-63100000D03*
X82700000Y-63100000D03*
%TD*%
D36*
%TO.C,J1*%
X67040000Y-55450000D03*
X67040000Y-59350000D03*
X65770000Y-55450000D03*
X65770000Y-59350000D03*
X64500000Y-55450000D03*
X64500000Y-59350000D03*
X63230000Y-55450000D03*
X63230000Y-59350000D03*
X61960000Y-55450000D03*
X61960000Y-59350000D03*
%TD*%
D37*
%TO.C,C5*%
X45025000Y-64200000D03*
X46575000Y-64200000D03*
%TD*%
D25*
%TO.C,R11*%
X68200000Y-80020000D03*
X68200000Y-79000000D03*
%TD*%
D19*
%TO.C,C10*%
X40300000Y-71010000D03*
X40300000Y-70050000D03*
%TD*%
D23*
%TO.C,H1*%
X75600000Y-57100000D03*
%TD*%
D38*
%TO.C,D1*%
X83900000Y-84400000D03*
X78720000Y-84400000D03*
%TD*%
D39*
%TO.C,U2*%
X47800000Y-88050000D03*
X50100000Y-88050000D03*
D40*
X50100000Y-81750000D03*
D39*
X52400000Y-88050000D03*
%TD*%
D16*
%TO.C,R12*%
X70200000Y-80400000D03*
X71220000Y-80400000D03*
%TD*%
D20*
%TO.C,Q4*%
X74550000Y-77537500D03*
X76450000Y-77537500D03*
X75500000Y-75662500D03*
%TD*%
D41*
%TO.C,SW2*%
X44600000Y-56120000D03*
X44600000Y-60480000D03*
%TD*%
D42*
%TO.C,Y1*%
X36850000Y-70600000D03*
X36850000Y-72800000D03*
X38550000Y-72800000D03*
X38550000Y-70600000D03*
%TD*%
D20*
%TO.C,Q3*%
X69950000Y-78675000D03*
X71850000Y-78675000D03*
X70900000Y-76800000D03*
%TD*%
D24*
%TO.C,C14*%
X64100000Y-83700000D03*
X64100000Y-85600000D03*
%TD*%
D21*
%TO.C,R9*%
X83200000Y-57400000D03*
X82180000Y-57400000D03*
%TD*%
D43*
%TO.C,U4*%
X61407500Y-82600000D03*
D44*
X59127500Y-88900000D03*
D43*
X56847500Y-82600000D03*
%TD*%
D45*
%TO.C,U5*%
X84100000Y-66100000D03*
X82100000Y-66100000D03*
X84100000Y-68100000D03*
X82100000Y-68100000D03*
X84100000Y-70100000D03*
X82100000Y-70100000D03*
X84100000Y-72100000D03*
X82100000Y-72100000D03*
X84100000Y-74100000D03*
X82100000Y-74100000D03*
X84100000Y-76100000D03*
X82100000Y-76100000D03*
X84100000Y-78100000D03*
X82100000Y-78100000D03*
X84100000Y-80100000D03*
X82100000Y-80100000D03*
%TD*%
D46*
%TO.C,FB1*%
X43300000Y-76050000D03*
X43300000Y-77625000D03*
%TD*%
D35*
%TO.C,C7*%
X42050000Y-76050000D03*
X41090000Y-76050000D03*
%TD*%
D23*
%TO.C,H2*%
X35600000Y-57100000D03*
%TD*%
D21*
%TO.C,R15*%
X74110000Y-74900000D03*
X73090000Y-74900000D03*
%TD*%
D25*
%TO.C,R3*%
X56500000Y-73620000D03*
X56500000Y-72600000D03*
%TD*%
D16*
%TO.C,R13*%
X73680000Y-80400000D03*
X74700000Y-80400000D03*
%TD*%
%LPD*%
M02*
